<?xml version="1.0" encoding="utf-8"?>
<svg viewBox="0 0 800 200" xmlns="http://www.w3.org/2000/svg">
  <g transform="matrix(0.394949, 0, 0, 0.394949, 319.261353, 260.372406)">
    <path d="M -60.748 -554.14 L -96.754 -554.14 L -96.754 -557.977 L -60.748 -557.977 Z M -24.765 -554.14 L -60.771 -554.14 L -60.771 -557.977 L -24.765 -557.977 Z M 11.268 -554.14 L -24.738 -554.14 L -24.738 -557.977 L 11.268 -557.977 Z M 47.251 -554.14 L 11.245 -554.14 L 11.245 -557.977 L 47.251 -557.977 Z M 83.234 -554.14 L 47.228 -554.14 L 47.228 -557.977 L 83.234 -557.977 Z M 299.231 -554.14 L 263.225 -554.14 L 263.225 -557.977 L 299.231 -557.977 Z" style="fill: rgb(255, 255, 255); white-space: pre;"/>
    <path d="M -112.639 -495.985 L -117.151 -495.985 L -117.151 -548.544 L -112.639 -548.544 Z M -60.748 -494.14 L -96.754 -494.14 L -96.754 -497.977 L -60.748 -497.977 Z M -24.765 -494.14 L -60.771 -494.14 L -60.771 -497.977 L -24.765 -497.977 Z M 11.268 -494.14 L -24.738 -494.14 L -24.738 -497.977 L 11.268 -497.977 Z M 47.251 -494.14 L 11.245 -494.14 L 11.245 -497.977 L 47.251 -497.977 Z M 103.358 -495.985 L 98.846 -495.985 L 98.846 -548.544 L 103.358 -548.544 Z M 247.34 -495.985 L 242.828 -495.985 L 242.828 -548.544 L 247.34 -548.544 Z M 319.356 -495.985 L 314.844 -495.985 L 314.844 -548.544 L 319.356 -548.544 Z" style="fill: rgb(255, 255, 255); white-space: pre;"/>
    <path d="M 39.809 -489.335 L 21.85 -446.415 L 17.544 -446.415 L 35.415 -489.335 Z M 111.825 -489.335 L 93.866 -446.415 L 89.559 -446.415 L 107.43 -489.335 Z M 191.233 -434.14 L 155.227 -434.14 L 155.227 -437.977 L 191.233 -437.977 Z M 227.265 -434.14 L 191.259 -434.14 L 191.259 -437.977 L 227.265 -437.977 Z M 247.34 -435.985 L 242.828 -435.985 L 242.828 -488.544 L 247.34 -488.544 Z M 319.356 -435.985 L 314.844 -435.985 L 314.844 -488.544 L 319.356 -488.544 Z M 407.23 -434.14 L 371.224 -434.14 L 371.224 -437.977 L 407.23 -437.977 Z M 443.262 -434.14 L 407.257 -434.14 L 407.257 -437.977 L 443.262 -437.977 Z M 479.246 -434.14 L 443.24 -434.14 L 443.24 -437.977 L 479.246 -437.977 Z" style="fill: rgb(255, 255, 255); white-space: pre;"/>
    <path d="M 39.751 -386.415 L 35.415 -386.415 L 17.485 -429.335 L 21.85 -429.335 Z M 111.766 -386.415 L 107.43 -386.415 L 89.501 -429.335 L 93.866 -429.335 Z M 147.808 -429.335 L 129.849 -386.415 L 125.542 -386.415 L 143.414 -429.335 Z M 227.265 -374.14 L 191.259 -374.14 L 191.259 -377.977 L 227.265 -377.977 Z M 249.86 -421.337 L 246.549 -421.337 L 237.438 -430.155 L 244.029 -430.155 Z M 319.356 -375.985 L 314.844 -375.985 L 314.844 -428.544 L 319.356 -428.544 Z M 363.806 -429.335 L 345.847 -386.415 L 341.54 -386.415 L 359.411 -429.335 Z M 443.263 -374.14 L 407.257 -374.14 L 407.257 -377.977 L 443.263 -377.977 Z M 507.729 -386.415 L 503.393 -386.415 L 485.463 -429.335 L 489.828 -429.335 Z" style="fill: rgb(255, 255, 255); white-space: pre;"/>
    <path d="M -114.924 -333.915 C -113.889 -333.915 -113.02 -333.563 -112.317 -332.86 C -111.614 -332.157 -111.262 -331.288 -111.262 -330.253 C -111.262 -329.198 -111.619 -328.295 -112.332 -327.543 C -113.045 -326.791 -113.909 -326.415 -114.924 -326.415 C -115.921 -326.415 -116.77 -326.791 -117.473 -327.543 C -118.176 -328.295 -118.528 -329.198 -118.528 -330.253 C -118.528 -331.308 -118.181 -332.182 -117.488 -332.875 C -116.795 -333.568 -115.94 -333.915 -114.924 -333.915 Z M -60.748 -314.14 L -96.754 -314.14 L -96.754 -317.977 L -60.748 -317.977 Z M -24.765 -314.14 L -60.771 -314.14 L -60.771 -317.977 L -24.765 -317.977 Z M 11.268 -314.14 L -24.738 -314.14 L -24.738 -317.977 L 11.268 -317.977 Z M 39.809 -369.335 L 21.85 -326.415 L 17.544 -326.415 L 35.415 -369.335 Z M 111.825 -369.335 L 93.866 -326.415 L 89.559 -326.415 L 107.43 -369.335 Z M 183.293 -321.083 L 181.506 -318.563 C 177.151 -321.864 173.83 -325.702 171.545 -330.077 C 169.26 -334.452 168.117 -339.071 168.117 -343.934 C 168.117 -348.837 169.25 -353.461 171.516 -357.807 C 173.781 -362.152 177.112 -365.975 181.506 -369.276 L 183.293 -366.757 C 179.719 -363.554 177.146 -360.199 175.573 -356.693 C 174.001 -353.187 173.215 -348.954 173.215 -343.993 C 173.215 -338.856 174.03 -334.535 175.661 -331.029 C 177.292 -327.523 179.836 -324.208 183.293 -321.083 Z M 227.265 -314.14 L 191.259 -314.14 L 191.259 -317.977 L 227.265 -317.977 Z M 247.34 -315.985 L 242.828 -315.985 L 242.828 -368.544 L 247.34 -368.544 Z M 319.356 -315.985 L 314.844 -315.985 L 314.844 -368.544 L 319.356 -368.544 Z M 399.291 -321.083 L 397.504 -318.563 C 393.148 -321.864 389.828 -325.702 387.543 -330.077 C 385.257 -334.452 384.115 -339.071 384.115 -343.934 C 384.115 -348.837 385.248 -353.461 387.513 -357.807 C 389.779 -362.152 393.109 -365.975 397.504 -369.276 L 399.291 -366.757 C 395.716 -363.554 393.143 -360.199 391.571 -356.693 C 389.999 -353.187 389.213 -348.954 389.213 -343.993 C 389.213 -338.856 390.028 -334.535 391.659 -331.029 C 393.29 -327.523 395.834 -324.208 399.291 -321.083 Z M 443.263 -314.14 L 407.257 -314.14 L 407.257 -317.977 L 443.263 -317.977 Z M 452.966 -369.276 C 457.341 -365.975 460.662 -362.152 462.927 -357.807 C 465.193 -353.461 466.326 -348.837 466.326 -343.934 C 466.326 -339.071 465.188 -334.452 462.913 -330.077 C 460.637 -325.702 457.322 -321.864 452.966 -318.563 L 451.15 -321.083 C 454.724 -324.247 457.297 -327.611 458.87 -331.176 C 460.442 -334.74 461.228 -339.013 461.228 -343.993 C 461.228 -349.13 460.418 -353.427 458.797 -356.884 C 457.175 -360.341 454.627 -363.632 451.15 -366.757 Z M 535.353 -315.985 L 530.841 -315.985 L 530.841 -368.544 L 535.353 -368.544 Z" style="fill: rgb(255, 255, 255); white-space: pre;"/>
    <path d="M -104.231 -266.415 L -108.567 -266.415 L -126.497 -309.335 L -122.132 -309.335 Z M -60.748 -254.14 L -96.754 -254.14 L -96.754 -257.977 L -60.748 -257.977 Z M -24.765 -254.14 L -60.771 -254.14 L -60.771 -257.977 L -24.765 -257.977 Z M 11.267 -254.14 L -24.738 -254.14 L -24.738 -257.977 L 11.267 -257.977 Z M 47.251 -254.14 L 11.245 -254.14 L 11.245 -257.977 L 47.251 -257.977 Z M 75.792 -309.335 L 57.833 -266.415 L 53.527 -266.415 L 71.398 -309.335 Z M 147.749 -266.415 L 143.413 -266.415 L 125.484 -309.335 L 129.849 -309.335 Z M 191.232 -254.14 L 155.227 -254.14 L 155.227 -257.977 L 191.232 -257.977 Z M 227.265 -254.14 L 191.259 -254.14 L 191.259 -257.977 L 227.265 -257.977 Z M 245.289 -266.415 C 244.273 -266.532 243.434 -266.952 242.77 -267.675 C 242.105 -268.397 241.773 -269.218 241.773 -270.136 C 241.773 -271.132 242.096 -271.972 242.74 -272.655 C 243.385 -273.339 244.195 -273.681 245.172 -273.681 C 246.266 -273.681 247.213 -273.236 248.014 -272.348 C 248.814 -271.459 249.215 -270.39 249.215 -269.14 C 249.215 -265.311 247.086 -262.323 242.828 -260.175 L 241.715 -262.284 C 244.098 -263.456 245.289 -264.833 245.289 -266.415 Z M 299.231 -254.14 L 263.225 -254.14 L 263.225 -257.977 L 299.231 -257.977 Z M 319.355 -255.985 L 314.844 -255.985 L 314.844 -308.544 L 319.355 -308.544 Z M 363.747 -266.415 L 359.411 -266.415 L 341.481 -309.335 L 345.846 -309.335 Z M 407.23 -254.14 L 371.224 -254.14 L 371.224 -257.977 L 407.23 -257.977 Z M 443.262 -254.14 L 407.257 -254.14 L 407.257 -257.977 L 443.262 -257.977 Z M 479.246 -254.14 L 443.24 -254.14 L 443.24 -257.977 L 479.246 -257.977 Z M 507.787 -309.335 L 489.828 -266.415 L 485.522 -266.415 L 503.393 -309.335 Z" style="fill: rgb(255, 255, 255); white-space: pre;"/>
  </g>
</svg>