<?xml version="1.0" encoding="utf-8"?>
<svg viewBox="0 0 800 200" xmlns="http://www.w3.org/2000/svg" xmlns:bx="https://boxy-svg.com">
  <g transform="matrix(0.283046, 0, 0, 0.283046, 201.8582, 245.528076)" bx:origin="0.500002 0.5">
    <path d="M -451.328 -662.231 L -487.333 -662.231 L -487.333 -666.069 L -451.328 -666.069 Z M -307.346 -662.231 L -343.352 -662.231 L -343.352 -666.069 L -307.346 -666.069 Z M -235.33 -662.231 L -271.336 -662.231 L -271.336 -666.069 L -235.33 -666.069 Z M 52.683 -662.231 L 16.677 -662.231 L 16.677 -666.069 L 52.683 -666.069 Z M 700.675 -662.231 L 664.669 -662.231 L 664.669 -666.069 L 700.675 -666.069 Z M 1096.638 -662.231 L 1060.632 -662.231 L 1060.632 -666.069 L 1096.638 -666.069 Z M 1132.67 -662.231 L 1096.664 -662.231 L 1096.664 -666.069 L 1132.67 -666.069 Z M 1168.653 -662.231 L 1132.648 -662.231 L 1132.648 -666.069 L 1168.653 -666.069 Z M 1204.636 -662.231 L 1168.631 -662.231 L 1168.631 -666.069 L 1204.636 -666.069 Z M 1384.651 -662.231 L 1348.645 -662.231 L 1348.645 -666.069 L 1384.651 -666.069 Z M 1420.634 -662.231 L 1384.628 -662.231 L 1384.628 -666.069 L 1420.634 -666.069 Z M 1456.666 -662.231 L 1420.661 -662.231 L 1420.661 -666.069 L 1456.666 -666.069 Z M 1492.65 -662.231 L 1456.644 -662.231 L 1456.644 -666.069 L 1492.65 -666.069 Z M 1528.633 -662.231 L 1492.627 -662.231 L 1492.627 -666.069 L 1528.633 -666.069 Z M 1564.665 -662.231 L 1528.659 -662.231 L 1528.659 -666.069 L 1564.665 -666.069 Z M 1600.648 -662.231 L 1564.642 -662.231 L 1564.642 -666.069 L 1600.648 -666.069 Z M 1636.631 -662.231 L 1600.625 -662.231 L 1600.625 -666.069 L 1636.631 -666.069 Z M 1672.664 -662.231 L 1636.658 -662.231 L 1636.658 -666.069 L 1672.664 -666.069 Z M 1708.647 -662.231 L 1672.641 -662.231 L 1672.641 -666.069 L 1708.647 -666.069 Z M 1744.63 -662.231 L 1708.624 -662.231 L 1708.624 -666.069 L 1744.63 -666.069 Z M 1780.662 -662.231 L 1744.657 -662.231 L 1744.657 -666.069 L 1780.662 -666.069 Z M 1816.646 -662.231 L 1780.64 -662.231 L 1780.64 -666.069 L 1816.646 -666.069 Z M 1852.629 -662.231 L 1816.623 -662.231 L 1816.623 -666.069 L 1852.629 -666.069 Z M 1888.661 -662.231 L 1852.655 -662.231 L 1852.655 -666.069 L 1888.661 -666.069 Z" style="fill: rgb(255, 255, 255); white-space: pre;"/>
    <path d="M -503.219 -604.077 L -507.731 -604.077 L -507.731 -656.636 L -503.219 -656.636 Z M -422.845 -614.507 L -427.181 -614.507 L -445.11 -657.427 L -440.745 -657.427 Z M -359.237 -604.077 L -363.749 -604.077 L -363.749 -656.636 L -359.237 -656.636 Z M -279.253 -609.175 L -281.04 -606.655 C -285.395 -609.956 -288.716 -613.794 -291.001 -618.169 C -293.286 -622.544 -294.429 -627.163 -294.429 -632.026 C -294.429 -636.929 -293.296 -641.553 -291.03 -645.898 C -288.765 -650.244 -285.434 -654.067 -281.04 -657.368 L -279.253 -654.848 C -282.827 -651.645 -285.4 -648.291 -286.973 -644.785 C -288.545 -641.279 -289.331 -637.046 -289.331 -632.085 C -289.331 -626.948 -288.515 -622.627 -286.885 -619.121 C -285.254 -615.615 -282.71 -612.3 -279.253 -609.175 Z M -235.33 -602.231 L -271.336 -602.231 L -271.336 -606.069 L -235.33 -606.069 Z M -225.626 -657.368 C -221.251 -654.067 -217.931 -650.244 -215.665 -645.898 C -213.4 -641.553 -212.267 -636.929 -212.267 -632.026 C -212.267 -627.163 -213.405 -622.544 -215.68 -618.169 C -217.956 -613.794 -221.271 -609.956 -225.626 -606.655 L -227.443 -609.175 C -223.869 -612.339 -221.295 -615.703 -219.723 -619.267 C -218.151 -622.832 -217.365 -627.104 -217.365 -632.085 C -217.365 -637.222 -218.175 -641.518 -219.796 -644.975 C -221.417 -648.432 -223.966 -651.723 -227.443 -654.848 Z M 0.742 -604.077 L -3.77 -604.077 L -3.77 -656.636 L 0.742 -656.636 Z M 72.758 -604.077 L 68.246 -604.077 L 68.246 -656.636 L 72.758 -656.636 Z M 648.735 -604.077 L 644.223 -604.077 L 644.223 -656.636 L 648.735 -656.636 Z M 720.75 -604.077 L 716.238 -604.077 L 716.238 -656.636 L 720.75 -656.636 Z M 1053.213 -657.427 L 1035.254 -614.507 L 1030.948 -614.507 L 1048.819 -657.427 Z M 1132.67 -602.231 L 1096.664 -602.231 L 1096.664 -606.069 L 1132.67 -606.069 Z M 1168.653 -602.231 L 1132.647 -602.231 L 1132.647 -606.069 L 1168.653 -606.069 Z M 1204.636 -602.231 L 1168.631 -602.231 L 1168.631 -606.069 L 1204.636 -606.069 Z M 1224.761 -604.077 L 1220.249 -604.077 L 1220.249 -656.636 L 1224.761 -656.636 Z M 1341.226 -657.427 L 1323.267 -614.507 L 1318.961 -614.507 L 1336.832 -657.427 Z M 1476.741 -604.077 L 1472.23 -604.077 L 1472.23 -656.636 L 1476.741 -656.636 Z M 1600.648 -602.231 L 1564.642 -602.231 L 1564.642 -606.069 L 1600.648 -606.069 Z M 1701.147 -614.507 L 1696.811 -614.507 L 1678.881 -657.427 L 1683.247 -657.427 Z M 1816.646 -602.231 L 1780.64 -602.231 L 1780.64 -606.069 L 1816.646 -606.069 Z M 1917.144 -614.507 L 1912.808 -614.507 L 1894.879 -657.427 L 1899.244 -657.427 Z" style="fill: rgb(255, 255, 255); white-space: pre;"/>
    <path d="M -503.219 -544.077 L -507.731 -544.077 L -507.731 -596.636 L -503.219 -596.636 Z M -386.812 -554.507 L -391.148 -554.507 L -409.078 -597.427 L -404.712 -597.427 Z M -359.237 -544.077 L -363.749 -544.077 L -363.749 -596.636 L -359.237 -596.636 Z M -287.222 -544.077 L -291.733 -544.077 L -291.733 -596.636 L -287.222 -596.636 Z M -235.33 -542.231 L -271.336 -542.231 L -271.336 -546.069 L -235.33 -546.069 Z M -163.315 -542.231 L -199.32 -542.231 L -199.32 -546.069 L -163.315 -546.069 Z M -91.348 -542.231 L -127.354 -542.231 L -127.354 -546.069 L -91.348 -546.069 Z M -55.316 -542.231 L -91.322 -542.231 L -91.322 -546.069 L -55.316 -546.069 Z M 0.742 -544.077 L -3.77 -544.077 L -3.77 -596.636 L 0.742 -596.636 Z M 72.758 -544.077 L 68.246 -544.077 L 68.246 -596.636 L 72.758 -596.636 Z M 124.649 -542.231 L 88.643 -542.231 L 88.643 -546.069 L 124.649 -546.069 Z M 196.665 -542.231 L 160.659 -542.231 L 160.659 -546.069 L 196.665 -546.069 Z M 232.648 -542.231 L 196.642 -542.231 L 196.642 -546.069 L 232.648 -546.069 Z M 268.68 -542.231 L 232.674 -542.231 L 232.674 -546.069 L 268.68 -546.069 Z M 340.647 -542.231 L 304.641 -542.231 L 304.641 -546.069 L 340.647 -546.069 Z M 412.662 -542.231 L 376.656 -542.231 L 376.656 -546.069 L 412.662 -546.069 Z M 448.645 -542.231 L 412.639 -542.231 L 412.639 -546.069 L 448.645 -546.069 Z M 592.677 -542.231 L 556.671 -542.231 L 556.671 -546.069 L 592.677 -546.069 Z M 628.66 -542.231 L 592.654 -542.231 L 592.654 -546.069 L 628.66 -546.069 Z M 648.735 -544.077 L 644.223 -544.077 L 644.223 -596.636 L 648.735 -596.636 Z M 720.75 -544.077 L 716.238 -544.077 L 716.238 -596.636 L 720.75 -596.636 Z M 808.674 -542.231 L 772.668 -542.231 L 772.668 -546.069 L 808.674 -546.069 Z M 844.657 -542.231 L 808.651 -542.231 L 808.651 -546.069 L 844.657 -546.069 Z M 880.64 -542.231 L 844.634 -542.231 L 844.634 -546.069 L 880.64 -546.069 Z M 1017.23 -597.427 L 999.271 -554.507 L 994.964 -554.507 L 1012.836 -597.427 Z M 1089.196 -597.427 L 1071.237 -554.507 L 1066.931 -554.507 L 1084.802 -597.427 Z M 1132.67 -542.231 L 1096.664 -542.231 L 1096.664 -546.069 L 1132.67 -546.069 Z M 1168.653 -542.231 L 1132.647 -542.231 L 1132.647 -546.069 L 1168.653 -546.069 Z M 1204.636 -542.231 L 1168.631 -542.231 L 1168.631 -546.069 L 1204.636 -546.069 Z M 1305.194 -597.427 L 1287.235 -554.507 L 1282.928 -554.507 L 1300.799 -597.427 Z M 1377.209 -597.427 L 1359.25 -554.507 L 1354.944 -554.507 L 1372.815 -597.427 Z M 1404.726 -544.077 L 1400.214 -544.077 L 1400.214 -596.636 L 1404.726 -596.636 Z M 1476.741 -544.077 L 1472.23 -544.077 L 1472.23 -596.636 L 1476.741 -596.636 Z M 1548.757 -544.077 L 1544.245 -544.077 L 1544.245 -596.636 L 1548.757 -596.636 Z M 1620.723 -544.077 L 1616.211 -544.077 L 1616.211 -596.636 L 1620.723 -596.636 Z M 1692.739 -544.077 L 1688.227 -544.077 L 1688.227 -596.636 L 1692.739 -596.636 Z M 1764.754 -544.077 L 1760.243 -544.077 L 1760.243 -596.636 L 1764.754 -596.636 Z M 1836.721 -544.077 L 1832.209 -544.077 L 1832.209 -596.636 L 1836.721 -596.636 Z M 1908.736 -544.077 L 1904.224 -544.077 L 1904.224 -596.636 L 1908.736 -596.636 Z" style="fill: rgb(255, 255, 255); white-space: pre;"/>
    <path d="M -503.219 -484.077 L -507.731 -484.077 L -507.731 -536.636 L -503.219 -536.636 Z M -433.538 -502.007 C -432.503 -502.007 -431.634 -501.655 -430.931 -500.952 C -430.227 -500.249 -429.876 -499.38 -429.876 -498.345 C -429.876 -497.29 -430.232 -496.387 -430.945 -495.635 C -431.658 -494.883 -432.522 -494.507 -433.538 -494.507 C -434.534 -494.507 -435.384 -494.883 -436.087 -495.635 C -436.79 -496.387 -437.141 -497.29 -437.141 -498.345 C -437.141 -499.399 -436.795 -500.273 -436.101 -500.967 C -435.408 -501.66 -434.554 -502.007 -433.538 -502.007 Z M -356.718 -529.429 L -360.028 -529.429 L -369.14 -538.247 L -362.548 -538.247 Z M -287.222 -484.077 L -291.733 -484.077 L -291.733 -536.636 L -287.222 -536.636 Z M -215.255 -484.077 L -219.767 -484.077 L -219.767 -536.636 L -215.255 -536.636 Z M -143.064 -529.604 L -144.148 -521.401 L -146.492 -521.401 L -147.546 -529.604 L -147.546 -536.636 L -143.064 -536.636 Z M -91.348 -482.231 L -127.354 -482.231 L -127.354 -486.069 L -91.348 -486.069 Z M -26.833 -494.507 L -31.169 -494.507 L -49.098 -537.427 L -44.733 -537.427 Z M 0.742 -484.077 L -3.77 -484.077 L -3.77 -536.636 L 0.742 -536.636 Z M 88.666 -482.231 L 52.66 -482.231 L 52.66 -486.069 L 88.666 -486.069 Z M 124.649 -482.231 L 88.643 -482.231 L 88.643 -486.069 L 124.649 -486.069 Z M 153.24 -537.427 L 135.281 -494.507 L 130.975 -494.507 L 148.846 -537.427 Z M 232.648 -482.231 L 196.642 -482.231 L 196.642 -486.069 L 232.648 -486.069 Z M 297.163 -494.507 L 292.828 -494.507 L 274.898 -537.427 L 279.263 -537.427 Z M 360.947 -529.604 L 359.863 -521.401 L 357.519 -521.401 L 356.464 -529.604 L 356.464 -536.636 L 360.947 -536.636 Z M 412.662 -482.231 L 376.656 -482.231 L 376.656 -486.069 L 412.662 -486.069 Z M 477.178 -494.507 L 472.842 -494.507 L 454.912 -537.427 L 459.277 -537.427 Z M 549.203 -537.427 L 531.244 -494.507 L 526.937 -494.507 L 544.808 -537.427 Z M 628.66 -482.231 L 592.654 -482.231 L 592.654 -486.069 L 628.66 -486.069 Z M 651.254 -529.429 L 647.944 -529.429 L 638.832 -538.247 L 645.424 -538.247 Z M 720.75 -484.077 L 716.238 -484.077 L 716.238 -536.636 L 720.75 -536.636 Z M 765.2 -537.427 L 747.241 -494.507 L 742.934 -494.507 L 760.806 -537.427 Z M 844.657 -482.231 L 808.651 -482.231 L 808.651 -486.069 L 844.657 -486.069 Z M 909.173 -494.507 L 904.837 -494.507 L 886.907 -537.427 L 891.272 -537.427 Z M 1008.763 -484.077 L 1004.252 -484.077 L 1004.252 -536.636 L 1008.763 -536.636 Z M 1096.638 -482.231 L 1060.632 -482.231 L 1060.632 -486.069 L 1096.638 -486.069 Z M 1132.67 -482.231 L 1096.664 -482.231 L 1096.664 -486.069 L 1132.67 -486.069 Z M 1168.653 -482.231 L 1132.647 -482.231 L 1132.647 -486.069 L 1168.653 -486.069 Z M 1233.169 -494.507 L 1228.833 -494.507 L 1210.903 -537.427 L 1215.269 -537.427 Z M 1269.211 -537.427 L 1251.252 -494.507 L 1246.945 -494.507 L 1264.816 -537.427 Z M 1341.226 -537.427 L 1323.267 -494.507 L 1318.961 -494.507 L 1336.832 -537.427 Z M 1384.651 -482.231 L 1348.645 -482.231 L 1348.645 -486.069 L 1384.651 -486.069 Z M 1404.726 -484.077 L 1400.214 -484.077 L 1400.214 -536.636 L 1404.726 -536.636 Z M 1476.741 -484.077 L 1472.23 -484.077 L 1472.23 -536.636 L 1476.741 -536.636 Z M 1548.757 -484.077 L 1544.245 -484.077 L 1544.245 -536.636 L 1548.757 -536.636 Z M 1620.723 -484.077 L 1616.211 -484.077 L 1616.211 -536.636 L 1620.723 -536.636 Z M 1692.739 -484.077 L 1688.227 -484.077 L 1688.227 -536.636 L 1692.739 -536.636 Z M 1764.754 -484.077 L 1760.243 -484.077 L 1760.243 -536.636 L 1764.754 -536.636 Z M 1836.721 -484.077 L 1832.209 -484.077 L 1832.209 -536.636 L 1836.721 -536.636 Z M 1908.736 -484.077 L 1904.224 -484.077 L 1904.224 -536.636 L 1908.736 -536.636 Z" style="fill: rgb(255, 255, 255); white-space: pre;"/>
    <path d="M -503.219 -424.077 L -507.731 -424.077 L -507.731 -476.636 L -503.219 -476.636 Z M -431.253 -424.077 L -435.764 -424.077 L -435.764 -476.636 L -431.253 -476.636 Z M -386.812 -434.507 L -391.148 -434.507 L -409.078 -477.427 L -404.712 -477.427 Z M -287.222 -424.077 L -291.733 -424.077 L -291.733 -476.636 L -287.222 -476.636 Z M -215.255 -424.077 L -219.767 -424.077 L -219.767 -476.636 L -215.255 -476.636 Z M -143.24 -424.077 L -147.751 -424.077 L -147.751 -476.636 L -143.24 -476.636 Z M -71.224 -424.077 L -75.736 -424.077 L -75.736 -476.636 L -71.224 -476.636 Z M 0.742 -424.077 L -3.77 -424.077 L -3.77 -476.636 L 0.742 -476.636 Z M 72.758 -424.077 L 68.246 -424.077 L 68.246 -476.636 L 72.758 -476.636 Z M 108.741 -424.077 L 104.229 -424.077 L 104.229 -476.636 L 108.741 -476.636 Z M 232.648 -422.231 L 196.642 -422.231 L 196.642 -426.069 L 232.648 -426.069 Z M 268.68 -422.231 L 232.674 -422.231 L 232.674 -426.069 L 268.68 -426.069 Z M 297.222 -477.427 L 279.263 -434.507 L 274.956 -434.507 L 292.828 -477.427 Z M 360.771 -424.077 L 356.259 -424.077 L 356.259 -476.636 L 360.771 -476.636 Z M 432.737 -424.077 L 428.225 -424.077 L 428.225 -476.636 L 432.737 -476.636 Z M 504.753 -424.077 L 500.241 -424.077 L 500.241 -476.636 L 504.753 -476.636 Z M 584.737 -429.175 L 582.95 -426.655 C 578.594 -429.956 575.274 -433.794 572.989 -438.169 C 570.704 -442.544 569.561 -447.163 569.561 -452.026 C 569.561 -456.929 570.694 -461.553 572.96 -465.898 C 575.225 -470.244 578.555 -474.067 582.95 -477.368 L 584.737 -474.848 C 581.163 -471.645 578.59 -468.291 577.017 -464.785 C 575.445 -461.279 574.659 -457.046 574.659 -452.085 C 574.659 -446.948 575.474 -442.627 577.105 -439.121 C 578.736 -435.615 581.28 -432.3 584.737 -429.175 Z M 628.66 -422.231 L 592.654 -422.231 L 592.654 -426.069 L 628.66 -426.069 Z M 648.735 -424.077 L 644.223 -424.077 L 644.223 -476.636 L 648.735 -476.636 Z M 720.75 -424.077 L 716.238 -424.077 L 716.238 -476.636 L 720.75 -476.636 Z M 800.734 -429.175 L 798.947 -426.655 C 794.592 -429.956 791.272 -433.794 788.986 -438.169 C 786.701 -442.544 785.559 -447.163 785.559 -452.026 C 785.559 -456.929 786.692 -461.553 788.957 -465.898 C 791.223 -470.244 794.553 -474.067 798.947 -477.368 L 800.734 -474.848 C 797.16 -471.645 794.587 -468.291 793.015 -464.785 C 791.443 -461.279 790.656 -457.046 790.656 -452.085 C 790.656 -446.948 791.472 -442.627 793.103 -439.121 C 794.734 -435.615 797.277 -432.3 800.734 -429.175 Z M 844.657 -422.231 L 808.651 -422.231 L 808.651 -426.069 L 844.657 -426.069 Z M 854.361 -477.368 C 858.736 -474.067 862.056 -470.244 864.322 -465.898 C 866.588 -461.553 867.72 -456.929 867.72 -452.026 C 867.72 -447.163 866.583 -442.544 864.307 -438.169 C 862.032 -433.794 858.716 -429.956 854.361 -426.655 L 852.545 -429.175 C 856.119 -432.339 858.692 -435.703 860.264 -439.267 C 861.837 -442.832 862.623 -447.104 862.623 -452.085 C 862.623 -457.222 861.812 -461.518 860.191 -464.975 C 858.57 -468.432 856.021 -471.723 852.545 -474.848 Z M 936.748 -424.077 L 932.236 -424.077 L 932.236 -476.636 L 936.748 -476.636 Z M 1008.763 -424.077 L 1004.252 -424.077 L 1004.252 -476.636 L 1008.763 -476.636 Z M 1089.138 -434.507 L 1084.802 -434.507 L 1066.872 -477.427 L 1071.237 -477.427 Z M 1132.67 -422.231 L 1096.664 -422.231 L 1096.664 -426.069 L 1132.67 -426.069 Z M 1161.212 -477.427 L 1143.253 -434.507 L 1138.946 -434.507 L 1156.817 -477.427 Z M 1224.761 -424.077 L 1220.249 -424.077 L 1220.249 -476.636 L 1224.761 -476.636 Z M 1269.152 -434.507 L 1264.816 -434.507 L 1246.886 -477.427 L 1251.252 -477.427 Z M 1312.635 -422.231 L 1276.629 -422.231 L 1276.629 -426.069 L 1312.635 -426.069 Z M 1348.668 -422.231 L 1312.662 -422.231 L 1312.662 -426.069 L 1348.668 -426.069 Z M 1384.651 -422.231 L 1348.645 -422.231 L 1348.645 -426.069 L 1384.651 -426.069 Z M 1476.741 -424.077 L 1472.23 -424.077 L 1472.23 -476.636 L 1476.741 -476.636 Z M 1548.757 -424.077 L 1544.245 -424.077 L 1544.245 -476.636 L 1548.757 -476.636 Z M 1593.207 -477.427 L 1575.248 -434.507 L 1570.941 -434.507 L 1588.812 -477.427 Z M 1665.222 -477.427 L 1647.263 -434.507 L 1642.957 -434.507 L 1660.828 -477.427 Z M 1692.739 -424.077 L 1688.227 -424.077 L 1688.227 -476.636 L 1692.739 -476.636 Z M 1764.754 -424.077 L 1760.243 -424.077 L 1760.243 -476.636 L 1764.754 -476.636 Z M 1809.204 -477.427 L 1791.245 -434.507 L 1786.939 -434.507 L 1804.81 -477.427 Z M 1881.22 -477.427 L 1863.261 -434.507 L 1858.954 -434.507 L 1876.825 -477.427 Z" style="fill: rgb(255, 255, 255); white-space: pre;"/>
    <path d="M -494.811 -374.507 L -499.147 -374.507 L -517.076 -417.427 L -512.711 -417.427 Z M -451.328 -362.231 L -487.334 -362.231 L -487.334 -366.069 L -451.328 -366.069 Z M -431.253 -364.077 L -435.764 -364.077 L -435.764 -416.636 L -431.253 -416.636 Z M -350.829 -374.507 L -355.165 -374.507 L -373.095 -417.427 L -368.729 -417.427 Z M -307.346 -362.231 L -343.352 -362.231 L -343.352 -366.069 L -307.346 -366.069 Z M -278.755 -417.427 L -296.714 -374.507 L -301.02 -374.507 L -283.149 -417.427 Z M -235.33 -362.231 L -271.336 -362.231 L -271.336 -366.069 L -235.33 -366.069 Z M -215.255 -364.077 L -219.767 -364.077 L -219.767 -416.636 L -215.255 -416.636 Z M -163.315 -362.231 L -199.32 -362.231 L -199.32 -366.069 L -163.315 -366.069 Z M -143.24 -364.077 L -147.751 -364.077 L -147.751 -416.636 L -143.24 -416.636 Z M -71.224 -364.077 L -75.736 -364.077 L -75.736 -416.636 L -71.224 -416.636 Z M -19.333 -362.231 L -55.339 -362.231 L -55.339 -366.069 L -19.333 -366.069 Z M 0.742 -364.077 L -3.77 -364.077 L -3.77 -416.636 L 0.742 -416.636 Z M 45.183 -374.507 L 40.847 -374.507 L 22.917 -417.427 L 27.282 -417.427 Z M 88.666 -362.231 L 52.66 -362.231 L 52.66 -366.069 L 88.666 -366.069 Z M 124.649 -362.231 L 88.643 -362.231 L 88.643 -366.069 L 124.649 -366.069 Z M 153.182 -374.507 L 148.846 -374.507 L 130.916 -417.427 L 135.281 -417.427 Z M 196.665 -362.231 L 160.659 -362.231 L 160.659 -366.069 L 196.665 -366.069 Z M 232.648 -362.231 L 196.642 -362.231 L 196.642 -366.069 L 232.648 -366.069 Z M 268.68 -362.231 L 232.674 -362.231 L 232.674 -366.069 L 268.68 -366.069 Z M 288.755 -364.077 L 284.244 -364.077 L 284.244 -416.636 L 288.755 -416.636 Z M 340.647 -362.231 L 304.641 -362.231 L 304.641 -366.069 L 340.647 -366.069 Z M 360.771 -364.077 L 356.259 -364.077 L 356.259 -416.636 L 360.771 -416.636 Z M 432.737 -364.077 L 428.225 -364.077 L 428.225 -416.636 L 432.737 -416.636 Z M 484.678 -362.231 L 448.672 -362.231 L 448.672 -366.069 L 484.678 -366.069 Z M 504.753 -364.077 L 500.241 -364.077 L 500.241 -416.636 L 504.753 -416.636 Z M 549.144 -374.507 L 544.808 -374.507 L 526.878 -417.427 L 531.244 -417.427 Z M 592.677 -362.231 L 556.671 -362.231 L 556.671 -366.069 L 592.677 -366.069 Z M 628.66 -362.231 L 592.654 -362.231 L 592.654 -366.069 L 628.66 -366.069 Z M 646.684 -374.507 C 645.668 -374.624 644.828 -375.044 644.164 -375.766 C 643.5 -376.489 643.168 -377.309 643.168 -378.227 C 643.168 -379.223 643.49 -380.063 644.135 -380.747 C 644.779 -381.43 645.59 -381.772 646.567 -381.772 C 647.66 -381.772 648.608 -381.328 649.408 -380.439 C 650.209 -379.551 650.61 -378.481 650.61 -377.231 C 650.61 -373.403 648.481 -370.415 644.223 -368.266 L 643.11 -370.376 C 645.492 -371.548 646.684 -372.925 646.684 -374.507 Z M 700.675 -362.231 L 664.669 -362.231 L 664.669 -366.069 L 700.675 -366.069 Z M 720.75 -364.077 L 716.238 -364.077 L 716.238 -416.636 L 720.75 -416.636 Z M 765.141 -374.507 L 760.806 -374.507 L 742.876 -417.427 L 747.241 -417.427 Z M 808.674 -362.231 L 772.668 -362.231 L 772.668 -366.069 L 808.674 -366.069 Z M 844.657 -362.231 L 808.651 -362.231 L 808.651 -366.069 L 844.657 -366.069 Z M 880.64 -362.231 L 844.634 -362.231 L 844.634 -366.069 L 880.64 -366.069 Z M 909.231 -417.427 L 891.272 -374.507 L 886.966 -374.507 L 904.837 -417.427 Z M 1017.172 -374.507 L 1012.836 -374.507 L 994.906 -417.427 L 999.271 -417.427 Z M 1060.655 -362.231 L 1024.649 -362.231 L 1024.649 -366.069 L 1060.655 -366.069 Z M 1096.638 -362.231 L 1060.632 -362.231 L 1060.632 -366.069 L 1096.638 -366.069 Z M 1132.67 -362.231 L 1096.664 -362.231 L 1096.664 -366.069 L 1132.67 -366.069 Z M 1168.653 -362.231 L 1132.647 -362.231 L 1132.647 -366.069 L 1168.653 -366.069 Z M 1204.636 -362.231 L 1168.631 -362.231 L 1168.631 -366.069 L 1204.636 -366.069 Z M 1233.228 -417.427 L 1215.269 -374.507 L 1210.962 -374.507 L 1228.833 -417.427 Z M 1404.726 -364.077 L 1400.214 -364.077 L 1400.214 -416.636 L 1404.726 -416.636 Z M 1456.666 -362.231 L 1420.661 -362.231 L 1420.661 -366.069 L 1456.666 -366.069 Z M 1485.208 -417.427 L 1467.249 -374.507 L 1462.943 -374.507 L 1480.814 -417.427 Z M 1528.633 -362.231 L 1492.627 -362.231 L 1492.627 -366.069 L 1528.633 -366.069 Z M 1564.665 -362.231 L 1528.659 -362.231 L 1528.659 -366.069 L 1564.665 -366.069 Z M 1600.648 -362.231 L 1564.642 -362.231 L 1564.642 -366.069 L 1600.648 -366.069 Z M 1629.19 -417.427 L 1611.231 -374.507 L 1606.924 -374.507 L 1624.795 -417.427 Z M 1692.739 -364.077 L 1688.227 -364.077 L 1688.227 -416.636 L 1692.739 -416.636 Z M 1744.63 -362.231 L 1708.624 -362.231 L 1708.624 -366.069 L 1744.63 -366.069 Z M 1780.662 -362.231 L 1744.657 -362.231 L 1744.657 -366.069 L 1780.662 -366.069 Z M 1816.646 -362.231 L 1780.64 -362.231 L 1780.64 -366.069 L 1816.646 -366.069 Z M 1845.187 -417.427 L 1827.228 -374.507 L 1822.922 -374.507 L 1840.793 -417.427 Z" style="fill: rgb(255, 255, 255); white-space: pre;"/>
  </g>
</svg>