<?xml version="1.0" encoding="utf-8"?>
<svg viewBox="0 0 800 200" xmlns="http://www.w3.org/2000/svg">
  <g transform="matrix(1.023054, 0, 0, 1.023054, 40.101868, -211.650879)">
    <path d="M 222.462 263.659 L 212.501 263.659 L 212.501 262.597 L 222.462 262.597 Z M 232.425 263.659 L 222.464 263.659 L 222.464 262.597 L 232.425 262.597 Z M 242.388 263.659 L 232.427 263.659 L 232.427 262.597 L 242.388 262.597 Z M 451.555 263.659 L 441.593 263.659 L 441.593 262.597 L 451.555 262.597 Z" style="fill: rgb(255, 255, 255); white-space: pre;"/>
    <path d="M 210.441 264.988 L 205.472 276.863 L 204.28 276.863 L 209.225 264.988 Z M 232.425 280.259 L 222.464 280.259 L 222.464 279.197 L 232.425 279.197 Z M 250.267 276.863 L 249.067 276.863 L 244.107 264.988 L 245.314 264.988 Z M 437.2 279.748 L 435.952 279.748 L 435.952 265.207 L 437.2 265.207 Z M 457.117 279.748 L 455.868 279.748 L 455.868 265.207 L 457.117 265.207 Z" style="fill: rgb(255, 255, 255); white-space: pre;"/>
    <path d="M 200.487 281.588 L 195.518 293.463 L 194.327 293.463 L 199.271 281.588 Z M 220.403 281.588 L 215.435 293.463 L 214.243 293.463 L 219.188 281.588 Z M 232.425 296.859 L 222.464 296.859 L 222.464 295.797 L 232.425 295.797 Z M 240.313 293.463 L 239.114 293.463 L 234.153 281.588 L 235.361 281.588 Z M 260.23 293.463 L 259.03 293.463 L 254.07 281.588 L 255.277 281.588 Z M 272.268 296.859 L 262.306 296.859 L 262.306 295.797 L 272.268 295.797 Z M 292.184 296.859 L 282.223 296.859 L 282.223 295.797 L 292.184 295.797 Z M 302.147 296.859 L 292.186 296.859 L 292.186 295.797 L 302.147 295.797 Z M 322.073 296.859 L 312.112 296.859 L 312.112 295.797 L 322.073 295.797 Z M 332.027 296.859 L 322.065 296.859 L 322.065 295.797 L 332.027 295.797 Z M 341.99 296.859 L 332.028 296.859 L 332.028 295.797 L 341.99 295.797 Z M 361.916 296.859 L 351.954 296.859 L 351.954 295.797 L 361.916 295.797 Z M 371.87 296.859 L 361.908 296.859 L 361.908 295.797 L 371.87 295.797 Z M 391.796 296.859 L 381.834 296.859 L 381.834 295.797 L 391.796 295.797 Z M 421.675 296.859 L 411.714 296.859 L 411.714 295.797 L 421.675 295.797 Z M 431.638 296.859 L 421.677 296.859 L 421.677 295.797 L 431.638 295.797 Z M 437.2 296.348 L 435.952 296.348 L 435.952 281.807 L 437.2 281.807 Z M 457.117 296.348 L 455.868 296.348 L 455.868 281.807 L 457.117 281.807 Z M 481.444 296.859 L 471.482 296.859 L 471.482 295.797 L 481.444 295.797 Z M 491.397 296.859 L 481.436 296.859 L 481.436 295.797 L 491.397 295.797 Z M 501.36 296.859 L 491.399 296.859 L 491.399 295.797 L 501.36 295.797 Z" style="fill: rgb(255, 255, 255); white-space: pre;"/>
    <path d="M 198.144 312.948 L 196.896 312.948 L 196.896 298.407 L 198.144 298.407 Z M 232.425 313.459 L 222.464 313.459 L 222.464 312.397 L 232.425 312.397 Z M 257.904 312.948 L 256.655 312.948 L 256.655 298.407 L 257.904 298.407 Z M 277.878 300.352 L 277.578 302.622 L 276.93 302.622 L 276.638 300.352 L 276.638 298.407 L 277.878 298.407 Z M 292.184 313.459 L 282.223 313.459 L 282.223 312.397 L 292.184 312.397 Z M 302.147 313.459 L 292.186 313.459 L 292.186 312.397 L 302.147 312.397 Z M 310.052 298.188 L 305.083 310.063 L 303.891 310.063 L 308.836 298.188 Z M 332.027 313.459 L 322.065 313.459 L 322.065 312.397 L 332.027 312.397 Z M 341.99 313.459 L 332.028 313.459 L 332.028 312.397 L 341.99 312.397 Z M 349.894 298.188 L 344.926 310.063 L 343.734 310.063 L 348.678 298.188 Z M 371.87 313.459 L 361.908 313.459 L 361.908 312.397 L 371.87 312.397 Z M 378.128 300.401 L 377.213 300.401 L 374.692 297.961 L 376.515 297.961 Z M 397.357 312.948 L 396.109 312.948 L 396.109 298.407 L 397.357 298.407 Z M 409.653 298.188 L 404.685 310.063 L 403.493 310.063 L 408.438 298.188 Z M 431.638 313.459 L 421.677 313.459 L 421.677 312.397 L 431.638 312.397 Z M 437.897 300.401 L 436.981 300.401 L 434.46 297.961 L 436.284 297.961 Z M 457.117 312.948 L 455.868 312.948 L 455.868 298.407 L 457.117 298.407 Z M 469.422 298.188 L 464.453 310.063 L 463.262 310.063 L 468.206 298.188 Z M 491.397 313.459 L 481.436 313.459 L 481.436 312.397 L 491.397 312.397 Z M 509.248 310.063 L 508.049 310.063 L 503.088 298.188 L 504.296 298.188 Z" style="fill: rgb(255, 255, 255); white-space: pre;"/>
    <path d="M 198.144 329.548 L 196.896 329.548 L 196.896 315.007 L 198.144 315.007 Z M 218.061 329.548 L 216.813 329.548 L 216.813 315.007 L 218.061 315.007 Z M 237.987 329.548 L 236.739 329.548 L 236.739 315.007 L 237.987 315.007 Z M 257.904 329.548 L 256.655 329.548 L 256.655 315.007 L 257.904 315.007 Z M 277.83 329.548 L 276.581 329.548 L 276.581 315.007 L 277.83 315.007 Z M 297.746 329.548 L 296.498 329.548 L 296.498 315.007 L 297.746 315.007 Z M 319.877 328.138 L 319.382 328.835 C 318.177 327.922 317.259 326.86 316.627 325.65 C 315.994 324.439 315.678 323.161 315.678 321.816 C 315.678 320.459 315.992 319.18 316.618 317.978 C 317.245 316.776 318.167 315.718 319.382 314.805 L 319.877 315.502 C 318.888 316.388 318.176 317.316 317.741 318.286 C 317.306 319.256 317.089 320.427 317.089 321.8 C 317.089 323.221 317.314 324.416 317.765 325.386 C 318.217 326.356 318.92 327.273 319.877 328.138 Z M 332.027 330.059 L 322.065 330.059 L 322.065 328.997 L 332.027 328.997 Z M 337.589 329.548 L 336.341 329.548 L 336.341 315.007 L 337.589 315.007 Z M 359.719 328.138 L 359.225 328.835 C 358.02 327.922 357.101 326.86 356.469 325.65 C 355.837 324.439 355.521 323.161 355.521 321.816 C 355.521 320.459 355.834 319.18 356.461 317.978 C 357.088 316.776 358.009 315.718 359.225 314.805 L 359.719 315.502 C 358.731 316.388 358.019 317.316 357.584 318.286 C 357.149 319.256 356.931 320.427 356.931 321.8 C 356.931 323.221 357.157 324.416 357.608 325.386 C 358.059 326.356 358.763 327.273 359.719 328.138 Z M 371.87 330.059 L 361.908 330.059 L 361.908 328.997 L 371.87 328.997 Z M 377.431 329.548 L 376.183 329.548 L 376.183 315.007 L 377.431 315.007 Z M 397.357 329.548 L 396.109 329.548 L 396.109 315.007 L 397.357 315.007 Z M 419.479 328.138 L 418.984 328.835 C 417.779 327.922 416.861 326.86 416.228 325.65 C 415.596 324.439 415.28 323.161 415.28 321.816 C 415.28 320.459 415.593 319.18 416.22 317.978 C 416.847 316.776 417.768 315.718 418.984 314.805 L 419.479 315.502 C 418.49 316.388 417.778 317.316 417.343 318.286 C 416.908 319.256 416.69 320.427 416.69 321.8 C 416.69 323.221 416.916 324.416 417.367 325.386 C 417.818 326.356 418.522 327.273 419.479 328.138 Z M 431.638 330.059 L 421.677 330.059 L 421.677 328.997 L 431.638 328.997 Z M 437.2 329.548 L 435.952 329.548 L 435.952 315.007 L 437.2 315.007 Z M 457.117 329.548 L 455.868 329.548 L 455.868 315.007 L 457.117 315.007 Z M 491.397 330.059 L 481.436 330.059 L 481.436 328.997 L 491.397 328.997 Z M 501.36 330.059 L 491.399 330.059 L 491.399 328.997 L 501.36 328.997 Z M 509.265 314.788 L 504.296 326.663 L 503.104 326.663 L 508.049 314.788 Z" style="fill: rgb(255, 255, 255); white-space: pre;"/>
    <path d="M 200.471 343.263 L 199.271 343.263 L 194.311 331.388 L 195.518 331.388 Z M 212.499 346.659 L 202.538 346.659 L 202.538 345.597 L 212.499 345.597 Z M 218.061 346.148 L 216.813 346.148 L 216.813 331.607 L 218.061 331.607 Z M 237.987 346.148 L 236.739 346.148 L 236.739 331.607 L 237.987 331.607 Z M 252.342 346.659 L 242.38 346.659 L 242.38 345.597 L 252.342 345.597 Z M 260.246 331.388 L 255.278 343.263 L 254.086 343.263 L 259.03 331.388 Z M 272.268 346.659 L 262.306 346.659 L 262.306 345.597 L 272.268 345.597 Z M 277.83 346.148 L 276.581 346.148 L 276.581 331.607 L 277.83 331.607 Z M 310.035 343.263 L 308.836 343.263 L 303.875 331.388 L 305.083 331.388 Z M 322.073 346.659 L 312.112 346.659 L 312.112 345.597 L 322.073 345.597 Z M 332.027 346.659 L 322.066 346.659 L 322.066 345.597 L 332.027 345.597 Z M 341.99 346.659 L 332.029 346.659 L 332.029 345.597 L 341.99 345.597 Z M 349.878 343.263 L 348.678 343.263 L 343.718 331.388 L 344.926 331.388 Z M 361.916 346.659 L 351.954 346.659 L 351.954 345.597 L 361.916 345.597 Z M 371.87 346.659 L 361.908 346.659 L 361.908 345.597 L 371.87 345.597 Z M 376.864 343.263 C 376.583 343.23 376.351 343.114 376.167 342.914 C 375.983 342.714 375.891 342.487 375.891 342.233 C 375.891 341.958 375.981 341.725 376.159 341.536 C 376.337 341.347 376.561 341.253 376.832 341.253 C 377.134 341.253 377.396 341.376 377.618 341.621 C 377.839 341.867 377.95 342.163 377.95 342.509 C 377.95 343.568 377.361 344.395 376.183 344.989 L 375.875 344.406 C 376.534 344.081 376.864 343.701 376.864 343.263 Z M 391.796 346.659 L 381.834 346.659 L 381.834 345.597 L 391.796 345.597 Z M 397.357 346.148 L 396.109 346.148 L 396.109 331.607 L 397.357 331.607 Z M 409.637 343.263 L 408.438 343.263 L 403.477 331.388 L 404.685 331.388 Z M 421.675 346.659 L 411.714 346.659 L 411.714 345.597 L 421.675 345.597 Z M 431.638 346.659 L 421.677 346.659 L 421.677 345.597 L 431.638 345.597 Z M 436.633 343.263 C 436.352 343.23 436.119 343.114 435.936 342.914 C 435.752 342.714 435.66 342.487 435.66 342.233 C 435.66 341.958 435.749 341.725 435.927 341.536 C 436.106 341.347 436.33 341.253 436.6 341.253 C 436.903 341.253 437.165 341.376 437.386 341.621 C 437.608 341.867 437.719 342.163 437.719 342.509 C 437.719 343.568 437.13 344.395 435.952 344.989 L 435.644 344.406 C 436.303 344.081 436.633 343.701 436.633 343.263 Z M 451.555 346.659 L 441.593 346.659 L 441.593 345.597 L 451.555 345.597 Z M 457.117 346.148 L 455.868 346.148 L 455.868 331.607 L 457.117 331.607 Z M 469.406 343.263 L 468.206 343.263 L 463.246 331.388 L 464.453 331.388 Z M 481.444 346.659 L 471.482 346.659 L 471.482 345.597 L 481.444 345.597 Z M 491.398 346.659 L 481.436 346.659 L 481.436 345.597 L 491.398 345.597 Z M 501.36 346.659 L 491.399 346.659 L 491.399 345.597 L 501.36 345.597 Z M 506.922 346.148 L 505.674 346.148 L 505.674 331.607 L 506.922 331.607 Z" style="fill: rgb(255, 255, 255); white-space: pre;"/>
  </g>
</svg>