<?xml version="1.0" encoding="utf-8"?>
<svg viewBox="0 0 800 200" xmlns="http://www.w3.org/2000/svg">
  <g transform="matrix(1.023054, 0, 0, 1.023054, 27.2334, -240.094864)">
    <path d="M 140.416 291.462 L 130.455 291.462 L 130.455 290.4 L 140.416 290.4 Z M 150.379 291.462 L 140.418 291.462 L 140.418 290.4 L 150.379 290.4 Z M 160.342 291.462 L 150.381 291.462 L 150.381 290.4 L 160.342 290.4 Z M 190.222 291.462 L 180.26 291.462 L 180.26 290.4 L 190.222 290.4 Z M 329.666 291.462 L 319.705 291.462 L 319.705 290.4 L 329.666 290.4 Z M 369.509 291.462 L 359.547 291.462 L 359.547 290.4 L 369.509 290.4 Z M 379.472 291.462 L 369.51 291.462 L 369.51 290.4 L 379.472 290.4 Z M 389.435 291.462 L 379.473 291.462 L 379.473 290.4 L 389.435 290.4 Z M 399.398 291.462 L 389.436 291.462 L 389.436 290.4 L 399.398 290.4 Z M 409.351 291.462 L 399.39 291.462 L 399.39 290.4 L 409.351 290.4 Z M 449.203 291.462 L 439.242 291.462 L 439.242 290.4 L 449.203 290.4 Z M 459.157 291.462 L 449.195 291.462 L 449.195 290.4 L 459.157 290.4 Z M 469.12 291.462 L 459.158 291.462 L 459.158 290.4 L 469.12 290.4 Z M 479.083 291.462 L 469.121 291.462 L 469.121 290.4 L 479.083 290.4 Z M 499 291.462 L 489.038 291.462 L 489.038 290.4 L 499 290.4 Z M 508.963 291.462 L 499.001 291.462 L 499.001 290.4 L 508.963 290.4 Z M 518.926 291.462 L 508.964 291.462 L 508.964 290.4 L 518.926 290.4 Z M 528.889 291.462 L 518.927 291.462 L 518.927 290.4 L 528.889 290.4 Z M 538.842 291.462 L 528.881 291.462 L 528.881 290.4 L 538.842 290.4 Z M 568.731 291.462 L 558.769 291.462 L 558.769 290.4 L 568.731 290.4 Z M 578.685 291.462 L 568.723 291.462 L 568.723 290.4 L 578.685 290.4 Z M 588.648 291.462 L 578.686 291.462 L 578.686 290.4 L 588.648 290.4 Z M 598.611 291.462 L 588.649 291.462 L 588.649 290.4 L 598.611 290.4 Z M 608.574 291.462 L 598.612 291.462 L 598.612 290.4 L 608.574 290.4 Z" style="fill: rgb(255, 255, 255); white-space: pre;"/>
    <path d="M 128.395 292.791 L 123.426 304.666 L 122.234 304.666 L 127.179 292.791 Z M 150.379 308.062 L 140.418 308.062 L 140.418 307 L 150.379 307 Z M 168.221 304.666 L 167.021 304.666 L 162.061 292.791 L 163.268 292.791 Z M 175.858 307.551 L 174.609 307.551 L 174.609 293.01 L 175.858 293.01 Z M 195.784 307.551 L 194.535 307.551 L 194.535 293.01 L 195.784 293.01 Z M 317.516 306.141 L 317.022 306.838 C 315.817 305.925 314.898 304.863 314.266 303.653 C 313.633 302.442 313.317 301.164 313.317 299.819 C 313.317 298.462 313.631 297.183 314.258 295.981 C 314.884 294.779 315.806 293.721 317.022 292.808 L 317.516 293.505 C 316.527 294.391 315.815 295.319 315.38 296.289 C 314.945 297.259 314.728 298.43 314.728 299.803 C 314.728 301.224 314.953 302.419 315.405 303.389 C 315.856 304.359 316.56 305.276 317.516 306.141 Z M 329.666 308.062 L 319.705 308.062 L 319.705 307 L 329.666 307 Z M 332.359 292.808 C 333.569 293.721 334.488 294.779 335.115 295.981 C 335.741 297.183 336.055 298.462 336.055 299.819 C 336.055 301.164 335.74 302.442 335.11 303.653 C 334.481 304.863 333.564 305.925 332.359 306.838 L 331.856 306.141 C 332.845 305.266 333.557 304.335 333.992 303.349 C 334.427 302.363 334.644 301.18 334.644 299.803 C 334.644 298.381 334.42 297.193 333.972 296.236 C 333.523 295.28 332.818 294.369 331.856 293.505 Z M 357.496 292.791 L 352.528 304.666 L 351.336 304.666 L 356.281 292.791 Z M 379.472 308.062 L 369.51 308.062 L 369.51 307 L 379.472 307 Z M 389.435 308.062 L 379.473 308.062 L 379.473 307 L 389.435 307 Z M 417.239 304.666 L 416.04 304.666 L 411.079 292.791 L 412.287 292.791 Z M 437.182 292.791 L 432.213 304.666 L 431.021 304.666 L 435.966 292.791 Z M 459.157 308.062 L 449.195 308.062 L 449.195 307 L 459.157 307 Z M 469.12 308.062 L 459.158 308.062 L 459.158 307 L 469.12 307 Z M 479.083 308.062 L 469.121 308.062 L 469.121 307 L 479.083 307 Z M 484.645 307.551 L 483.396 307.551 L 483.396 293.01 L 484.645 293.01 Z M 518.926 308.062 L 508.964 308.062 L 508.964 307 L 518.926 307 Z M 544.404 307.551 L 543.156 307.551 L 543.156 293.01 L 544.404 293.01 Z M 554.367 307.551 L 553.119 307.551 L 553.119 293.01 L 554.367 293.01 Z M 588.648 308.062 L 578.686 308.062 L 578.686 307 L 588.648 307 Z M 614.126 307.551 L 612.878 307.551 L 612.878 293.01 L 614.126 293.01 Z" style="fill: rgb(255, 255, 255); white-space: pre;"/>
    <path d="M 118.441 309.391 L 113.472 321.266 L 112.281 321.266 L 117.225 309.391 Z M 138.357 309.391 L 133.389 321.266 L 132.197 321.266 L 137.142 309.391 Z M 150.379 324.662 L 140.418 324.662 L 140.418 323.6 L 150.379 323.6 Z M 158.267 321.266 L 157.068 321.266 L 152.107 309.391 L 153.315 309.391 Z M 178.184 321.266 L 176.984 321.266 L 172.024 309.391 L 173.231 309.391 Z M 195.784 324.151 L 194.535 324.151 L 194.535 309.61 L 195.784 309.61 Z M 210.138 324.662 L 200.177 324.662 L 200.177 323.6 L 210.138 323.6 Z M 230.064 324.662 L 220.103 324.662 L 220.103 323.6 L 230.064 323.6 Z M 240.027 324.662 L 230.066 324.662 L 230.066 323.6 L 240.027 323.6 Z M 259.944 324.662 L 249.982 324.662 L 249.982 323.6 L 259.944 323.6 Z M 279.87 324.662 L 269.908 324.662 L 269.908 323.6 L 279.87 323.6 Z M 299.787 324.662 L 289.825 324.662 L 289.825 323.6 L 299.787 323.6 Z M 309.75 324.662 L 299.788 324.662 L 299.788 323.6 L 309.75 323.6 Z M 329.666 324.662 L 319.705 324.662 L 319.705 323.6 L 329.666 323.6 Z M 355.851 311.604 L 354.935 311.604 L 352.414 309.164 L 354.238 309.164 Z M 365.156 311.555 L 364.856 313.825 L 364.208 313.825 L 363.916 311.555 L 363.916 309.61 L 365.156 309.61 Z M 387.376 309.391 L 382.407 321.266 L 381.216 321.266 L 386.16 309.391 Z M 407.293 309.391 L 402.324 321.266 L 401.133 321.266 L 406.077 309.391 Z M 414.962 311.555 L 414.662 313.825 L 414.013 313.825 L 413.722 311.555 L 413.722 309.61 L 414.962 309.61 Z M 427.219 309.391 L 422.25 321.266 L 421.058 321.266 L 426.003 309.391 Z M 447.145 309.391 L 442.176 321.266 L 440.984 321.266 L 445.929 309.391 Z M 459.157 324.662 L 449.195 324.662 L 449.195 323.6 L 459.157 323.6 Z M 469.12 324.662 L 459.158 324.662 L 459.158 323.6 L 469.12 323.6 Z M 479.083 324.662 L 469.121 324.662 L 469.121 323.6 L 479.083 323.6 Z M 484.645 324.151 L 483.396 324.151 L 483.396 309.61 L 484.645 309.61 Z M 504.561 324.151 L 503.313 324.151 L 503.313 309.61 L 504.561 309.61 Z M 516.867 309.391 L 511.898 321.266 L 510.707 321.266 L 515.651 309.391 Z M 524.536 311.555 L 524.236 313.825 L 523.588 313.825 L 523.296 311.555 L 523.296 309.61 L 524.536 309.61 Z M 544.404 324.151 L 543.156 324.151 L 543.156 309.61 L 544.404 309.61 Z M 554.367 324.151 L 553.119 324.151 L 553.119 309.61 L 554.367 309.61 Z M 574.283 324.151 L 573.035 324.151 L 573.035 309.61 L 574.283 309.61 Z M 586.589 309.391 L 581.62 321.266 L 580.429 321.266 L 585.373 309.391 Z M 594.258 311.555 L 593.958 313.825 L 593.31 313.825 L 593.018 311.555 L 593.018 309.61 L 594.258 309.61 Z M 614.126 324.151 L 612.878 324.151 L 612.878 309.61 L 614.126 309.61 Z" style="fill: rgb(255, 255, 255); white-space: pre;"/>
    <path d="M 116.098 340.751 L 114.85 340.751 L 114.85 326.21 L 116.098 326.21 Z M 150.379 341.262 L 140.418 341.262 L 140.418 340.2 L 150.379 340.2 Z M 175.858 340.751 L 174.609 340.751 L 174.609 326.21 L 175.858 326.21 Z M 200.185 341.262 L 190.223 341.262 L 190.223 340.2 L 200.185 340.2 Z M 210.139 341.262 L 200.177 341.262 L 200.177 340.2 L 210.139 340.2 Z M 218.043 325.991 L 213.074 337.866 L 211.883 337.866 L 216.827 325.991 Z M 240.027 341.262 L 230.066 341.262 L 230.066 340.2 L 240.027 340.2 Z M 246.277 328.204 L 245.361 328.204 L 242.84 325.764 L 244.664 325.764 Z M 265.506 340.751 L 264.258 340.751 L 264.258 326.21 L 265.506 326.21 Z M 285.471 328.155 L 285.171 330.425 L 284.523 330.425 L 284.231 328.155 L 284.231 326.21 L 285.471 326.21 Z M 299.787 341.262 L 289.825 341.262 L 289.825 340.2 L 299.787 340.2 Z M 309.75 341.262 L 299.788 341.262 L 299.788 340.2 L 309.75 340.2 Z M 315.311 340.751 L 314.063 340.751 L 314.063 326.21 L 315.311 326.21 Z M 335.228 340.751 L 333.98 340.751 L 333.98 326.21 L 335.228 326.21 Z M 377.413 325.991 L 372.444 337.866 L 371.253 337.866 L 376.197 325.991 Z M 397.339 325.991 L 392.37 337.866 L 391.179 337.866 L 396.123 325.991 Z M 424.876 340.751 L 423.628 340.751 L 423.628 326.21 L 424.876 326.21 Z M 449.203 341.262 L 439.242 341.262 L 439.242 340.2 L 449.203 340.2 Z M 459.157 341.262 L 449.195 341.262 L 449.195 340.2 L 459.157 340.2 Z M 469.12 341.262 L 459.158 341.262 L 459.158 340.2 L 469.12 340.2 Z M 486.971 337.866 L 485.771 337.866 L 480.811 325.991 L 482.019 325.991 Z M 516.867 325.991 L 511.898 337.866 L 510.707 337.866 L 515.651 325.991 Z M 524.487 340.751 L 523.239 340.751 L 523.239 326.21 L 524.487 326.21 Z M 544.404 340.751 L 543.156 340.751 L 543.156 326.21 L 544.404 326.21 Z M 554.367 340.751 L 553.119 340.751 L 553.119 326.21 L 554.367 326.21 Z M 586.589 325.991 L 581.62 337.866 L 580.429 337.866 L 585.373 325.991 Z M 594.21 340.751 L 592.961 340.751 L 592.961 326.21 L 594.21 326.21 Z M 614.126 340.751 L 612.878 340.751 L 612.878 326.21 L 614.126 326.21 Z" style="fill: rgb(255, 255, 255); white-space: pre;"/>
    <path d="M 116.098 357.351 L 114.85 357.351 L 114.85 342.81 L 116.098 342.81 Z M 136.015 357.351 L 134.767 357.351 L 134.767 342.81 L 136.015 342.81 Z M 155.941 357.351 L 154.693 357.351 L 154.693 342.81 L 155.941 342.81 Z M 175.858 357.351 L 174.609 357.351 L 174.609 342.81 L 175.858 342.81 Z M 195.784 357.351 L 194.535 357.351 L 194.535 342.81 L 195.784 342.81 Z M 205.737 357.351 L 204.489 357.351 L 204.489 342.81 L 205.737 342.81 Z M 227.868 355.941 L 227.373 356.638 C 226.168 355.725 225.25 354.663 224.618 353.453 C 223.985 352.242 223.669 350.964 223.669 349.619 C 223.669 348.262 223.983 346.983 224.61 345.781 C 225.236 344.579 226.158 343.521 227.373 342.608 L 227.868 343.305 C 226.879 344.191 226.167 345.119 225.732 346.089 C 225.297 347.059 225.08 348.23 225.08 349.603 C 225.08 351.024 225.305 352.219 225.756 353.189 C 226.208 354.159 226.911 355.076 227.868 355.941 Z M 240.027 357.862 L 230.066 357.862 L 230.066 356.8 L 240.027 356.8 Z M 245.58 357.351 L 244.332 357.351 L 244.332 342.81 L 245.58 342.81 Z M 265.506 357.351 L 264.258 357.351 L 264.258 342.81 L 265.506 342.81 Z M 285.422 357.351 L 284.174 357.351 L 284.174 342.81 L 285.422 342.81 Z M 315.311 357.351 L 314.063 357.351 L 314.063 342.81 L 315.311 342.81 Z M 335.228 357.351 L 333.98 357.351 L 333.98 342.81 L 335.228 342.81 Z M 354.522 352.391 C 354.808 352.391 355.049 352.488 355.243 352.683 C 355.438 352.877 355.535 353.118 355.535 353.404 C 355.535 353.696 355.436 353.946 355.239 354.154 C 355.042 354.362 354.803 354.466 354.522 354.466 C 354.246 354.466 354.011 354.362 353.817 354.154 C 353.622 353.946 353.525 353.696 353.525 353.404 C 353.525 353.112 353.621 352.87 353.812 352.679 C 354.004 352.487 354.241 352.391 354.522 352.391 Z M 367.45 342.591 L 362.481 354.466 L 361.29 354.466 L 366.234 342.591 Z M 387.376 342.591 L 382.407 354.466 L 381.216 354.466 L 386.16 342.591 Z M 399.398 357.862 L 389.436 357.862 L 389.436 356.8 L 399.398 356.8 Z M 409.352 357.862 L 399.39 357.862 L 399.39 356.8 L 409.352 356.8 Z M 419.314 357.862 L 409.353 357.862 L 409.353 356.8 L 419.314 356.8 Z M 424.876 357.351 L 423.628 357.351 L 423.628 342.81 L 424.876 342.81 Z M 447.128 354.466 L 445.929 354.466 L 440.968 342.591 L 442.176 342.591 Z M 459.157 357.862 L 449.195 357.862 L 449.195 356.8 L 459.157 356.8 Z M 467.061 342.591 L 462.093 354.466 L 460.901 354.466 L 465.845 342.591 Z M 486.971 354.466 L 485.771 354.466 L 480.811 342.591 L 482.019 342.591 Z M 504.561 357.351 L 503.313 357.351 L 503.313 342.81 L 504.561 342.81 Z M 518.926 357.862 L 508.964 357.862 L 508.964 356.8 L 518.926 356.8 Z M 526.83 342.591 L 521.861 354.466 L 520.67 354.466 L 525.614 342.591 Z M 546.746 342.591 L 541.778 354.466 L 540.586 354.466 L 545.531 342.591 Z M 556.693 354.466 L 555.494 354.466 L 550.533 342.591 L 551.741 342.591 Z M 574.284 357.351 L 573.035 357.351 L 573.035 342.81 L 574.284 342.81 Z M 588.648 357.862 L 578.686 357.862 L 578.686 356.8 L 588.648 356.8 Z M 596.552 342.591 L 591.583 354.466 L 590.392 354.466 L 595.336 342.591 Z M 616.469 342.591 L 611.5 354.466 L 610.309 354.466 L 615.253 342.591 Z" style="fill: rgb(255, 255, 255); white-space: pre;"/>
    <path d="M 118.425 371.066 L 117.225 371.066 L 112.264 359.191 L 113.472 359.191 Z M 130.453 374.462 L 120.492 374.462 L 120.492 373.4 L 130.453 373.4 Z M 136.015 373.951 L 134.767 373.951 L 134.767 359.41 L 136.015 359.41 Z M 155.941 373.951 L 154.693 373.951 L 154.693 359.41 L 155.941 359.41 Z M 170.296 374.462 L 160.334 374.462 L 160.334 373.4 L 170.296 373.4 Z M 178.2 359.191 L 173.231 371.066 L 172.04 371.066 L 176.984 359.191 Z M 188.147 371.066 L 186.947 371.066 L 181.987 359.191 L 183.194 359.191 Z M 200.185 374.462 L 190.223 374.462 L 190.223 373.4 L 200.185 373.4 Z M 210.138 374.462 L 200.177 374.462 L 200.177 373.4 L 210.138 373.4 Z M 218.026 371.066 L 216.827 371.066 L 211.866 359.191 L 213.074 359.191 Z M 230.064 374.462 L 220.103 374.462 L 220.103 373.4 L 230.064 373.4 Z M 240.027 374.462 L 230.066 374.462 L 230.066 373.4 L 240.027 373.4 Z M 245.012 371.066 C 244.731 371.033 244.499 370.917 244.315 370.717 C 244.132 370.517 244.04 370.29 244.04 370.036 C 244.04 369.761 244.129 369.529 244.307 369.339 C 244.486 369.15 244.71 369.056 244.98 369.056 C 245.283 369.056 245.545 369.179 245.766 369.425 C 245.988 369.67 246.098 369.966 246.098 370.312 C 246.098 371.371 245.509 372.198 244.332 372.792 L 244.023 372.209 C 244.683 371.885 245.012 371.504 245.012 371.066 Z M 259.944 374.462 L 249.982 374.462 L 249.982 373.4 L 259.944 373.4 Z M 265.506 373.951 L 264.257 373.951 L 264.257 359.41 L 265.506 359.41 Z M 279.87 374.462 L 269.908 374.462 L 269.908 373.4 L 279.87 373.4 Z M 285.422 373.951 L 284.174 373.951 L 284.174 359.41 L 285.422 359.41 Z M 315.311 373.951 L 314.063 373.951 L 314.063 359.41 L 315.311 359.41 Z M 329.666 374.462 L 319.705 374.462 L 319.705 373.4 L 329.666 373.4 Z M 335.228 373.951 L 333.98 373.951 L 333.98 359.41 L 335.228 359.41 Z M 357.48 371.066 L 356.28 371.066 L 351.32 359.191 L 352.528 359.191 Z M 369.509 374.462 L 359.547 374.462 L 359.547 373.4 L 369.509 373.4 Z M 379.472 374.462 L 369.51 374.462 L 369.51 373.4 L 379.472 373.4 Z M 389.435 374.462 L 379.473 374.462 L 379.473 373.4 L 389.435 373.4 Z M 399.398 374.462 L 389.436 374.462 L 389.436 373.4 L 399.398 373.4 Z M 409.351 374.462 L 399.39 374.462 L 399.39 373.4 L 409.351 373.4 Z M 417.256 359.191 L 412.287 371.066 L 411.095 371.066 L 416.04 359.191 Z M 427.202 371.066 L 426.003 371.066 L 421.042 359.191 L 422.25 359.191 Z M 439.24 374.462 L 429.279 374.462 L 429.279 373.4 L 439.24 373.4 Z M 449.203 374.462 L 439.242 374.462 L 439.242 373.4 L 449.203 373.4 Z M 459.157 374.462 L 449.195 374.462 L 449.195 373.4 L 459.157 373.4 Z M 469.12 374.462 L 459.158 374.462 L 459.158 373.4 L 469.12 373.4 Z M 479.083 374.462 L 469.121 374.462 L 469.121 373.4 L 479.083 373.4 Z M 486.987 359.191 L 482.018 371.066 L 480.827 371.066 L 485.771 359.191 Z M 496.925 371.066 L 495.725 371.066 L 490.764 359.191 L 491.972 359.191 Z M 508.963 374.462 L 499.001 374.462 L 499.001 373.4 L 508.963 373.4 Z M 518.925 374.462 L 508.964 374.462 L 508.964 373.4 L 518.925 373.4 Z M 528.888 374.462 L 518.927 374.462 L 518.927 373.4 L 528.888 373.4 Z M 536.783 359.191 L 531.815 371.066 L 530.623 371.066 L 535.568 359.191 Z M 566.656 371.066 L 565.456 371.066 L 560.496 359.191 L 561.704 359.191 Z M 578.685 374.462 L 568.723 374.462 L 568.723 373.4 L 578.685 373.4 Z M 588.648 374.462 L 578.686 374.462 L 578.686 373.4 L 588.648 373.4 Z M 598.611 374.462 L 588.649 374.462 L 588.649 373.4 L 598.611 373.4 Z M 606.515 359.191 L 601.546 371.066 L 600.355 371.066 L 605.299 359.191 Z" style="fill: rgb(255, 255, 255); white-space: pre;"/>
  </g>
</svg>