<?xml version="1.0" encoding="utf-8"?>
<svg viewBox="0 0 800 200" xmlns="http://www.w3.org/2000/svg">
  <g transform="matrix(0.820659, 0, 0, 0.820659, 98.463219, -200.820755)">
    <path d="M 106.673 294.772 L 94.251 294.772 L 94.251 293.448 L 106.673 293.448 Z M 119.092 294.772 L 106.67 294.772 L 106.67 293.448 L 119.092 293.448 Z M 131.511 294.772 L 119.089 294.772 L 119.089 293.448 L 131.511 293.448 Z M 143.93 294.772 L 131.508 294.772 L 131.508 293.448 L 143.93 293.448 Z M 156.349 294.772 L 143.927 294.772 L 143.927 293.448 L 156.349 293.448 Z M 441.997 294.772 L 429.575 294.772 L 429.575 293.448 L 441.997 293.448 Z" style="fill: rgb(255, 255, 255); white-space: pre;"/>
    <path d="M 88.766 314.836 L 87.21 314.836 L 87.21 296.703 L 88.766 296.703 Z M 131.511 315.472 L 119.089 315.472 L 119.089 314.148 L 131.511 314.148 Z M 143.93 315.472 L 131.508 315.472 L 131.508 314.148 L 143.93 314.148 Z M 166.181 311.237 L 164.685 311.237 L 158.499 296.43 L 160.005 296.43 Z M 424.09 314.836 L 422.534 314.836 L 422.534 296.703 L 424.09 296.703 Z M 448.94 314.836 L 447.383 314.836 L 447.383 296.703 L 448.94 296.703 Z" style="fill: rgb(255, 255, 255); white-space: pre;"/>
    <path d="M 88.766 335.536 L 87.21 335.536 L 87.21 317.403 L 88.766 317.403 Z M 113.604 335.536 L 112.048 335.536 L 112.048 317.403 L 113.604 317.403 Z M 153.762 331.937 L 152.266 331.937 L 146.08 317.13 L 147.586 317.13 Z M 166.201 317.13 L 160.005 331.937 L 158.519 331.937 L 164.685 317.13 Z M 193.606 336.172 L 181.184 336.172 L 181.184 334.848 L 193.606 334.848 Z M 206.025 336.172 L 193.603 336.172 L 193.603 334.848 L 206.025 334.848 Z M 230.863 336.172 L 218.441 336.172 L 218.441 334.848 L 230.863 334.848 Z M 255.701 336.172 L 243.279 336.172 L 243.279 334.848 L 255.701 334.848 Z M 280.551 336.172 L 268.129 336.172 L 268.129 334.848 L 280.551 334.848 Z M 292.97 336.172 L 280.548 336.172 L 280.548 334.848 L 292.97 334.848 Z M 317.808 336.172 L 305.386 336.172 L 305.386 334.848 L 317.808 334.848 Z M 330.227 336.172 L 317.805 336.172 L 317.805 334.848 L 330.227 334.848 Z M 342.646 336.172 L 330.224 336.172 L 330.224 334.848 L 342.646 334.848 Z M 392.322 336.172 L 379.9 336.172 L 379.9 334.848 L 392.322 334.848 Z M 404.741 336.172 L 392.319 336.172 L 392.319 334.848 L 404.741 334.848 Z M 417.16 336.172 L 404.738 336.172 L 404.738 334.848 L 417.16 334.848 Z M 424.09 335.536 L 422.534 335.536 L 422.534 317.403 L 424.09 317.403 Z M 448.94 335.536 L 447.383 335.536 L 447.383 317.403 L 448.94 317.403 Z M 466.847 336.172 L 454.425 336.172 L 454.425 334.848 L 466.847 334.848 Z M 479.266 336.172 L 466.844 336.172 L 466.844 334.848 L 479.266 334.848 Z M 528.942 336.172 L 516.52 336.172 L 516.52 334.848 L 528.942 334.848 Z M 541.361 336.172 L 528.939 336.172 L 528.939 334.848 L 541.361 334.848 Z M 553.78 336.172 L 541.358 336.172 L 541.358 334.848 L 553.78 334.848 Z M 591.037 336.172 L 578.615 336.172 L 578.615 334.848 L 591.037 334.848 Z M 640.724 336.172 L 628.302 336.172 L 628.302 334.848 L 640.724 334.848 Z" style="fill: rgb(255, 255, 255); white-space: pre;"/>
    <path d="M 88.766 356.236 L 87.21 356.236 L 87.21 338.103 L 88.766 338.103 Z M 113.604 356.236 L 112.048 356.236 L 112.048 338.103 L 113.604 338.103 Z M 143.93 356.872 L 131.508 356.872 L 131.508 355.548 L 143.93 355.548 Z M 156.349 356.872 L 143.927 356.872 L 143.927 355.548 L 156.349 355.548 Z M 178.62 337.83 L 172.424 352.637 L 170.938 352.637 L 177.104 337.83 Z M 206.025 356.872 L 193.603 356.872 L 193.603 355.548 L 206.025 355.548 Z M 213.825 340.589 L 212.683 340.589 L 209.54 337.547 L 211.814 337.547 Z M 237.794 356.236 L 236.237 356.236 L 236.237 338.103 L 237.794 338.103 Z M 262.693 340.529 L 262.319 343.359 L 261.51 343.359 L 261.146 340.529 L 261.146 338.103 L 262.693 338.103 Z M 280.551 356.872 L 268.129 356.872 L 268.129 355.548 L 280.551 355.548 Z M 300.77 340.589 L 299.628 340.589 L 296.484 337.547 L 298.758 337.547 Z M 330.227 356.872 L 317.805 356.872 L 317.805 355.548 L 330.227 355.548 Z M 352.477 352.637 L 350.981 352.637 L 344.796 337.83 L 346.302 337.83 Z M 377.335 337.83 L 371.14 352.637 L 369.654 352.637 L 375.819 337.83 Z M 404.741 356.872 L 392.319 356.872 L 392.319 355.548 L 404.741 355.548 Z M 426.991 352.637 L 425.495 352.637 L 419.309 337.83 L 420.815 337.83 Z M 449 340.529 L 448.626 343.359 L 447.818 343.359 L 447.454 340.529 L 447.454 338.103 L 449 338.103 Z M 466.847 356.872 L 454.425 356.872 L 454.425 355.548 L 466.847 355.548 Z M 489.098 352.637 L 487.602 352.637 L 481.416 337.83 L 482.922 337.83 Z M 513.956 337.83 L 507.76 352.637 L 506.274 352.637 L 512.44 337.83 Z M 541.361 356.872 L 528.939 356.872 L 528.939 355.548 L 541.361 355.548 Z M 563.611 352.637 L 562.116 352.637 L 555.93 337.83 L 557.436 337.83 Z M 573.13 356.236 L 571.573 356.236 L 571.573 338.103 L 573.13 338.103 Z M 597.968 356.236 L 596.411 356.236 L 596.411 338.103 L 597.968 338.103 Z M 622.817 356.236 L 621.261 356.236 L 621.261 338.103 L 622.817 338.103 Z M 647.655 356.236 L 646.098 356.236 L 646.098 338.103 L 647.655 338.103 Z" style="fill: rgb(255, 255, 255); white-space: pre;"/>
    <path d="M 88.766 376.936 L 87.21 376.936 L 87.21 358.803 L 88.766 358.803 Z M 113.604 376.936 L 112.048 376.936 L 112.048 358.803 L 113.604 358.803 Z M 131.511 377.572 L 119.089 377.572 L 119.089 376.248 L 131.511 376.248 Z M 141.343 373.337 L 139.847 373.337 L 133.661 358.53 L 135.167 358.53 Z M 166.181 373.337 L 164.685 373.337 L 158.499 358.53 L 160.005 358.53 Z M 190.867 375.177 L 190.251 376.046 C 188.748 374.907 187.603 373.583 186.814 372.074 C 186.026 370.565 185.632 368.971 185.632 367.293 C 185.632 365.602 186.022 364.007 186.804 362.507 C 187.586 361.008 188.735 359.689 190.251 358.55 L 190.867 359.419 C 189.634 360.525 188.746 361.682 188.204 362.891 C 187.662 364.101 187.39 365.561 187.39 367.273 C 187.39 369.045 187.672 370.536 188.234 371.745 C 188.797 372.955 189.675 374.099 190.867 375.177 Z M 206.025 377.572 L 193.603 377.572 L 193.603 376.248 L 206.025 376.248 Z M 212.956 376.936 L 211.399 376.936 L 211.399 358.803 L 212.956 358.803 Z M 237.794 376.936 L 236.237 376.936 L 236.237 358.803 L 237.794 358.803 Z M 262.632 376.936 L 261.075 376.936 L 261.075 358.803 L 262.632 358.803 Z M 287.481 376.936 L 285.925 376.936 L 285.925 358.803 L 287.481 358.803 Z M 312.319 376.936 L 310.763 376.936 L 310.763 358.803 L 312.319 358.803 Z M 337.157 376.936 L 335.601 376.936 L 335.601 358.803 L 337.157 358.803 Z M 361.995 376.936 L 360.439 376.936 L 360.439 358.803 L 361.995 358.803 Z M 404.741 377.572 L 392.319 377.572 L 392.319 376.248 L 404.741 376.248 Z M 417.16 377.572 L 404.738 377.572 L 404.738 376.248 L 417.16 376.248 Z M 427.011 358.53 L 420.815 373.337 L 419.33 373.337 L 425.495 358.53 Z M 448.94 376.936 L 447.383 376.936 L 447.383 358.803 L 448.94 358.803 Z M 466.847 377.572 L 454.425 377.572 L 454.425 376.248 L 466.847 376.248 Z M 470.2 358.55 C 471.709 359.689 472.855 361.008 473.636 362.507 C 474.418 364.007 474.809 365.602 474.809 367.293 C 474.809 368.971 474.416 370.565 473.631 372.074 C 472.846 373.583 471.702 374.907 470.2 376.046 L 469.573 375.177 C 470.806 374.085 471.694 372.925 472.236 371.695 C 472.779 370.465 473.05 368.991 473.05 367.273 C 473.05 365.501 472.77 364.018 472.211 362.826 C 471.652 361.633 470.773 360.498 469.573 359.419 Z M 498.616 376.936 L 497.059 376.936 L 497.059 358.803 L 498.616 358.803 Z M 526.203 375.177 L 525.586 376.046 C 524.084 374.907 522.938 373.583 522.15 372.074 C 521.361 370.565 520.967 368.971 520.967 367.293 C 520.967 365.602 521.358 364.007 522.14 362.507 C 522.921 361.008 524.07 359.689 525.586 358.55 L 526.203 359.419 C 524.97 360.525 524.082 361.682 523.54 362.891 C 522.997 364.101 522.726 365.561 522.726 367.273 C 522.726 369.045 523.007 370.536 523.57 371.745 C 524.133 372.955 525.01 374.099 526.203 375.177 Z M 541.361 377.572 L 528.939 377.572 L 528.939 376.248 L 541.361 376.248 Z M 544.714 358.55 C 546.223 359.689 547.368 361.008 548.15 362.507 C 548.932 364.007 549.323 365.602 549.323 367.293 C 549.323 368.971 548.93 370.565 548.145 372.074 C 547.36 373.583 546.216 374.907 544.714 376.046 L 544.087 375.177 C 545.32 374.085 546.208 372.925 546.75 371.695 C 547.293 370.465 547.564 368.991 547.564 367.273 C 547.564 365.501 547.284 364.018 546.725 362.826 C 546.166 361.633 545.286 360.498 544.087 359.419 Z M 573.13 376.936 L 571.573 376.936 L 571.573 358.803 L 573.13 358.803 Z M 597.968 376.936 L 596.411 376.936 L 596.411 358.803 L 597.968 358.803 Z M 615.875 377.572 L 603.453 377.572 L 603.453 376.248 L 615.875 376.248 Z M 622.817 376.936 L 621.261 376.936 L 621.261 358.803 L 622.817 358.803 Z M 647.655 376.936 L 646.098 376.936 L 646.098 358.803 L 647.655 358.803 Z" style="fill: rgb(255, 255, 255); white-space: pre;"/>
    <path d="M 104.086 394.037 L 102.59 394.037 L 96.404 379.23 L 97.91 379.23 Z M 119.092 398.272 L 106.67 398.272 L 106.67 396.948 L 119.092 396.948 Z M 131.511 398.272 L 119.089 398.272 L 119.089 396.948 L 131.511 396.948 Z M 143.93 398.272 L 131.508 398.272 L 131.508 396.948 L 143.93 396.948 Z M 156.349 398.272 L 143.927 398.272 L 143.927 396.948 L 156.349 396.948 Z M 166.201 379.23 L 160.005 394.037 L 158.519 394.037 L 164.685 379.23 Z M 178.6 394.037 L 177.104 394.037 L 170.918 379.23 L 172.424 379.23 Z M 193.606 398.272 L 181.184 398.272 L 181.184 396.948 L 193.606 396.948 Z M 206.025 398.272 L 193.603 398.272 L 193.603 396.948 L 206.025 396.948 Z M 212.248 394.037 C 211.898 393.997 211.608 393.852 211.379 393.603 C 211.15 393.354 211.036 393.071 211.036 392.754 C 211.036 392.41 211.147 392.12 211.369 391.885 C 211.591 391.649 211.871 391.531 212.208 391.531 C 212.585 391.531 212.912 391.684 213.188 391.991 C 213.465 392.297 213.603 392.666 213.603 393.097 C 213.603 394.418 212.868 395.449 211.399 396.19 L 211.015 395.463 C 211.837 395.058 212.248 394.583 212.248 394.037 Z M 230.863 398.272 L 218.441 398.272 L 218.441 396.948 L 230.863 396.948 Z M 237.794 397.636 L 236.237 397.636 L 236.237 379.503 L 237.794 379.503 Z M 255.701 398.272 L 243.279 398.272 L 243.279 396.948 L 255.701 396.948 Z M 262.632 397.636 L 261.075 397.636 L 261.075 379.503 L 262.632 379.503 Z M 287.481 397.636 L 285.925 397.636 L 285.925 379.503 L 287.481 379.503 Z M 305.389 398.272 L 292.967 398.272 L 292.967 396.948 L 305.389 396.948 Z M 312.319 397.636 L 310.763 397.636 L 310.763 379.503 L 312.319 379.503 Z M 337.157 397.636 L 335.601 397.636 L 335.601 379.503 L 337.157 379.503 Z M 355.065 398.272 L 342.643 398.272 L 342.643 396.948 L 355.065 396.948 Z M 361.995 397.636 L 360.439 397.636 L 360.439 379.503 L 361.995 379.503 Z M 377.315 394.037 L 375.819 394.037 L 369.634 379.23 L 371.14 379.23 Z M 392.322 398.272 L 379.9 398.272 L 379.9 396.948 L 392.322 396.948 Z M 404.741 398.272 L 392.319 398.272 L 392.319 396.948 L 404.741 396.948 Z M 417.16 398.272 L 404.738 398.272 L 404.738 396.948 L 417.16 396.948 Z M 424.09 397.636 L 422.534 397.636 L 422.534 379.503 L 424.09 379.503 Z M 441.998 398.272 L 429.576 398.272 L 429.576 396.948 L 441.998 396.948 Z M 448.151 391.45 C 448.509 391.45 448.808 391.571 449.051 391.814 C 449.294 392.056 449.415 392.356 449.415 392.713 C 449.415 393.077 449.292 393.389 449.046 393.648 C 448.8 393.908 448.502 394.037 448.151 394.037 C 447.808 394.037 447.515 393.908 447.272 393.648 C 447.029 393.389 446.908 393.077 446.908 392.713 C 446.908 392.35 447.028 392.048 447.267 391.809 C 447.506 391.57 447.801 391.45 448.151 391.45 Z M 466.847 398.272 L 454.425 398.272 L 454.425 396.948 L 466.847 396.948 Z M 479.266 398.272 L 466.844 398.272 L 466.844 396.948 L 479.266 396.948 Z M 489.118 379.23 L 482.922 394.037 L 481.436 394.037 L 487.602 379.23 Z M 513.936 394.037 L 512.44 394.037 L 506.254 379.23 L 507.76 379.23 Z M 528.942 398.272 L 516.52 398.272 L 516.52 396.948 L 528.942 396.948 Z M 541.361 398.272 L 528.939 398.272 L 528.939 396.948 L 541.361 396.948 Z M 553.78 398.272 L 541.358 398.272 L 541.358 396.948 L 553.78 396.948 Z M 563.632 379.23 L 557.436 394.037 L 555.95 394.037 L 562.116 379.23 Z M 588.449 394.037 L 586.954 394.037 L 580.768 379.23 L 582.274 379.23 Z M 603.456 398.272 L 591.034 398.272 L 591.034 396.948 L 603.456 396.948 Z M 615.875 398.272 L 603.453 398.272 L 603.453 396.948 L 615.875 396.948 Z M 622.11 394.037 C 621.759 393.997 621.469 393.852 621.24 393.603 C 621.011 393.354 620.897 393.071 620.897 392.754 C 620.897 392.41 621.008 392.12 621.23 391.885 C 621.453 391.649 621.732 391.531 622.069 391.531 C 622.446 391.531 622.773 391.684 623.05 391.991 C 623.326 392.297 623.464 392.666 623.464 393.097 C 623.464 394.418 622.729 395.449 621.261 396.19 L 620.876 395.463 C 621.699 395.058 622.11 394.583 622.11 394.037 Z M 647.655 397.636 L 646.098 397.636 L 646.098 379.503 L 647.655 379.503 Z" style="fill: rgb(255, 255, 255); white-space: pre;"/>
    <path d="M 603.456 418.972 L 591.034 418.972 L 591.034 417.648 L 603.456 417.648 Z M 615.875 418.972 L 603.453 418.972 L 603.453 417.648 L 615.875 417.648 Z M 625.738 399.93 L 619.542 414.737 L 618.056 414.737 L 624.222 399.93 Z M 647.655 418.336 L 646.098 418.336 L 646.098 400.203 L 647.655 400.203 Z" style="fill: rgb(255, 255, 255); white-space: pre;"/>
    <path d="M 585.548 439.036 L 583.992 439.036 L 583.992 420.903 L 585.548 420.903 Z M 603.456 439.672 L 591.034 439.672 L 591.034 438.348 L 603.456 438.348 Z M 615.875 439.672 L 603.453 439.672 L 603.453 438.348 L 615.875 438.348 Z M 628.305 439.672 L 615.883 439.672 L 615.883 438.348 L 628.305 438.348 Z M 638.157 420.63 L 631.961 435.437 L 630.475 435.437 L 636.641 420.63 Z" style="fill: rgb(255, 255, 255); white-space: pre;"/>
  </g>
</svg>