<?xml version="1.0" encoding="utf-8"?>
<svg viewBox="0 0 800 200" xmlns="http://www.w3.org/2000/svg">
  <g transform="matrix(1, 0, 0, 1, 17.861641, -166.934555)">
    <g transform="matrix(0.972075, 0, 0, 0.972075, 14.129223, 52.295803)">
      <path d="M 132.915 119.18 L 121.214 119.18 L 121.214 117.932 L 132.915 117.932 Z M 144.618 119.18 L 132.916 119.18 L 132.916 117.932 L 144.618 117.932 Z M 156.32 119.18 L 144.618 119.18 L 144.618 117.932 L 156.32 117.932 Z M 168.023 119.18 L 156.321 119.18 L 156.321 117.932 L 168.023 117.932 Z M 179.725 119.18 L 168.023 119.18 L 168.023 117.932 L 179.725 117.932 Z M 448.837 119.18 L 437.135 119.18 L 437.135 117.932 L 448.837 117.932 Z" style="fill: rgb(255, 255, 255); white-space: pre;"/>
      <path d="M 116.054 138.08 L 114.587 138.08 L 114.587 120.998 L 116.054 120.998 Z M 156.32 138.68 L 144.618 138.68 L 144.618 137.432 L 156.32 137.432 Z M 168.023 138.68 L 156.321 138.68 L 156.321 137.432 L 168.023 137.432 Z M 188.99 134.69 L 187.581 134.69 L 181.754 120.741 L 183.172 120.741 Z M 431.964 138.08 L 430.498 138.08 L 430.498 120.998 L 431.964 120.998 Z M 455.369 138.08 L 453.903 138.08 L 453.903 120.998 L 455.369 120.998 Z" style="fill: rgb(255, 255, 255); white-space: pre;"/>
      <path d="M 116.054 157.58 L 114.587 157.58 L 114.587 140.498 L 116.054 140.498 Z M 139.448 157.58 L 137.981 157.58 L 137.981 140.498 L 139.448 140.498 Z M 177.288 154.19 L 175.878 154.19 L 170.051 140.241 L 171.47 140.241 Z M 189.009 140.241 L 183.172 154.19 L 181.773 154.19 L 187.581 140.241 Z M 214.821 158.18 L 203.119 158.18 L 203.119 156.932 L 214.821 156.932 Z M 226.524 158.18 L 214.822 158.18 L 214.822 156.932 L 226.524 156.932 Z M 249.929 158.18 L 238.227 158.18 L 238.227 156.932 L 249.929 156.932 Z M 273.323 158.18 L 261.621 158.18 L 261.621 156.932 L 273.323 156.932 Z M 296.727 158.18 L 285.025 158.18 L 285.025 156.932 L 296.727 156.932 Z M 308.43 158.18 L 296.728 158.18 L 296.728 156.932 L 308.43 156.932 Z M 331.835 158.18 L 320.133 158.18 L 320.133 156.932 L 331.835 156.932 Z M 343.526 158.18 L 331.824 158.18 L 331.824 156.932 L 343.526 156.932 Z M 355.228 158.18 L 343.527 158.18 L 343.527 156.932 L 355.228 156.932 Z M 402.038 158.18 L 390.336 158.18 L 390.336 156.932 L 402.038 156.932 Z M 413.73 158.18 L 402.028 158.18 L 402.028 156.932 L 413.73 156.932 Z M 425.432 158.18 L 413.73 158.18 L 413.73 156.932 L 425.432 156.932 Z M 431.964 157.58 L 430.498 157.58 L 430.498 140.498 L 431.964 140.498 Z M 455.369 157.58 L 453.903 157.58 L 453.903 140.498 L 455.369 140.498 Z M 472.242 158.18 L 460.54 158.18 L 460.54 156.932 L 472.242 156.932 Z M 483.933 158.18 L 472.231 158.18 L 472.231 156.932 L 483.933 156.932 Z M 530.743 158.18 L 519.041 158.18 L 519.041 156.932 L 530.743 156.932 Z M 542.445 158.18 L 530.743 158.18 L 530.743 156.932 L 542.445 156.932 Z M 554.137 158.18 L 542.435 158.18 L 542.435 156.932 L 554.137 156.932 Z M 589.244 158.18 L 577.542 158.18 L 577.542 156.932 L 589.244 156.932 Z M 636.043 158.18 L 624.341 158.18 L 624.341 156.932 L 636.043 156.932 Z" style="fill: rgb(255, 255, 255); white-space: pre;"/>
      <path d="M 116.054 177.08 L 114.587 177.08 L 114.587 159.998 L 116.054 159.998 Z M 139.448 177.08 L 137.981 177.08 L 137.981 159.998 L 139.448 159.998 Z M 168.023 177.68 L 156.321 177.68 L 156.321 176.432 L 168.023 176.432 Z M 179.725 177.68 L 168.023 177.68 L 168.023 176.432 L 179.725 176.432 Z M 200.7 159.741 L 194.864 173.69 L 193.464 173.69 L 199.272 159.741 Z M 226.524 177.68 L 214.822 177.68 L 214.822 176.432 L 226.524 176.432 Z M 233.875 162.34 L 232.799 162.34 L 229.838 159.475 L 231.98 159.475 Z M 256.461 177.08 L 254.994 177.08 L 254.994 159.998 L 256.461 159.998 Z M 279.912 162.283 L 279.56 164.949 L 278.798 164.949 L 278.455 162.283 L 278.455 159.998 L 279.912 159.998 Z M 296.727 177.68 L 285.025 177.68 L 285.025 176.432 L 296.727 176.432 Z M 315.781 162.34 L 314.705 162.34 L 311.744 159.475 L 313.886 159.475 Z M 343.526 177.68 L 331.824 177.68 L 331.824 176.432 L 343.526 176.432 Z M 364.493 173.69 L 363.084 173.69 L 357.257 159.741 L 358.676 159.741 Z M 387.917 159.741 L 382.08 173.69 L 380.681 173.69 L 386.489 159.741 Z M 413.729 177.68 L 402.028 177.68 L 402.028 176.432 L 413.729 176.432 Z M 434.697 173.69 L 433.288 173.69 L 427.46 159.741 L 428.879 159.741 Z M 455.426 162.283 L 455.074 164.949 L 454.312 164.949 L 453.969 162.283 L 453.969 159.998 L 455.426 159.998 Z M 472.242 177.68 L 460.54 177.68 L 460.54 176.432 L 472.242 176.432 Z M 493.198 173.69 L 491.789 173.69 L 485.962 159.741 L 487.38 159.741 Z M 516.622 159.741 L 510.785 173.69 L 509.385 173.69 L 515.194 159.741 Z M 542.445 177.68 L 530.743 177.68 L 530.743 176.432 L 542.445 176.432 Z M 563.401 173.69 L 561.992 173.69 L 556.165 159.741 L 557.584 159.741 Z M 572.371 177.08 L 570.905 177.08 L 570.905 159.998 L 572.371 159.998 Z M 595.776 177.08 L 594.31 177.08 L 594.31 159.998 L 595.776 159.998 Z M 619.181 177.08 L 617.715 177.08 L 617.715 159.998 L 619.181 159.998 Z M 642.575 177.08 L 641.108 177.08 L 641.108 159.998 L 642.575 159.998 Z" style="fill: rgb(255, 255, 255); white-space: pre;"/>
      <path d="M 116.054 196.58 L 114.587 196.58 L 114.587 179.498 L 116.054 179.498 Z M 139.448 196.58 L 137.981 196.58 L 137.981 179.498 L 139.448 179.498 Z M 156.32 197.18 L 144.618 197.18 L 144.618 195.932 L 156.32 195.932 Z M 165.585 193.19 L 164.176 193.19 L 158.349 179.241 L 159.767 179.241 Z M 188.99 193.19 L 187.581 193.19 L 181.754 179.241 L 183.172 179.241 Z M 212.241 194.923 L 211.66 195.742 C 210.245 194.669 209.166 193.422 208.423 192 C 207.68 190.578 207.309 189.077 207.309 187.496 C 207.309 185.903 207.677 184.4 208.413 182.988 C 209.15 181.575 210.232 180.333 211.66 179.26 L 212.241 180.079 C 211.079 181.12 210.243 182.21 209.732 183.35 C 209.221 184.489 208.966 185.865 208.966 187.477 C 208.966 189.147 209.231 190.551 209.761 191.69 C 210.291 192.83 211.117 193.907 212.241 194.923 Z M 226.524 197.18 L 214.822 197.18 L 214.822 195.932 L 226.524 195.932 Z M 233.056 196.58 L 231.59 196.58 L 231.59 179.498 L 233.056 179.498 Z M 256.461 196.58 L 254.994 196.58 L 254.994 179.498 L 256.461 179.498 Z M 279.855 196.58 L 278.388 196.58 L 278.388 179.498 L 279.855 179.498 Z M 303.259 196.58 L 301.793 196.58 L 301.793 179.498 L 303.259 179.498 Z M 326.664 196.58 L 325.198 196.58 L 325.198 179.498 L 326.664 179.498 Z M 350.058 196.58 L 348.592 196.58 L 348.592 179.498 L 350.058 179.498 Z M 373.463 196.58 L 371.997 196.58 L 371.997 179.498 L 373.463 179.498 Z M 413.729 197.18 L 402.028 197.18 L 402.028 195.932 L 413.729 195.932 Z M 425.432 197.18 L 413.73 197.18 L 413.73 195.932 L 425.432 195.932 Z M 434.716 179.241 L 428.879 193.19 L 427.48 193.19 L 433.288 179.241 Z M 455.369 196.58 L 453.903 196.58 L 453.903 179.498 L 455.369 179.498 Z M 472.242 197.18 L 460.54 197.18 L 460.54 195.932 L 472.242 195.932 Z M 475.392 179.26 C 476.814 180.333 477.893 181.575 478.63 182.988 C 479.366 184.4 479.734 185.903 479.734 187.496 C 479.734 189.077 479.364 190.578 478.625 192 C 477.885 193.422 476.808 194.669 475.392 195.742 L 474.802 194.923 C 475.964 193.895 476.8 192.801 477.311 191.643 C 477.822 190.484 478.077 189.096 478.077 187.477 C 478.077 185.808 477.814 184.411 477.287 183.288 C 476.76 182.164 475.932 181.095 474.802 180.079 Z M 502.168 196.58 L 500.701 196.58 L 500.701 179.498 L 502.168 179.498 Z M 528.162 194.923 L 527.582 195.742 C 526.166 194.669 525.087 193.422 524.344 192 C 523.602 190.578 523.23 189.077 523.23 187.496 C 523.23 185.903 523.598 184.4 524.335 182.988 C 525.071 181.575 526.153 180.333 527.582 179.26 L 528.162 180.079 C 527.001 181.12 526.164 182.21 525.653 183.35 C 525.142 184.489 524.887 185.865 524.887 187.477 C 524.887 189.147 525.152 190.551 525.682 191.69 C 526.212 192.83 527.039 193.907 528.162 194.923 Z M 542.445 197.18 L 530.743 197.18 L 530.743 195.932 L 542.445 195.932 Z M 545.596 179.26 C 547.018 180.333 548.097 181.575 548.833 182.988 C 549.569 184.4 549.938 185.903 549.938 187.496 C 549.938 189.077 549.568 190.578 548.828 192 C 548.089 193.422 547.011 194.669 545.596 195.742 L 545.005 194.923 C 546.167 193.895 547.003 192.801 547.514 191.643 C 548.025 190.484 548.281 189.096 548.281 187.477 C 548.281 185.808 548.017 184.411 547.491 183.288 C 546.964 182.164 546.135 181.095 545.005 180.079 Z M 572.371 196.58 L 570.905 196.58 L 570.905 179.498 L 572.371 179.498 Z M 595.776 196.58 L 594.31 196.58 L 594.31 179.498 L 595.776 179.498 Z M 612.649 197.18 L 600.947 197.18 L 600.947 195.932 L 612.649 195.932 Z M 619.181 196.58 L 617.715 196.58 L 617.715 179.498 L 619.181 179.498 Z M 642.575 196.58 L 641.108 196.58 L 641.108 179.498 L 642.575 179.498 Z" style="fill: rgb(255, 255, 255); white-space: pre;"/>
      <path d="M 130.478 212.69 L 129.069 212.69 L 123.242 198.741 L 124.66 198.741 Z M 144.618 216.68 L 132.916 216.68 L 132.916 215.432 L 144.618 215.432 Z M 156.32 216.68 L 144.618 216.68 L 144.618 215.432 L 156.32 215.432 Z M 168.023 216.68 L 156.321 216.68 L 156.321 215.432 L 168.023 215.432 Z M 179.725 216.68 L 168.023 216.68 L 168.023 215.432 L 179.725 215.432 Z M 189.009 198.741 L 183.172 212.69 L 181.773 212.69 L 187.581 198.741 Z M 200.681 212.69 L 199.272 212.69 L 193.445 198.741 L 194.864 198.741 Z M 214.821 216.68 L 203.119 216.68 L 203.119 215.432 L 214.821 215.432 Z M 226.524 216.68 L 214.822 216.68 L 214.822 215.432 L 226.524 215.432 Z M 232.389 212.69 C 232.059 212.652 231.786 212.516 231.571 212.281 C 231.355 212.046 231.247 211.779 231.247 211.481 C 231.247 211.157 231.352 210.884 231.561 210.662 C 231.771 210.44 232.034 210.329 232.351 210.329 C 232.707 210.329 233.015 210.473 233.275 210.762 C 233.535 211.051 233.665 211.398 233.665 211.805 C 233.665 213.049 232.973 214.02 231.59 214.718 L 231.228 214.033 C 232.002 213.652 232.389 213.204 232.389 212.69 Z M 249.929 216.68 L 238.227 216.68 L 238.227 215.432 L 249.929 215.432 Z M 256.461 216.08 L 254.994 216.08 L 254.994 198.998 L 256.461 198.998 Z M 273.322 216.68 L 261.621 216.68 L 261.621 215.432 L 273.322 215.432 Z M 279.855 216.08 L 278.388 216.08 L 278.388 198.998 L 279.855 198.998 Z M 303.259 216.08 L 301.793 216.08 L 301.793 198.998 L 303.259 198.998 Z M 320.132 216.68 L 308.43 216.68 L 308.43 215.432 L 320.132 215.432 Z M 326.664 216.08 L 325.198 216.08 L 325.198 198.998 L 326.664 198.998 Z M 350.058 216.08 L 348.592 216.08 L 348.592 198.998 L 350.058 198.998 Z M 366.931 216.68 L 355.229 216.68 L 355.229 215.432 L 366.931 215.432 Z M 373.463 216.08 L 371.997 216.08 L 371.997 198.998 L 373.463 198.998 Z M 387.898 212.69 L 386.489 212.69 L 380.662 198.741 L 382.08 198.741 Z M 402.038 216.68 L 390.336 216.68 L 390.336 215.432 L 402.038 215.432 Z M 413.729 216.68 L 402.028 216.68 L 402.028 215.432 L 413.729 215.432 Z M 425.432 216.68 L 413.73 216.68 L 413.73 215.432 L 425.432 215.432 Z M 431.964 216.08 L 430.498 216.08 L 430.498 198.998 L 431.964 198.998 Z M 448.837 216.68 L 437.135 216.68 L 437.135 215.432 L 448.837 215.432 Z M 454.626 210.253 C 454.963 210.253 455.245 210.367 455.474 210.595 C 455.702 210.824 455.816 211.106 455.816 211.443 C 455.816 211.786 455.701 212.079 455.469 212.324 C 455.237 212.568 454.956 212.69 454.626 212.69 C 454.303 212.69 454.026 212.568 453.798 212.324 C 453.569 212.079 453.455 211.786 453.455 211.443 C 453.455 211.1 453.568 210.816 453.793 210.591 C 454.018 210.365 454.296 210.253 454.626 210.253 Z M 472.242 216.68 L 460.54 216.68 L 460.54 215.432 L 472.242 215.432 Z M 483.933 216.68 L 472.231 216.68 L 472.231 215.432 L 483.933 215.432 Z M 493.217 198.741 L 487.38 212.69 L 485.981 212.69 L 491.789 198.741 Z M 516.603 212.69 L 515.194 212.69 L 509.366 198.741 L 510.785 198.741 Z M 530.743 216.68 L 519.041 216.68 L 519.041 215.432 L 530.743 215.432 Z M 542.445 216.68 L 530.743 216.68 L 530.743 215.432 L 542.445 215.432 Z M 554.137 216.68 L 542.435 216.68 L 542.435 215.432 L 554.137 215.432 Z M 563.421 198.741 L 557.584 212.69 L 556.184 212.69 L 561.992 198.741 Z M 586.806 212.69 L 585.397 212.69 L 579.57 198.741 L 580.989 198.741 Z M 600.946 216.68 L 589.244 216.68 L 589.244 215.432 L 600.946 215.432 Z M 612.649 216.68 L 600.947 216.68 L 600.947 215.432 L 612.649 215.432 Z M 618.514 212.69 C 618.184 212.652 617.911 212.516 617.695 212.281 C 617.48 212.046 617.372 211.779 617.372 211.481 C 617.372 211.157 617.477 210.884 617.686 210.662 C 617.895 210.44 618.159 210.329 618.476 210.329 C 618.832 210.329 619.14 210.473 619.4 210.762 C 619.66 211.051 619.79 211.398 619.79 211.805 C 619.79 213.049 619.098 214.02 617.715 214.718 L 617.353 214.033 C 618.127 213.652 618.514 213.204 618.514 212.69 Z M 642.575 216.08 L 641.108 216.08 L 641.108 198.998 L 642.575 198.998 Z" style="fill: rgb(255, 255, 255); white-space: pre;"/>
      <path d="M 600.946 236.18 L 589.245 236.18 L 589.245 234.932 L 600.946 234.932 Z M 612.649 236.18 L 600.947 236.18 L 600.947 234.932 L 612.649 234.932 Z M 621.933 218.241 L 616.096 232.19 L 614.696 232.19 L 620.505 218.241 Z M 642.575 235.58 L 641.109 235.58 L 641.109 218.498 L 642.575 218.498 Z" style="fill: rgb(255, 255, 255); white-space: pre;"/>
      <path d="M 584.074 255.08 L 582.607 255.08 L 582.607 237.998 L 584.074 237.998 Z M 600.946 255.68 L 589.245 255.68 L 589.245 254.432 L 600.946 254.432 Z M 612.649 255.68 L 600.947 255.68 L 600.947 254.432 L 612.649 254.432 Z M 624.351 255.68 L 612.649 255.68 L 612.649 254.432 L 624.351 254.432 Z M 633.624 237.741 L 627.788 251.69 L 626.388 251.69 L 632.196 237.741 Z" style="fill: rgb(255, 255, 255); white-space: pre;"/>
    </g>
    <g transform="matrix(0.972075, 0, 0, 0.972075, 3.505047, 4.66165)">
      <path d="M 179.725 275.18 L 168.023 275.18 L 168.023 273.932 L 179.725 273.932 Z M 191.428 275.18 L 179.726 275.18 L 179.726 273.932 L 191.428 273.932 Z M 203.119 275.18 L 191.417 275.18 L 191.417 273.932 L 203.119 273.932 Z M 285.025 275.18 L 273.323 275.18 L 273.323 273.932 L 285.025 273.932 Z" style="fill: rgb(255, 255, 255); white-space: pre;"/>
      <path d="M 165.604 276.741 L 159.768 290.69 L 158.368 290.69 L 164.176 276.741 Z M 191.428 294.68 L 179.726 294.68 L 179.726 293.432 L 191.428 293.432 Z M 212.384 290.69 L 210.975 290.69 L 205.148 276.741 L 206.566 276.741 Z M 268.152 294.08 L 266.686 294.08 L 266.686 276.998 L 268.152 276.998 Z M 291.557 294.08 L 290.091 294.08 L 290.091 276.998 L 291.557 276.998 Z" style="fill: rgb(255, 255, 255); white-space: pre;"/>
      <path d="M 153.902 296.241 L 148.065 310.19 L 146.666 310.19 L 152.474 296.241 Z M 177.307 296.241 L 171.47 310.19 L 170.07 310.19 L 175.878 296.241 Z M 191.428 314.18 L 179.726 314.18 L 179.726 312.932 L 191.428 312.932 Z M 200.682 310.19 L 199.272 310.19 L 193.445 296.241 L 194.864 296.241 Z M 224.086 310.19 L 222.677 310.19 L 216.85 296.241 L 218.269 296.241 Z M 249.929 314.18 L 238.227 314.18 L 238.227 312.932 L 249.929 312.932 Z M 261.631 314.18 L 249.929 314.18 L 249.929 312.932 L 261.631 312.932 Z M 268.152 313.58 L 266.686 313.58 L 266.686 296.498 L 268.152 296.498 Z M 291.557 313.58 L 290.091 313.58 L 290.091 296.498 L 291.557 296.498 Z M 308.43 314.18 L 296.728 314.18 L 296.728 312.932 L 308.43 312.932 Z M 355.229 314.18 L 343.527 314.18 L 343.527 312.932 L 355.229 312.932 Z M 366.931 314.18 L 355.229 314.18 L 355.229 312.932 L 366.931 312.932 Z M 378.633 314.18 L 366.931 314.18 L 366.931 312.932 L 378.633 312.932 Z M 390.336 314.18 L 378.634 314.18 L 378.634 312.932 L 390.336 312.932 Z M 413.73 314.18 L 402.028 314.18 L 402.028 312.932 L 413.73 312.932 Z M 437.134 314.18 L 425.433 314.18 L 425.433 312.932 L 437.134 312.932 Z M 460.539 314.18 L 448.837 314.18 L 448.837 312.932 L 460.539 312.932 Z M 472.242 314.18 L 460.54 314.18 L 460.54 312.932 L 472.242 312.932 Z M 519.04 314.18 L 507.339 314.18 L 507.339 312.932 L 519.04 312.932 Z M 530.743 314.18 L 519.041 314.18 L 519.041 312.932 L 530.743 312.932 Z M 542.445 314.18 L 530.743 314.18 L 530.743 312.932 L 542.445 312.932 Z M 565.839 314.18 L 554.137 314.18 L 554.137 312.932 L 565.839 312.932 Z M 577.542 314.18 L 565.84 314.18 L 565.84 312.932 L 577.542 312.932 Z M 589.244 314.18 L 577.542 314.18 L 577.542 312.932 L 589.244 312.932 Z" style="fill: rgb(255, 255, 255); white-space: pre;"/>
      <path d="M 151.15 333.08 L 149.684 333.08 L 149.684 315.998 L 151.15 315.998 Z M 191.428 333.68 L 179.726 333.68 L 179.726 332.432 L 191.428 332.432 Z M 221.354 333.08 L 219.887 333.08 L 219.887 315.998 L 221.354 315.998 Z M 235.808 315.741 L 229.971 329.69 L 228.571 329.69 L 234.38 315.741 Z M 261.631 333.68 L 249.929 333.68 L 249.929 332.432 L 261.631 332.432 Z M 268.971 318.34 L 267.895 318.34 L 264.934 315.475 L 267.077 315.475 Z M 294.29 329.69 L 292.881 329.69 L 287.054 315.741 L 288.472 315.741 Z M 317.695 329.69 L 316.286 329.69 L 310.458 315.741 L 311.877 315.741 Z M 341.108 315.741 L 335.271 329.69 L 333.871 329.69 L 339.679 315.741 Z M 364.512 315.741 L 358.676 329.69 L 357.276 329.69 L 363.084 315.741 Z M 390.336 333.68 L 378.634 333.68 L 378.634 332.432 L 390.336 332.432 Z M 397.687 318.34 L 396.611 318.34 L 393.65 315.475 L 395.792 315.475 Z M 420.262 333.08 L 418.796 333.08 L 418.796 315.998 L 420.262 315.998 Z M 443.724 318.283 L 443.372 320.949 L 442.61 320.949 L 442.267 318.283 L 442.267 315.998 L 443.724 315.998 Z M 460.539 333.68 L 448.837 333.68 L 448.837 332.432 L 460.539 332.432 Z M 481.496 329.69 L 480.087 329.69 L 474.259 315.741 L 475.678 315.741 Z M 504.92 315.741 L 499.083 329.69 L 497.683 329.69 L 503.491 315.741 Z M 530.743 333.68 L 519.041 333.68 L 519.041 332.432 L 530.743 332.432 Z M 542.445 333.68 L 530.743 333.68 L 530.743 332.432 L 542.445 332.432 Z M 551.718 315.741 L 545.882 329.69 L 544.482 329.69 L 550.29 315.741 Z M 577.542 333.68 L 565.84 333.68 L 565.84 332.432 L 577.542 332.432 Z M 598.509 329.69 L 597.1 329.69 L 591.273 315.741 L 592.691 315.741 Z" style="fill: rgb(255, 255, 255); white-space: pre;"/>
      <path d="M 151.15 352.58 L 149.684 352.58 L 149.684 335.498 L 151.15 335.498 Z M 174.555 352.58 L 173.089 352.58 L 173.089 335.498 L 174.555 335.498 Z M 197.949 352.58 L 196.483 352.58 L 196.483 335.498 L 197.949 335.498 Z M 221.354 352.58 L 219.887 352.58 L 219.887 335.498 L 221.354 335.498 Z M 247.348 350.923 L 246.768 351.742 C 245.352 350.669 244.273 349.422 243.53 348 C 242.788 346.578 242.416 345.077 242.416 343.496 C 242.416 341.903 242.784 340.4 243.521 338.988 C 244.257 337.575 245.339 336.333 246.768 335.26 L 247.348 336.079 C 246.187 337.12 245.35 338.21 244.839 339.35 C 244.328 340.489 244.073 341.865 244.073 343.477 C 244.073 345.147 244.338 346.551 244.868 347.69 C 245.398 348.83 246.225 349.907 247.348 350.923 Z M 261.631 353.18 L 249.929 353.18 L 249.929 351.932 L 261.631 351.932 Z M 268.152 352.58 L 266.686 352.58 L 266.686 335.498 L 268.152 335.498 Z M 291.557 352.58 L 290.091 352.58 L 290.091 335.498 L 291.557 335.498 Z M 305.992 349.19 L 304.583 349.19 L 298.756 335.241 L 300.175 335.241 Z M 331.282 335.498 L 326.902 348.933 L 325.027 348.933 L 320.637 335.498 L 322.275 335.498 L 325.96 347.124 L 329.664 335.498 Z M 352.81 335.241 L 346.973 349.19 L 345.574 349.19 L 351.382 335.241 Z M 376.053 350.923 L 375.472 351.742 C 374.057 350.669 372.978 349.422 372.235 348 C 371.492 346.578 371.121 345.077 371.121 343.496 C 371.121 341.903 371.489 340.4 372.225 338.988 C 372.962 337.575 374.044 336.333 375.472 335.26 L 376.053 336.079 C 374.891 337.12 374.055 338.21 373.544 339.35 C 373.033 340.489 372.778 341.865 372.778 343.477 C 372.778 345.147 373.043 346.551 373.573 347.69 C 374.103 348.83 374.93 349.907 376.053 350.923 Z M 390.336 353.18 L 378.634 353.18 L 378.634 351.932 L 390.336 351.932 Z M 396.868 352.58 L 395.402 352.58 L 395.402 335.498 L 396.868 335.498 Z M 420.262 352.58 L 418.796 352.58 L 418.796 335.498 L 420.262 335.498 Z M 443.667 352.58 L 442.2 352.58 L 442.2 335.498 L 443.667 335.498 Z M 467.072 352.58 L 465.605 352.58 L 465.605 335.498 L 467.072 335.498 Z M 490.465 352.58 L 488.999 352.58 L 488.999 335.498 L 490.465 335.498 Z M 516.46 350.923 L 515.879 351.742 C 514.464 350.669 513.385 349.422 512.642 348 C 511.899 346.578 511.528 345.077 511.528 343.496 C 511.528 341.903 511.896 340.4 512.632 338.988 C 513.369 337.575 514.451 336.333 515.879 335.26 L 516.46 336.079 C 515.298 337.12 514.462 338.21 513.951 339.35 C 513.44 340.489 513.185 341.865 513.185 343.477 C 513.185 345.147 513.45 346.551 513.98 347.69 C 514.51 348.83 515.337 349.907 516.46 350.923 Z M 530.743 353.18 L 519.041 353.18 L 519.041 351.932 L 530.743 351.932 Z M 537.275 352.58 L 535.809 352.58 L 535.809 335.498 L 537.275 335.498 Z M 577.542 353.18 L 565.84 353.18 L 565.84 351.932 L 577.542 351.932 Z M 589.244 353.18 L 577.542 353.18 L 577.542 351.932 L 589.244 351.932 Z M 598.528 335.241 L 592.691 349.19 L 591.292 349.19 L 597.1 335.241 Z" style="fill: rgb(255, 255, 255); white-space: pre;"/>
      <path d="M 153.883 368.69 L 152.474 368.69 L 146.646 354.741 L 148.065 354.741 Z M 168.023 372.68 L 156.321 372.68 L 156.321 371.432 L 168.023 371.432 Z M 174.555 372.08 L 173.089 372.08 L 173.089 354.998 L 174.555 354.998 Z M 197.949 372.08 L 196.483 372.08 L 196.483 354.998 L 197.949 354.998 Z M 214.821 372.68 L 203.12 372.68 L 203.12 371.432 L 214.821 371.432 Z M 224.105 354.741 L 218.269 368.69 L 216.869 368.69 L 222.677 354.741 Z M 235.789 368.69 L 234.38 368.69 L 228.552 354.741 L 229.971 354.741 Z M 249.929 372.68 L 238.227 372.68 L 238.227 371.432 L 249.929 371.432 Z M 261.631 372.68 L 249.929 372.68 L 249.929 371.432 L 261.631 371.432 Z M 267.486 368.69 C 267.156 368.652 266.883 368.516 266.667 368.281 C 266.451 368.046 266.343 367.779 266.343 367.481 C 266.343 367.157 266.448 366.884 266.658 366.662 C 266.867 366.44 267.13 366.329 267.448 366.329 C 267.803 366.329 268.111 366.473 268.371 366.762 C 268.632 367.051 268.762 367.398 268.762 367.805 C 268.762 369.049 268.07 370.02 266.686 370.718 L 266.324 370.033 C 267.099 369.652 267.486 369.204 267.486 368.69 Z M 285.025 372.68 L 273.323 372.68 L 273.323 371.432 L 285.025 371.432 Z M 291.557 372.08 L 290.091 372.08 L 290.091 354.998 L 291.557 354.998 Z M 317.695 368.69 L 316.286 368.69 L 310.458 354.741 L 311.877 354.741 Z M 331.835 372.68 L 320.133 372.68 L 320.133 371.432 L 331.835 371.432 Z M 341.108 354.741 L 335.271 368.69 L 333.871 368.69 L 339.679 354.741 Z M 364.493 368.69 L 363.084 368.69 L 357.257 354.741 L 358.676 354.741 Z M 378.633 372.68 L 366.931 372.68 L 366.931 371.432 L 378.633 371.432 Z M 390.336 372.68 L 378.634 372.68 L 378.634 371.432 L 390.336 371.432 Z M 396.202 368.69 C 395.871 368.652 395.598 368.516 395.383 368.281 C 395.167 368.046 395.059 367.779 395.059 367.481 C 395.059 367.157 395.164 366.884 395.373 366.662 C 395.583 366.44 395.846 366.329 396.163 366.329 C 396.519 366.329 396.827 366.473 397.087 366.762 C 397.347 367.051 397.477 367.398 397.477 367.805 C 397.477 369.049 396.785 370.02 395.402 370.718 L 395.04 370.033 C 395.814 369.652 396.202 369.204 396.202 368.69 Z M 413.73 372.68 L 402.028 372.68 L 402.028 371.432 L 413.73 371.432 Z M 420.262 372.08 L 418.796 372.08 L 418.796 354.998 L 420.262 354.998 Z M 437.134 372.68 L 425.433 372.68 L 425.433 371.432 L 437.134 371.432 Z M 443.667 372.08 L 442.2 372.08 L 442.2 354.998 L 443.667 354.998 Z M 467.072 372.08 L 465.605 372.08 L 465.605 354.998 L 467.072 354.998 Z M 483.933 372.68 L 472.231 372.68 L 472.231 371.432 L 483.933 371.432 Z M 490.465 372.08 L 488.999 372.08 L 488.999 354.998 L 490.465 354.998 Z M 504.901 368.69 L 503.491 368.69 L 497.664 354.741 L 499.083 354.741 Z M 519.04 372.68 L 507.339 372.68 L 507.339 371.432 L 519.04 371.432 Z M 530.743 372.68 L 519.041 372.68 L 519.041 371.432 L 530.743 371.432 Z M 542.445 372.68 L 530.743 372.68 L 530.743 371.432 L 542.445 371.432 Z M 551.699 368.69 L 550.29 368.69 L 544.463 354.741 L 545.882 354.741 Z M 565.839 372.68 L 554.137 372.68 L 554.137 371.432 L 565.839 371.432 Z M 577.542 372.68 L 565.84 372.68 L 565.84 371.432 L 577.542 371.432 Z M 589.244 372.68 L 577.542 372.68 L 577.542 371.432 L 589.244 371.432 Z M 595.776 372.08 L 594.31 372.08 L 594.31 354.998 L 595.776 354.998 Z" style="fill: rgb(255, 255, 255); white-space: pre;"/>
    </g>
  </g>
</svg>