<?xml version="1.0" encoding="utf-8"?>
<svg viewBox="0 0 800 200" xmlns="http://www.w3.org/2000/svg">
  <g transform="matrix(1, 0, 0, 1, 8.40892, -281.391235)">
    <g transform="matrix(0.968147, 0, 0, 0.968147, 46.450527, 8.963289)">
      <path d="M 110.83 282.639 L 99.129 282.639 L 99.129 281.391 L 110.83 281.391 Z M 122.533 282.639 L 110.831 282.639 L 110.831 281.391 L 122.533 281.391 Z M 134.235 282.639 L 122.533 282.639 L 122.533 281.391 L 134.235 281.391 Z M 145.938 282.639 L 134.236 282.639 L 134.236 281.391 L 145.938 281.391 Z M 157.64 282.639 L 145.938 282.639 L 145.938 281.391 L 157.64 281.391 Z M 426.752 282.639 L 415.05 282.639 L 415.05 281.391 L 426.752 281.391 Z" style="fill: rgb(255, 255, 255); white-space: pre;"/>
      <path d="M 93.969 301.539 L 92.502 301.539 L 92.502 284.457 L 93.969 284.457 Z M 134.235 302.139 L 122.533 302.139 L 122.533 300.891 L 134.235 300.891 Z M 145.938 302.139 L 134.236 302.139 L 134.236 300.891 L 145.938 300.891 Z M 166.905 298.149 L 165.496 298.149 L 159.669 284.2 L 161.087 284.2 Z M 409.879 301.539 L 408.413 301.539 L 408.413 284.457 L 409.879 284.457 Z M 433.284 301.539 L 431.818 301.539 L 431.818 284.457 L 433.284 284.457 Z" style="fill: rgb(255, 255, 255); white-space: pre;"/>
      <path d="M 93.969 321.039 L 92.502 321.039 L 92.502 303.957 L 93.969 303.957 Z M 117.363 321.039 L 115.896 321.039 L 115.896 303.957 L 117.363 303.957 Z M 155.203 317.649 L 153.793 317.649 L 147.966 303.7 L 149.385 303.7 Z M 166.924 303.7 L 161.087 317.649 L 159.688 317.649 L 165.496 303.7 Z M 192.736 321.639 L 181.034 321.639 L 181.034 320.391 L 192.736 320.391 Z M 204.439 321.639 L 192.737 321.639 L 192.737 320.391 L 204.439 320.391 Z M 227.844 321.639 L 216.142 321.639 L 216.142 320.391 L 227.844 320.391 Z M 251.237 321.639 L 239.536 321.639 L 239.536 320.391 L 251.237 320.391 Z M 274.642 321.639 L 262.94 321.639 L 262.94 320.391 L 274.642 320.391 Z M 286.345 321.639 L 274.643 321.639 L 274.643 320.391 L 286.345 320.391 Z M 309.75 321.639 L 298.048 321.639 L 298.048 320.391 L 309.75 320.391 Z M 321.441 321.639 L 309.739 321.639 L 309.739 320.391 L 321.441 320.391 Z M 333.143 321.639 L 321.442 321.639 L 321.442 320.391 L 333.143 320.391 Z M 379.953 321.639 L 368.251 321.639 L 368.251 320.391 L 379.953 320.391 Z M 391.645 321.639 L 379.943 321.639 L 379.943 320.391 L 391.645 320.391 Z M 403.347 321.639 L 391.645 321.639 L 391.645 320.391 L 403.347 320.391 Z M 409.879 321.039 L 408.413 321.039 L 408.413 303.957 L 409.879 303.957 Z M 433.284 321.039 L 431.818 321.039 L 431.818 303.957 L 433.284 303.957 Z M 450.157 321.639 L 438.455 321.639 L 438.455 320.391 L 450.157 320.391 Z M 461.848 321.639 L 450.146 321.639 L 450.146 320.391 L 461.848 320.391 Z M 508.658 321.639 L 496.956 321.639 L 496.956 320.391 L 508.658 320.391 Z M 520.36 321.639 L 508.658 321.639 L 508.658 320.391 L 520.36 320.391 Z M 532.052 321.639 L 520.35 321.639 L 520.35 320.391 L 532.052 320.391 Z M 567.159 321.639 L 555.457 321.639 L 555.457 320.391 L 567.159 320.391 Z M 613.958 321.639 L 602.256 321.639 L 602.256 320.391 L 613.958 320.391 Z" style="fill: rgb(255, 255, 255); white-space: pre;"/>
      <path d="M 93.969 340.539 L 92.503 340.539 L 92.503 323.457 L 93.969 323.457 Z M 117.363 340.539 L 115.896 340.539 L 115.896 323.457 L 117.363 323.457 Z M 145.938 341.139 L 134.236 341.139 L 134.236 339.891 L 145.938 339.891 Z M 157.64 341.139 L 145.938 341.139 L 145.938 339.891 L 157.64 339.891 Z M 178.616 323.2 L 172.779 337.149 L 171.379 337.149 L 177.187 323.2 Z M 204.439 341.139 L 192.737 341.139 L 192.737 339.891 L 204.439 339.891 Z M 211.79 325.799 L 210.714 325.799 L 207.753 322.934 L 209.895 322.934 Z M 234.376 340.539 L 232.91 340.539 L 232.91 323.457 L 234.376 323.457 Z M 257.827 325.742 L 257.475 328.408 L 256.713 328.408 L 256.37 325.742 L 256.37 323.457 L 257.827 323.457 Z M 274.642 341.139 L 262.94 341.139 L 262.94 339.891 L 274.642 339.891 Z M 293.696 325.799 L 292.62 325.799 L 289.659 322.934 L 291.801 322.934 Z M 321.441 341.139 L 309.739 341.139 L 309.739 339.891 L 321.441 339.891 Z M 342.408 337.149 L 340.999 337.149 L 335.172 323.2 L 336.591 323.2 Z M 365.832 323.2 L 359.996 337.149 L 358.596 337.149 L 364.404 323.2 Z M 391.645 341.139 L 379.943 341.139 L 379.943 339.891 L 391.645 339.891 Z M 412.612 337.149 L 411.203 337.149 L 405.376 323.2 L 406.794 323.2 Z M 433.341 325.742 L 432.989 328.408 L 432.227 328.408 L 431.884 325.742 L 431.884 323.457 L 433.341 323.457 Z M 450.157 341.139 L 438.455 341.139 L 438.455 339.891 L 450.157 339.891 Z M 471.113 337.149 L 469.704 337.149 L 463.877 323.2 L 465.295 323.2 Z M 494.537 323.2 L 488.7 337.149 L 487.301 337.149 L 493.109 323.2 Z M 520.36 341.139 L 508.658 341.139 L 508.658 339.891 L 520.36 339.891 Z M 541.317 337.149 L 539.907 337.149 L 534.08 323.2 L 535.499 323.2 Z M 550.286 340.539 L 548.82 340.539 L 548.82 323.457 L 550.286 323.457 Z M 573.691 340.539 L 572.225 340.539 L 572.225 323.457 L 573.691 323.457 Z M 597.096 340.539 L 595.63 340.539 L 595.63 323.457 L 597.096 323.457 Z M 620.49 340.539 L 619.024 340.539 L 619.024 323.457 L 620.49 323.457 Z" style="fill: rgb(255, 255, 255); white-space: pre;"/>
      <path d="M 93.969 360.039 L 92.503 360.039 L 92.503 342.957 L 93.969 342.957 Z M 117.363 360.039 L 115.896 360.039 L 115.896 342.957 L 117.363 342.957 Z M 134.235 360.639 L 122.533 360.639 L 122.533 359.391 L 134.235 359.391 Z M 143.5 356.649 L 142.091 356.649 L 136.264 342.7 L 137.683 342.7 Z M 166.905 356.649 L 165.496 356.649 L 159.669 342.7 L 161.087 342.7 Z M 190.156 358.382 L 189.575 359.201 C 188.16 358.128 187.081 356.881 186.338 355.459 C 185.595 354.037 185.224 352.536 185.224 350.955 C 185.224 349.362 185.592 347.859 186.328 346.447 C 187.065 345.034 188.147 343.792 189.575 342.719 L 190.156 343.538 C 188.994 344.579 188.158 345.669 187.647 346.809 C 187.136 347.948 186.881 349.324 186.881 350.936 C 186.881 352.606 187.146 354.01 187.676 355.149 C 188.206 356.289 189.033 357.366 190.156 358.382 Z M 204.439 360.639 L 192.737 360.639 L 192.737 359.391 L 204.439 359.391 Z M 210.971 360.039 L 209.505 360.039 L 209.505 342.957 L 210.971 342.957 Z M 234.376 360.039 L 232.91 360.039 L 232.91 342.957 L 234.376 342.957 Z M 257.77 360.039 L 256.303 360.039 L 256.303 342.957 L 257.77 342.957 Z M 281.175 360.039 L 279.708 360.039 L 279.708 342.957 L 281.175 342.957 Z M 304.579 360.039 L 303.113 360.039 L 303.113 342.957 L 304.579 342.957 Z M 327.973 360.039 L 326.507 360.039 L 326.507 342.957 L 327.973 342.957 Z M 351.378 360.039 L 349.912 360.039 L 349.912 342.957 L 351.378 342.957 Z M 391.645 360.639 L 379.943 360.639 L 379.943 359.391 L 391.645 359.391 Z M 403.347 360.639 L 391.645 360.639 L 391.645 359.391 L 403.347 359.391 Z M 412.631 342.7 L 406.794 356.649 L 405.395 356.649 L 411.203 342.7 Z M 433.284 360.039 L 431.818 360.039 L 431.818 342.957 L 433.284 342.957 Z M 450.157 360.639 L 438.455 360.639 L 438.455 359.391 L 450.157 359.391 Z M 453.307 342.719 C 454.729 343.792 455.808 345.034 456.545 346.447 C 457.281 347.859 457.649 349.362 457.649 350.955 C 457.649 352.536 457.279 354.037 456.54 355.459 C 455.8 356.881 454.723 358.128 453.307 359.201 L 452.717 358.382 C 453.879 357.354 454.715 356.26 455.226 355.102 C 455.737 353.943 455.992 352.555 455.992 350.936 C 455.992 349.267 455.729 347.87 455.202 346.747 C 454.675 345.623 453.847 344.554 452.717 343.538 Z M 480.083 360.039 L 478.617 360.039 L 478.617 342.957 L 480.083 342.957 Z M 506.077 358.382 L 505.497 359.201 C 504.081 358.128 503.002 356.881 502.259 355.459 C 501.517 354.037 501.145 352.536 501.145 350.955 C 501.145 349.362 501.514 347.859 502.25 346.447 C 502.986 345.034 504.068 343.792 505.497 342.719 L 506.077 343.538 C 504.916 344.579 504.08 345.669 503.569 346.809 C 503.058 347.948 502.802 349.324 502.802 350.936 C 502.802 352.606 503.067 354.01 503.597 355.149 C 504.127 356.289 504.954 357.366 506.077 358.382 Z M 520.36 360.639 L 508.658 360.639 L 508.658 359.391 L 520.36 359.391 Z M 523.511 342.719 C 524.933 343.792 526.012 345.034 526.748 346.447 C 527.485 347.859 527.853 349.362 527.853 350.955 C 527.853 352.536 527.483 354.037 526.744 355.459 C 526.004 356.881 524.927 358.128 523.511 359.201 L 522.921 358.382 C 524.082 357.354 524.919 356.26 525.43 355.102 C 525.941 353.943 526.196 352.555 526.196 350.936 C 526.196 349.267 525.933 347.87 525.406 346.747 C 524.879 345.623 524.051 344.554 522.921 343.538 Z M 550.286 360.039 L 548.82 360.039 L 548.82 342.957 L 550.286 342.957 Z M 573.691 360.039 L 572.225 360.039 L 572.225 342.957 L 573.691 342.957 Z M 590.564 360.639 L 578.862 360.639 L 578.862 359.391 L 590.564 359.391 Z M 597.096 360.039 L 595.63 360.039 L 595.63 342.957 L 597.096 342.957 Z M 620.49 360.039 L 619.024 360.039 L 619.024 342.957 L 620.49 342.957 Z" style="fill: rgb(255, 255, 255); white-space: pre;"/>
      <path d="M 108.393 376.149 L 106.984 376.149 L 101.157 362.2 L 102.575 362.2 Z M 122.533 380.139 L 110.831 380.139 L 110.831 378.891 L 122.533 378.891 Z M 134.235 380.139 L 122.533 380.139 L 122.533 378.891 L 134.235 378.891 Z M 145.938 380.139 L 134.236 380.139 L 134.236 378.891 L 145.938 378.891 Z M 157.64 380.139 L 145.938 380.139 L 145.938 378.891 L 157.64 378.891 Z M 166.924 362.2 L 161.087 376.149 L 159.688 376.149 L 165.496 362.2 Z M 178.597 376.149 L 177.187 376.149 L 171.36 362.2 L 172.779 362.2 Z M 192.736 380.139 L 181.035 380.139 L 181.035 378.891 L 192.736 378.891 Z M 204.439 380.139 L 192.737 380.139 L 192.737 378.891 L 204.439 378.891 Z M 210.305 376.149 C 209.975 376.111 209.702 375.975 209.486 375.74 C 209.27 375.505 209.162 375.238 209.162 374.94 C 209.162 374.616 209.267 374.343 209.476 374.121 C 209.686 373.899 209.949 373.788 210.266 373.788 C 210.622 373.788 210.93 373.932 211.19 374.221 C 211.45 374.51 211.58 374.857 211.58 375.264 C 211.58 376.508 210.889 377.479 209.505 378.177 L 209.143 377.492 C 209.917 377.111 210.305 376.663 210.305 376.149 Z M 227.844 380.139 L 216.142 380.139 L 216.142 378.891 L 227.844 378.891 Z M 234.376 379.539 L 232.91 379.539 L 232.91 362.457 L 234.376 362.457 Z M 251.238 380.139 L 239.536 380.139 L 239.536 378.891 L 251.238 378.891 Z M 257.77 379.539 L 256.303 379.539 L 256.303 362.457 L 257.77 362.457 Z M 281.175 379.539 L 279.708 379.539 L 279.708 362.457 L 281.175 362.457 Z M 298.047 380.139 L 286.345 380.139 L 286.345 378.891 L 298.047 378.891 Z M 304.579 379.539 L 303.113 379.539 L 303.113 362.457 L 304.579 362.457 Z M 327.973 379.539 L 326.507 379.539 L 326.507 362.457 L 327.973 362.457 Z M 344.846 380.139 L 333.144 380.139 L 333.144 378.891 L 344.846 378.891 Z M 351.378 379.539 L 349.912 379.539 L 349.912 362.457 L 351.378 362.457 Z M 365.813 376.149 L 364.404 376.149 L 358.577 362.2 L 359.996 362.2 Z M 379.953 380.139 L 368.251 380.139 L 368.251 378.891 L 379.953 378.891 Z M 391.645 380.139 L 379.943 380.139 L 379.943 378.891 L 391.645 378.891 Z M 403.347 380.139 L 391.645 380.139 L 391.645 378.891 L 403.347 378.891 Z M 409.879 379.539 L 408.413 379.539 L 408.413 362.457 L 409.879 362.457 Z M 426.752 380.139 L 415.05 380.139 L 415.05 378.891 L 426.752 378.891 Z M 432.541 373.712 C 432.878 373.712 433.16 373.826 433.389 374.054 C 433.617 374.283 433.732 374.565 433.732 374.902 C 433.732 375.245 433.616 375.538 433.384 375.783 C 433.152 376.027 432.872 376.149 432.541 376.149 C 432.218 376.149 431.942 376.027 431.713 375.783 C 431.485 375.538 431.37 375.245 431.37 374.902 C 431.37 374.559 431.483 374.275 431.708 374.05 C 431.934 373.824 432.211 373.712 432.541 373.712 Z M 450.157 380.139 L 438.455 380.139 L 438.455 378.891 L 450.157 378.891 Z M 461.848 380.139 L 450.146 380.139 L 450.146 378.891 L 461.848 378.891 Z M 471.132 362.2 L 465.295 376.149 L 463.896 376.149 L 469.704 362.2 Z M 494.518 376.149 L 493.109 376.149 L 487.282 362.2 L 488.7 362.2 Z M 508.658 380.139 L 496.956 380.139 L 496.956 378.891 L 508.658 378.891 Z M 520.36 380.139 L 508.658 380.139 L 508.658 378.891 L 520.36 378.891 Z M 532.052 380.139 L 520.35 380.139 L 520.35 378.891 L 532.052 378.891 Z M 541.336 362.2 L 535.499 376.149 L 534.099 376.149 L 539.907 362.2 Z M 564.721 376.149 L 563.312 376.149 L 557.485 362.2 L 558.904 362.2 Z M 578.861 380.139 L 567.159 380.139 L 567.159 378.891 L 578.861 378.891 Z M 590.564 380.139 L 578.862 380.139 L 578.862 378.891 L 590.564 378.891 Z M 596.43 376.149 C 596.099 376.111 595.826 375.975 595.611 375.74 C 595.395 375.505 595.287 375.238 595.287 374.94 C 595.287 374.616 595.392 374.343 595.601 374.121 C 595.811 373.899 596.074 373.788 596.391 373.788 C 596.747 373.788 597.055 373.932 597.315 374.221 C 597.575 374.51 597.705 374.857 597.705 375.264 C 597.705 376.508 597.013 377.479 595.63 378.177 L 595.268 377.492 C 596.042 377.111 596.43 376.663 596.43 376.149 Z M 620.49 379.539 L 619.024 379.539 L 619.024 362.457 L 620.49 362.457 Z" style="fill: rgb(255, 255, 255); white-space: pre;"/>
      <path d="M 578.861 399.639 L 567.159 399.639 L 567.159 398.391 L 578.861 398.391 Z M 590.564 399.639 L 578.862 399.639 L 578.862 398.391 L 590.564 398.391 Z M 599.848 381.7 L 594.011 395.649 L 592.611 395.649 L 598.419 381.7 Z M 620.49 399.039 L 619.024 399.039 L 619.024 381.957 L 620.49 381.957 Z" style="fill: rgb(255, 255, 255); white-space: pre;"/>
      <path d="M 561.989 418.539 L 560.522 418.539 L 560.522 401.457 L 561.989 401.457 Z M 578.861 419.139 L 567.159 419.139 L 567.159 417.891 L 578.861 417.891 Z M 590.564 419.139 L 578.862 419.139 L 578.862 417.891 L 590.564 417.891 Z M 602.266 419.139 L 590.564 419.139 L 590.564 417.891 L 602.266 417.891 Z M 611.539 401.2 L 605.703 415.149 L 604.303 415.149 L 610.111 401.2 Z" style="fill: rgb(255, 255, 255); white-space: pre;"/>
    </g>
    <g transform="matrix(0.968147, 0, 0, 0.968147, 127.207962, -37.670078)">
      <path d="M 145.938 438.639 L 134.236 438.639 L 134.236 437.391 L 145.938 437.391 Z M 157.64 438.639 L 145.938 438.639 L 145.938 437.391 L 157.64 437.391 Z M 169.343 438.639 L 157.641 438.639 L 157.641 437.391 L 169.343 437.391 Z M 181.034 438.639 L 169.332 438.639 L 169.332 437.391 L 181.034 437.391 Z M 192.736 438.639 L 181.035 438.639 L 181.035 437.391 L 192.736 437.391 Z M 286.345 438.639 L 274.643 438.639 L 274.643 437.391 L 286.345 437.391 Z" style="fill: rgb(255, 255, 255); white-space: pre;"/>
      <path d="M 131.817 440.2 L 125.98 454.149 L 124.581 454.149 L 130.389 440.2 Z M 169.343 458.139 L 157.641 458.139 L 157.641 456.891 L 169.343 456.891 Z M 181.034 458.139 L 169.332 458.139 L 169.332 456.891 L 181.034 456.891 Z M 202.001 454.149 L 200.592 454.149 L 194.765 440.2 L 196.184 440.2 Z M 269.472 457.539 L 268.006 457.539 L 268.006 440.457 L 269.472 440.457 Z M 292.877 457.539 L 291.411 457.539 L 291.411 440.457 L 292.877 440.457 Z" style="fill: rgb(255, 255, 255); white-space: pre;"/>
      <path d="M 129.065 477.039 L 127.599 477.039 L 127.599 459.957 L 129.065 459.957 Z M 155.222 459.7 L 149.385 473.649 L 147.985 473.649 L 153.793 459.7 Z M 190.299 473.649 L 188.89 473.649 L 183.063 459.7 L 184.481 459.7 Z M 202.02 459.7 L 196.184 473.649 L 194.784 473.649 L 200.592 459.7 Z M 227.844 477.639 L 216.142 477.639 L 216.142 476.391 L 227.844 476.391 Z M 239.546 477.639 L 227.844 477.639 L 227.844 476.391 L 239.546 476.391 Z M 251.238 477.639 L 239.536 477.639 L 239.536 476.391 L 251.238 476.391 Z M 269.472 477.039 L 268.006 477.039 L 268.006 459.957 L 269.472 459.957 Z M 292.877 477.039 L 291.411 477.039 L 291.411 459.957 L 292.877 459.957 Z M 321.441 477.639 L 309.739 477.639 L 309.739 476.391 L 321.441 476.391 Z M 333.144 477.639 L 321.442 477.639 L 321.442 476.391 L 333.144 476.391 Z M 344.846 477.639 L 333.144 477.639 L 333.144 476.391 L 344.846 476.391 Z M 379.953 477.639 L 368.251 477.639 L 368.251 476.391 L 379.953 476.391 Z M 403.347 477.639 L 391.645 477.639 L 391.645 476.391 L 403.347 476.391 Z M 415.049 477.639 L 403.348 477.639 L 403.348 476.391 L 415.049 476.391 Z" style="fill: rgb(255, 255, 255); white-space: pre;"/>
      <path d="M 129.065 496.539 L 127.599 496.539 L 127.599 479.457 L 129.065 479.457 Z M 152.47 496.539 L 151.004 496.539 L 151.004 479.457 L 152.47 479.457 Z M 213.723 479.2 L 207.886 493.149 L 206.486 493.149 L 212.295 479.2 Z M 239.546 497.139 L 227.844 497.139 L 227.844 495.891 L 239.546 495.891 Z M 260.502 493.149 L 259.093 493.149 L 253.266 479.2 L 254.685 479.2 Z M 269.472 496.539 L 268.006 496.539 L 268.006 479.457 L 269.472 479.457 Z M 292.877 496.539 L 291.411 496.539 L 291.411 479.457 L 292.877 479.457 Z M 307.331 479.2 L 301.494 493.149 L 300.095 493.149 L 305.903 479.2 Z M 333.144 497.139 L 321.442 497.139 L 321.442 495.891 L 333.144 495.891 Z M 354.111 493.149 L 352.702 493.149 L 346.875 479.2 L 348.293 479.2 Z M 363.081 496.539 L 361.614 496.539 L 361.614 479.457 L 363.081 479.457 Z M 386.532 481.742 L 386.179 484.408 L 385.418 484.408 L 385.075 481.742 L 385.075 479.457 L 386.532 479.457 Z M 403.347 497.139 L 391.645 497.139 L 391.645 495.891 L 403.347 495.891 Z M 415.049 497.139 L 403.348 497.139 L 403.348 495.891 L 415.049 495.891 Z M 421.582 496.539 L 420.115 496.539 L 420.115 479.457 L 421.582 479.457 Z" style="fill: rgb(255, 255, 255); white-space: pre;"/>
      <path d="M 129.065 516.039 L 127.599 516.039 L 127.599 498.957 L 129.065 498.957 Z M 155.203 512.649 L 153.793 512.649 L 147.966 498.7 L 149.385 498.7 Z M 169.343 516.639 L 157.641 516.639 L 157.641 515.391 L 169.343 515.391 Z M 181.034 516.639 L 169.332 516.639 L 169.332 515.391 L 181.034 515.391 Z M 190.318 498.7 L 184.481 512.649 L 183.082 512.649 L 188.89 498.7 Z M 202.001 512.649 L 200.592 512.649 L 194.765 498.7 L 196.184 498.7 Z M 225.263 514.382 L 224.683 515.201 C 223.267 514.128 222.188 512.881 221.445 511.459 C 220.703 510.037 220.331 508.536 220.331 506.955 C 220.331 505.362 220.699 503.859 221.436 502.447 C 222.172 501.034 223.254 499.792 224.683 498.719 L 225.263 499.538 C 224.102 500.579 223.265 501.669 222.754 502.809 C 222.243 503.948 221.988 505.324 221.988 506.936 C 221.988 508.606 222.253 510.01 222.783 511.149 C 223.313 512.289 224.14 513.366 225.263 514.382 Z M 239.546 516.639 L 227.844 516.639 L 227.844 515.391 L 239.546 515.391 Z M 242.697 498.719 C 244.119 499.792 245.198 501.034 245.934 502.447 C 246.67 503.859 247.039 505.362 247.039 506.955 C 247.039 508.536 246.669 510.037 245.929 511.459 C 245.19 512.881 244.112 514.128 242.697 515.201 L 242.106 514.382 C 243.268 513.354 244.104 512.26 244.615 511.102 C 245.126 509.943 245.382 508.555 245.382 506.936 C 245.382 505.267 245.118 503.87 244.592 502.747 C 244.065 501.623 243.236 500.554 242.106 499.538 Z M 269.472 516.039 L 268.006 516.039 L 268.006 498.957 L 269.472 498.957 Z M 292.877 516.039 L 291.411 516.039 L 291.411 498.957 L 292.877 498.957 Z M 318.861 514.382 L 318.28 515.201 C 316.864 514.128 315.785 512.881 315.043 511.459 C 314.3 510.037 313.929 508.536 313.929 506.955 C 313.929 505.362 314.297 503.859 315.033 502.447 C 315.769 501.034 316.852 499.792 318.28 498.719 L 318.861 499.538 C 317.699 500.579 316.863 501.669 316.352 502.809 C 315.841 503.948 315.585 505.324 315.585 506.936 C 315.585 508.606 315.85 510.01 316.38 511.149 C 316.91 512.289 317.737 513.366 318.861 514.382 Z M 333.144 516.639 L 321.442 516.639 L 321.442 515.391 L 333.144 515.391 Z M 336.305 498.719 C 337.727 499.792 338.806 501.034 339.542 502.447 C 340.279 503.859 340.647 505.362 340.647 506.955 C 340.647 508.536 340.277 510.037 339.538 511.459 C 338.798 512.881 337.721 514.128 336.305 515.201 L 335.715 514.382 C 336.876 513.354 337.713 512.26 338.224 511.102 C 338.735 509.943 338.99 508.555 338.99 506.936 C 338.99 505.267 338.727 503.87 338.2 502.747 C 337.673 501.623 336.845 500.554 335.715 499.538 Z M 363.081 516.039 L 361.614 516.039 L 361.614 498.957 L 363.081 498.957 Z M 386.474 516.039 L 385.008 516.039 L 385.008 498.957 L 386.474 498.957 Z" style="fill: rgb(255, 255, 255); white-space: pre;"/>
      <path d="M 143.5 532.149 L 142.091 532.149 L 136.264 518.2 L 137.683 518.2 Z M 157.64 536.139 L 145.938 536.139 L 145.938 534.891 L 157.64 534.891 Z M 169.343 536.139 L 157.641 536.139 L 157.641 534.891 L 169.343 534.891 Z M 181.034 536.139 L 169.332 536.139 L 169.332 534.891 L 181.034 534.891 Z M 192.736 536.139 L 181.035 536.139 L 181.035 534.891 L 192.736 534.891 Z M 202.02 518.2 L 196.184 532.149 L 194.784 532.149 L 200.592 518.2 Z M 213.704 532.149 L 212.295 532.149 L 206.467 518.2 L 207.886 518.2 Z M 227.844 536.139 L 216.142 536.139 L 216.142 534.891 L 227.844 534.891 Z M 239.546 536.139 L 227.844 536.139 L 227.844 534.891 L 239.546 534.891 Z M 251.238 536.139 L 239.536 536.139 L 239.536 534.891 L 251.238 534.891 Z M 260.522 518.2 L 254.685 532.149 L 253.285 532.149 L 259.093 518.2 Z M 269.472 535.539 L 268.006 535.539 L 268.006 518.457 L 269.472 518.457 Z M 286.345 536.139 L 274.643 536.139 L 274.643 534.891 L 286.345 534.891 Z M 292.877 535.539 L 291.411 535.539 L 291.411 518.457 L 292.877 518.457 Z M 307.312 532.149 L 305.903 532.149 L 300.076 518.2 L 301.494 518.2 Z M 321.441 536.139 L 309.739 536.139 L 309.739 534.891 L 321.441 534.891 Z M 333.144 536.139 L 321.442 536.139 L 321.442 534.891 L 333.144 534.891 Z M 344.846 536.139 L 333.144 536.139 L 333.144 534.891 L 344.846 534.891 Z M 354.13 518.2 L 348.293 532.149 L 346.894 532.149 L 352.702 518.2 Z M 363.081 535.539 L 361.614 535.539 L 361.614 518.457 L 363.081 518.457 Z M 379.953 536.139 L 368.251 536.139 L 368.251 534.891 L 379.953 534.891 Z M 386.474 535.539 L 385.008 535.539 L 385.008 518.457 L 386.474 518.457 Z" style="fill: rgb(255, 255, 255); white-space: pre;"/>
    </g>
  </g>
</svg>