<?xml version="1.0" encoding="utf-8"?>
<svg viewBox="0 0 800 200" xmlns="http://www.w3.org/2000/svg">
  <g transform="matrix(0.416365, 0, 0, 0.416365, 109.677643, -89.501656)">
    <path d="M 24.486 313.638 L 0.002 313.638 L 0.002 311.029 L 24.486 311.029 Z M 48.961 313.638 L 24.477 313.638 L 24.477 311.029 L 48.961 311.029 Z M 73.436 313.638 L 48.952 313.638 L 48.952 311.029 L 73.436 311.029 Z M 97.911 313.638 L 73.427 313.638 L 73.427 311.029 L 97.911 311.029 Z M 122.409 313.638 L 97.925 313.638 L 97.925 311.029 L 122.409 311.029 Z M 636.48 313.638 L 611.996 313.638 L 611.996 311.029 L 636.48 311.029 Z M 660.955 313.638 L 636.471 313.638 L 636.471 311.029 L 660.955 311.029 Z M 685.453 313.638 L 660.969 313.638 L 660.969 311.029 L 685.453 311.029 Z M 709.929 313.638 L 685.445 313.638 L 685.445 311.029 L 709.929 311.029 Z M 734.404 313.638 L 709.92 313.638 L 709.92 311.029 L 734.404 311.029 Z M 1297.448 313.638 L 1272.964 313.638 L 1272.964 311.029 L 1297.448 311.029 Z" style="white-space: pre; fill: rgb(255, 255, 255);"/>
    <path d="M -5.05 316.906 L -17.262 346.091 L -20.19 346.091 L -8.038 316.906 Z M 73.436 354.438 L 48.952 354.438 L 48.952 351.829 L 73.436 351.829 Z M 97.911 354.438 L 73.427 354.438 L 73.427 351.829 L 97.911 351.829 Z M 122.409 354.438 L 97.925 354.438 L 97.925 351.829 L 122.409 351.829 Z M 136.067 353.183 L 132.999 353.183 L 132.999 317.443 L 136.067 317.443 Z M 601.187 353.183 L 598.119 353.183 L 598.119 317.443 L 601.187 317.443 Z M 685.453 354.438 L 660.969 354.438 L 660.969 351.829 L 685.453 351.829 Z M 709.929 354.438 L 685.445 354.438 L 685.445 351.829 L 709.929 351.829 Z M 753.779 346.091 L 750.831 346.091 L 738.639 316.906 L 741.607 316.906 Z M 1267.574 349.717 L 1266.359 351.43 C 1263.397 349.186 1261.139 346.576 1259.585 343.601 C 1258.031 340.626 1257.254 337.485 1257.254 334.178 C 1257.254 330.844 1258.025 327.7 1259.565 324.745 C 1261.106 321.79 1263.37 319.19 1266.359 316.945 L 1267.574 318.659 C 1265.143 320.837 1263.394 323.118 1262.324 325.502 C 1261.255 327.886 1260.721 330.765 1260.721 334.138 C 1260.721 337.631 1261.275 340.569 1262.384 342.953 C 1263.493 345.337 1265.223 347.592 1267.574 349.717 Z M 1297.448 354.438 L 1272.964 354.438 L 1272.964 351.829 L 1297.448 351.829 Z M 1304.076 316.945 C 1307.051 319.19 1309.309 321.79 1310.849 324.745 C 1312.39 327.7 1313.16 330.844 1313.16 334.178 C 1313.16 337.485 1312.387 340.626 1310.839 343.601 C 1309.292 346.576 1307.038 349.186 1304.076 351.43 L 1302.841 349.717 C 1305.271 347.565 1307.021 345.278 1308.09 342.854 C 1309.159 340.43 1309.694 337.525 1309.694 334.138 C 1309.694 330.645 1309.143 327.723 1308.04 325.372 C 1306.938 323.022 1305.205 320.784 1302.841 318.659 Z" style="white-space: pre; fill: rgb(255, 255, 255);"/>
    <path d="M -5.089 386.891 L -8.038 386.891 L -20.23 357.706 L -17.262 357.706 Z M 39.857 363.144 L 37.606 363.144 L 31.41 357.148 L 35.892 357.148 Z M 66.902 376.651 L 55.068 376.651 L 55.068 373.623 L 66.902 373.623 Z M 91.377 376.651 L 79.543 376.651 L 79.543 373.623 L 91.377 373.623 Z M 110.038 381.791 C 110.742 381.791 111.333 382.03 111.811 382.508 C 112.289 382.986 112.528 383.577 112.528 384.281 C 112.528 384.999 112.286 385.613 111.801 386.124 C 111.316 386.635 110.729 386.891 110.038 386.891 C 109.361 386.891 108.783 386.635 108.305 386.124 C 107.827 385.613 107.588 384.999 107.588 384.281 C 107.588 383.564 107.823 382.97 108.295 382.498 C 108.766 382.027 109.347 381.791 110.038 381.791 Z M 195.835 395.238 L 171.351 395.238 L 171.351 392.629 L 195.835 392.629 Z M 220.31 395.238 L 195.826 395.238 L 195.826 392.629 L 220.31 392.629 Z M 244.808 395.238 L 220.324 395.238 L 220.324 392.629 L 244.808 392.629 Z M 318.234 395.238 L 293.75 395.238 L 293.75 392.629 L 318.234 392.629 Z M 342.732 395.238 L 318.248 395.238 L 318.248 392.629 L 342.732 392.629 Z M 391.682 395.238 L 367.198 395.238 L 367.198 392.629 L 391.682 392.629 Z M 465.131 395.238 L 440.647 395.238 L 440.647 392.629 L 465.131 392.629 Z M 489.606 395.238 L 465.122 395.238 L 465.122 392.629 L 489.606 392.629 Z M 538.556 395.238 L 514.073 395.238 L 514.073 392.629 L 538.556 392.629 Z M 601.187 393.983 L 598.119 393.983 L 598.119 358.243 L 601.187 358.243 Z M 650.138 393.983 L 647.07 393.983 L 647.07 358.243 L 650.138 358.243 Z M 729.304 386.891 L 726.355 386.891 L 714.163 357.706 L 717.132 357.706 Z M 753.819 357.706 L 741.607 386.891 L 738.678 386.891 L 750.831 357.706 Z M 807.852 395.238 L 783.368 395.238 L 783.368 392.629 L 807.852 392.629 Z M 832.327 395.238 L 807.844 395.238 L 807.844 392.629 L 832.327 392.629 Z M 856.803 395.238 L 832.319 395.238 L 832.319 392.629 L 856.803 392.629 Z M 905.776 395.238 L 881.292 395.238 L 881.292 392.629 L 905.776 392.629 Z M 954.726 395.238 L 930.242 395.238 L 930.242 392.629 L 954.726 392.629 Z M 979.202 395.238 L 954.718 395.238 L 954.718 392.629 L 979.202 392.629 Z M 1077.125 395.238 L 1052.641 395.238 L 1052.641 392.629 L 1077.125 392.629 Z M 1101.623 395.238 L 1077.139 395.238 L 1077.139 392.629 L 1101.623 392.629 Z M 1126.098 395.238 L 1101.615 395.238 L 1101.615 392.629 L 1126.098 392.629 Z M 1199.524 395.238 L 1175.04 395.238 L 1175.04 392.629 L 1199.524 392.629 Z M 1224.022 395.238 L 1199.538 395.238 L 1199.538 392.629 L 1224.022 392.629 Z M 1248.497 395.238 L 1224.013 395.238 L 1224.013 392.629 L 1248.497 392.629 Z M 1297.448 395.238 L 1272.964 395.238 L 1272.964 392.629 L 1297.448 392.629 Z M 1346.421 395.238 L 1321.937 395.238 L 1321.937 392.629 L 1346.421 392.629 Z M 1370.896 395.238 L 1346.412 395.238 L 1346.412 392.629 L 1370.896 392.629 Z M 1395.372 395.238 L 1370.888 395.238 L 1370.888 392.629 L 1395.372 392.629 Z" style="white-space: pre; fill: rgb(255, 255, 255);"/>
    <path d="M 15.381 403.944 L 13.13 403.944 L 6.935 397.948 L 11.417 397.948 Z M 42.427 417.451 L 30.593 417.451 L 30.593 414.423 L 42.427 414.423 Z M 66.902 417.451 L 55.068 417.451 L 55.068 414.423 L 66.902 414.423 Z M 85.54 422.591 C 86.244 422.591 86.835 422.83 87.313 423.308 C 87.791 423.786 88.03 424.377 88.03 425.081 C 88.03 425.799 87.788 426.413 87.303 426.924 C 86.818 427.435 86.231 427.691 85.54 427.691 C 84.863 427.691 84.285 427.435 83.807 426.924 C 83.329 426.413 83.09 425.799 83.09 425.081 C 83.09 424.364 83.325 423.77 83.797 423.298 C 84.268 422.827 84.849 422.591 85.54 422.591 Z M 141.785 427.691 L 138.836 427.691 L 126.644 398.506 L 129.612 398.506 Z M 166.3 398.506 L 154.088 427.691 L 151.159 427.691 L 163.311 398.506 Z M 220.31 436.038 L 195.826 436.038 L 195.826 433.429 L 220.31 433.429 Z M 264.184 427.691 L 261.235 427.691 L 249.043 398.506 L 252.011 398.506 Z M 288.699 398.506 L 276.486 427.691 L 273.558 427.691 L 285.71 398.506 Z M 342.732 436.038 L 318.248 436.038 L 318.248 433.429 L 342.732 433.429 Z M 358.103 403.944 L 355.852 403.944 L 349.656 397.948 L 354.138 397.948 Z M 405.34 434.783 L 402.272 434.783 L 402.272 399.043 L 405.34 399.043 Z M 435.573 398.506 L 423.361 427.691 L 420.432 427.691 L 432.584 398.506 Z M 489.606 436.038 L 465.122 436.038 L 465.122 433.429 L 489.606 433.429 Z M 504.977 403.944 L 502.726 403.944 L 496.53 397.948 L 501.013 397.948 Z M 552.237 434.783 L 549.169 434.783 L 549.169 399.043 L 552.237 399.043 Z M 601.187 434.783 L 598.119 434.783 L 598.119 399.043 L 601.187 399.043 Z M 650.138 434.783 L 647.07 434.783 L 647.07 399.043 L 650.138 399.043 Z M 709.929 436.038 L 685.445 436.038 L 685.445 433.429 L 709.929 433.429 Z M 734.404 436.038 L 709.92 436.038 L 709.92 433.429 L 734.404 433.429 Z M 778.317 398.506 L 766.105 427.691 L 763.176 427.691 L 775.329 398.506 Z M 832.327 436.038 L 807.844 436.038 L 807.844 433.429 L 832.327 433.429 Z M 876.201 427.691 L 873.252 427.691 L 861.06 398.506 L 864.028 398.506 Z M 919.553 403.825 L 918.816 409.403 L 917.222 409.403 L 916.505 403.825 L 916.505 399.043 L 919.553 399.043 Z M 954.726 436.038 L 930.242 436.038 L 930.242 433.429 L 954.726 433.429 Z M 998.6 427.691 L 995.651 427.691 L 983.459 398.506 L 986.427 398.506 Z M 1047.59 398.506 L 1035.378 427.691 L 1032.449 427.691 L 1044.602 398.506 Z M 1101.623 436.038 L 1077.139 436.038 L 1077.139 433.429 L 1101.623 433.429 Z M 1145.474 427.691 L 1142.525 427.691 L 1130.333 398.506 L 1133.301 398.506 Z M 1169.989 398.506 L 1157.777 427.691 L 1154.848 427.691 L 1167 398.506 Z M 1224.022 436.038 L 1199.538 436.038 L 1199.538 433.429 L 1224.022 433.429 Z M 1248.497 436.038 L 1224.013 436.038 L 1224.013 433.429 L 1248.497 433.429 Z M 1262.155 434.783 L 1259.087 434.783 L 1259.087 399.043 L 1262.155 399.043 Z M 1316.886 398.506 L 1304.674 427.691 L 1301.745 427.691 L 1313.897 398.506 Z M 1370.896 436.038 L 1346.412 436.038 L 1346.412 433.429 L 1370.896 433.429 Z M 1395.372 436.038 L 1370.888 436.038 L 1370.888 433.429 L 1395.372 433.429 Z M 1409.029 434.783 L 1405.961 434.783 L 1405.961 399.043 L 1409.029 399.043 Z" style="white-space: pre; fill: rgb(255, 255, 255);"/>
    <path d="M -5.05 439.306 L -17.262 468.491 L -20.19 468.491 L -8.038 439.306 Z M 19.386 468.491 L 16.437 468.491 L 4.245 439.306 L 7.213 439.306 Z M 48.961 476.838 L 24.477 476.838 L 24.477 474.229 L 48.961 474.229 Z M 73.436 476.838 L 48.952 476.838 L 48.952 474.229 L 73.436 474.229 Z M 92.851 439.306 L 80.639 468.491 L 77.711 468.491 L 89.863 439.306 Z M 141.825 439.306 L 129.612 468.491 L 126.684 468.491 L 138.836 439.306 Z M 220.31 476.838 L 195.826 476.838 L 195.826 474.229 L 220.31 474.229 Z M 244.808 476.838 L 220.324 476.838 L 220.324 474.229 L 244.808 474.229 Z M 264.223 439.306 L 252.011 468.491 L 249.083 468.491 L 261.235 439.306 Z M 312.835 472.117 L 311.62 473.83 C 308.658 471.586 306.4 468.976 304.846 466.001 C 303.293 463.026 302.516 459.885 302.516 456.578 C 302.516 453.244 303.286 450.1 304.827 447.145 C 306.367 444.19 308.632 441.59 311.62 439.345 L 312.835 441.059 C 310.405 443.237 308.655 445.518 307.586 447.902 C 306.517 450.286 305.982 453.165 305.982 456.538 C 305.982 460.031 306.537 462.969 307.646 465.353 C 308.754 467.737 310.484 469.992 312.835 472.117 Z M 342.732 476.838 L 318.248 476.838 L 318.248 474.229 L 342.732 474.229 Z M 356.39 475.583 L 353.322 475.583 L 353.322 439.843 L 356.39 439.843 Z M 405.34 475.583 L 402.272 475.583 L 402.272 439.843 L 405.34 439.843 Z M 459.732 472.117 L 458.517 473.83 C 455.555 471.586 453.297 468.976 451.743 466.001 C 450.189 463.026 449.413 459.885 449.413 456.578 C 449.413 453.244 450.183 450.1 451.723 447.145 C 453.264 444.19 455.529 441.59 458.517 439.345 L 459.732 441.059 C 457.302 443.237 455.552 445.518 454.483 447.902 C 453.414 450.286 452.879 453.165 452.879 456.538 C 452.879 460.031 453.433 462.969 454.542 465.353 C 455.651 467.737 457.381 469.992 459.732 472.117 Z M 489.606 476.838 L 465.122 476.838 L 465.122 474.229 L 489.606 474.229 Z M 503.264 475.583 L 500.196 475.583 L 500.196 439.843 L 503.264 439.843 Z M 552.237 475.583 L 549.169 475.583 L 549.169 439.843 L 552.237 439.843 Z M 601.187 475.583 L 598.119 475.583 L 598.119 439.843 L 601.187 439.843 Z M 650.138 475.583 L 647.07 475.583 L 647.07 439.843 L 650.138 439.843 Z M 685.453 476.838 L 660.969 476.838 L 660.969 474.229 L 685.453 474.229 Z M 704.829 468.491 L 701.88 468.491 L 689.688 439.306 L 692.656 439.306 Z M 753.779 468.491 L 750.831 468.491 L 738.639 439.306 L 741.607 439.306 Z M 832.327 476.838 L 807.844 476.838 L 807.844 474.229 L 832.327 474.229 Z M 856.803 476.838 L 832.319 476.838 L 832.319 474.229 L 856.803 474.229 Z M 876.241 439.306 L 864.028 468.491 L 861.1 468.491 L 873.252 439.306 Z M 919.434 475.583 L 916.366 475.583 L 916.366 439.843 L 919.434 439.843 Z M 968.384 475.583 L 965.316 475.583 L 965.316 439.843 L 968.384 439.843 Z M 1017.357 475.583 L 1014.289 475.583 L 1014.289 439.843 L 1017.357 439.843 Z M 1101.623 476.838 L 1077.139 476.838 L 1077.139 474.229 L 1101.623 474.229 Z M 1126.098 476.838 L 1101.615 476.838 L 1101.615 474.229 L 1126.098 474.229 Z M 1145.514 439.306 L 1133.301 468.491 L 1130.373 468.491 L 1142.525 439.306 Z M 1169.949 468.491 L 1167 468.491 L 1154.808 439.306 L 1157.777 439.306 Z M 1199.524 476.838 L 1175.04 476.838 L 1175.04 474.229 L 1199.524 474.229 Z M 1224.022 476.838 L 1199.538 476.838 L 1199.538 474.229 L 1224.022 474.229 Z M 1267.873 468.491 L 1264.924 468.491 L 1252.732 439.306 L 1255.7 439.306 Z M 1316.846 468.491 L 1313.897 468.491 L 1301.705 439.306 L 1304.674 439.306 Z M 1346.421 476.838 L 1321.937 476.838 L 1321.937 474.229 L 1346.421 474.229 Z M 1370.896 476.838 L 1346.412 476.838 L 1346.412 474.229 L 1370.896 474.229 Z M 1414.747 468.491 L 1411.798 468.491 L 1399.606 439.306 L 1402.575 439.306 Z" style="white-space: pre; fill: rgb(255, 255, 255);"/>
    <path d="M -5.089 509.291 L -8.038 509.291 L -20.23 480.106 L -17.262 480.106 Z M 24.486 517.638 L 0.002 517.638 L 0.002 515.029 L 24.486 515.029 Z M 48.961 517.638 L 24.477 517.638 L 24.477 515.029 L 48.961 515.029 Z M 73.436 517.638 L 48.952 517.638 L 48.952 515.029 L 73.436 515.029 Z M 97.911 517.638 L 73.427 517.638 L 73.427 515.029 L 97.911 515.029 Z M 117.349 480.106 L 105.137 509.291 L 102.209 509.291 L 114.361 480.106 Z M 166.26 509.291 L 163.311 509.291 L 151.119 480.106 L 154.088 480.106 Z M 195.835 517.638 L 171.351 517.638 L 171.351 515.029 L 195.835 515.029 Z M 220.31 517.638 L 195.826 517.638 L 195.826 515.029 L 220.31 515.029 Z M 244.808 517.638 L 220.324 517.638 L 220.324 515.029 L 244.808 515.029 Z M 258.466 516.383 L 255.398 516.383 L 255.398 480.643 L 258.466 480.643 Z M 288.659 509.291 L 285.71 509.291 L 273.518 480.106 L 276.486 480.106 Z M 318.234 517.638 L 293.75 517.638 L 293.75 515.029 L 318.234 515.029 Z M 342.732 517.638 L 318.248 517.638 L 318.248 515.029 L 342.732 515.029 Z M 354.995 509.291 C 354.304 509.211 353.733 508.926 353.282 508.434 C 352.83 507.943 352.604 507.385 352.604 506.761 C 352.604 506.084 352.824 505.513 353.262 505.048 C 353.7 504.583 354.251 504.35 354.915 504.35 C 355.659 504.35 356.303 504.653 356.848 505.257 C 357.392 505.861 357.665 506.588 357.665 507.438 C 357.665 510.041 356.217 512.074 353.322 513.534 L 352.565 512.1 C 354.185 511.303 354.995 510.367 354.995 509.291 Z M 405.34 516.383 L 402.272 516.383 L 402.272 480.643 L 405.34 480.643 Z M 435.533 509.291 L 432.584 509.291 L 420.392 480.106 L 423.361 480.106 Z M 465.131 517.638 L 440.647 517.638 L 440.647 515.029 L 465.131 515.029 Z M 489.606 517.638 L 465.122 517.638 L 465.122 515.029 L 489.606 515.029 Z M 501.869 509.291 C 501.179 509.211 500.607 508.926 500.156 508.434 C 499.704 507.943 499.479 507.385 499.479 506.761 C 499.479 506.084 499.698 505.513 500.136 505.048 C 500.574 504.583 501.125 504.35 501.789 504.35 C 502.533 504.35 503.177 504.653 503.722 505.257 C 504.266 505.861 504.539 506.588 504.539 507.438 C 504.539 510.041 503.091 512.074 500.196 513.534 L 499.439 512.1 C 501.059 511.303 501.869 510.367 501.869 509.291 Z M 538.556 517.638 L 514.073 517.638 L 514.073 515.029 L 538.556 515.029 Z M 552.237 516.383 L 549.169 516.383 L 549.169 480.643 L 552.237 480.643 Z M 631.38 509.291 L 628.432 509.291 L 616.24 480.106 L 619.208 480.106 Z M 660.955 517.638 L 636.471 517.638 L 636.471 515.029 L 660.955 515.029 Z M 685.453 517.638 L 660.969 517.638 L 660.969 515.029 L 685.453 515.029 Z M 709.929 517.638 L 685.445 517.638 L 685.445 515.029 L 709.929 515.029 Z M 734.404 517.638 L 709.92 517.638 L 709.92 515.029 L 734.404 515.029 Z M 753.819 480.106 L 741.607 509.291 L 738.678 509.291 L 750.831 480.106 Z M 778.277 509.291 L 775.329 509.291 L 763.136 480.106 L 766.105 480.106 Z M 807.852 517.638 L 783.368 517.638 L 783.368 515.029 L 807.852 515.029 Z M 832.327 517.638 L 807.844 517.638 L 807.844 515.029 L 832.327 515.029 Z M 856.803 517.638 L 832.319 517.638 L 832.319 515.029 L 856.803 515.029 Z M 870.483 516.383 L 867.415 516.383 L 867.415 480.643 L 870.483 480.643 Z M 905.776 517.638 L 881.292 517.638 L 881.292 515.029 L 905.776 515.029 Z M 919.434 516.383 L 916.366 516.383 L 916.366 480.643 L 919.434 480.643 Z M 968.384 516.383 L 965.316 516.383 L 965.316 480.643 L 968.384 480.643 Z M 1003.7 517.638 L 979.216 517.638 L 979.216 515.029 L 1003.7 515.029 Z M 1017.357 516.383 L 1014.289 516.383 L 1014.289 480.643 L 1017.357 480.643 Z M 1047.55 509.291 L 1044.602 509.291 L 1032.409 480.106 L 1035.378 480.106 Z M 1077.125 517.638 L 1052.641 517.638 L 1052.641 515.029 L 1077.125 515.029 Z M 1101.623 517.638 L 1077.139 517.638 L 1077.139 515.029 L 1101.623 515.029 Z M 1126.098 517.638 L 1101.615 517.638 L 1101.615 515.029 L 1126.098 515.029 Z M 1139.756 516.383 L 1136.688 516.383 L 1136.688 480.643 L 1139.756 480.643 Z M 1164.231 516.383 L 1161.163 516.383 L 1161.163 480.643 L 1164.231 480.643 Z M 1199.524 517.638 L 1175.04 517.638 L 1175.04 515.029 L 1199.524 515.029 Z M 1224.022 517.638 L 1199.538 517.638 L 1199.538 515.029 L 1224.022 515.029 Z M 1248.497 517.638 L 1224.013 517.638 L 1224.013 515.029 L 1248.497 515.029 Z M 1267.912 480.106 L 1255.7 509.291 L 1252.772 509.291 L 1264.924 480.106 Z M 1297.448 517.638 L 1272.964 517.638 L 1272.964 515.029 L 1297.448 515.029 Z M 1311.128 516.383 L 1308.06 516.383 L 1308.06 480.643 L 1311.128 480.643 Z M 1346.421 517.638 L 1321.937 517.638 L 1321.937 515.029 L 1346.421 515.029 Z M 1370.896 517.638 L 1346.412 517.638 L 1346.412 515.029 L 1370.896 515.029 Z M 1395.372 517.638 L 1370.888 517.638 L 1370.888 515.029 L 1395.372 515.029 Z M 1414.787 480.106 L 1402.575 509.291 L 1399.646 509.291 L 1411.798 480.106 Z" style="white-space: pre; fill: rgb(255, 255, 255);"/>
    <path d="M 318.234 558.438 L 293.75 558.438 L 293.75 555.829 L 318.234 555.829 Z M 342.732 558.438 L 318.248 558.438 L 318.248 555.829 L 342.732 555.829 Z M 362.147 520.906 L 349.935 550.091 L 347.006 550.091 L 359.159 520.906 Z M 405.34 557.183 L 402.272 557.183 L 402.272 521.443 L 405.34 521.443 Z" style="white-space: pre; fill: rgb(255, 255, 255);"/>
    <path d="M 282.941 597.983 L 279.873 597.983 L 279.873 562.243 L 282.941 562.243 Z M 318.234 599.238 L 293.75 599.238 L 293.75 596.629 L 318.234 596.629 Z M 342.732 599.238 L 318.248 599.238 L 318.248 596.629 L 342.732 596.629 Z M 367.207 599.238 L 342.723 599.238 L 342.723 596.629 L 367.207 596.629 Z M 386.622 561.706 L 374.41 590.891 L 371.482 590.891 L 383.634 561.706 Z" style="white-space: pre; fill: rgb(255, 255, 255);"/>
  </g>
</svg>