<?xml version="1.0" encoding="utf-8"?>
<svg viewBox="0 0 800 200" xmlns="http://www.w3.org/2000/svg">
  <g transform="matrix(1, 0, 0, 1, 60.075516, 0)">
    <path d="M 74.112 58.086 L 63.921 58.086 L 63.921 57 L 74.112 57 L 74.112 58.086 Z" style="fill: rgb(255, 255, 255); white-space: pre;"/>
    <path d="M 614.162 58.086 L 603.97 58.086 L 603.97 57 L 614.162 57 L 614.162 58.086 Z" style="fill: rgb(255, 255, 255); white-space: pre;"/>
    <path d="M 603.963 58.086 L 593.772 58.086 L 593.772 57 L 603.963 57 L 603.963 58.086 Z" style="fill: rgb(255, 255, 255); white-space: pre;"/>
    <path d="M 593.778 58.086 L 583.587 58.086 L 583.587 57 L 593.778 57 L 593.778 58.086 Z" style="fill: rgb(255, 255, 255); white-space: pre;"/>
    <path d="M 542.826 58.086 L 532.634 58.086 L 532.634 57 L 542.826 57 L 542.826 58.086 Z" style="fill: rgb(255, 255, 255); white-space: pre;"/>
    <path d="M 532.641 58.086 L 522.45 58.086 L 522.45 57 L 532.641 57 L 532.641 58.086 Z" style="fill: rgb(255, 255, 255); white-space: pre;"/>
    <path d="M 522.456 58.086 L 512.264 58.086 L 512.264 57 L 522.456 57 L 522.456 58.086 Z" style="fill: rgb(255, 255, 255); white-space: pre;"/>
    <path d="M 512.257 58.086 L 502.066 58.086 L 502.066 57 L 512.257 57 L 512.257 58.086 Z" style="fill: rgb(255, 255, 255); white-space: pre;"/>
    <path d="M 400.181 58.086 L 389.99 58.086 L 389.99 57 L 400.181 57 L 400.181 58.086 Z" style="fill: rgb(255, 255, 255); white-space: pre;"/>
    <path d="M 216.77 58.086 L 206.579 58.086 L 206.579 57 L 216.77 57 L 216.77 58.086 Z" style="fill: rgb(255, 255, 255); white-space: pre;"/>
    <path d="M 135.249 58.086 L 125.058 58.086 L 125.058 57 L 135.249 57 L 135.249 58.086 Z" style="fill: rgb(255, 255, 255); white-space: pre;"/>
    <path d="M 114.865 58.086 L 104.674 58.086 L 104.674 57 L 114.865 57 L 114.865 58.086 Z" style="fill: rgb(255, 255, 255); white-space: pre;"/>
    <path d="M 59.424 74.547 L 58.147 74.547 L 58.147 59.67 L 59.424 59.67 L 59.424 74.547 Z" style="fill: rgb(255, 255, 255); white-space: pre;"/>
    <path d="M 619.844 74.547 L 618.567 74.547 L 618.567 59.67 L 619.844 59.67 L 619.844 74.547 Z" style="fill: rgb(255, 255, 255); white-space: pre;"/>
    <path d="M 581.487 59.446 L 576.404 71.594 L 575.185 71.594 L 580.243 59.446 L 581.487 59.446 Z" style="fill: rgb(255, 255, 255); white-space: pre;"/>
    <path d="M 548.522 74.547 L 547.245 74.547 L 547.245 59.67 L 548.522 59.67 L 548.522 74.547 Z" style="fill: rgb(255, 255, 255); white-space: pre;"/>
    <path d="M 542.826 75.069 L 532.634 75.069 L 532.634 73.983 L 542.826 73.983 L 542.826 75.069 Z" style="fill: rgb(255, 255, 255); white-space: pre;"/>
    <path d="M 532.641 75.069 L 522.449 75.069 L 522.449 73.983 L 532.641 73.983 L 532.641 75.069 Z" style="fill: rgb(255, 255, 255); white-space: pre;"/>
    <path d="M 522.456 75.069 L 512.264 75.069 L 512.264 73.983 L 522.456 73.983 L 522.456 75.069 Z" style="fill: rgb(255, 255, 255); white-space: pre;"/>
    <path d="M 499.966 59.446 L 494.883 71.594 L 493.664 71.594 L 498.722 59.446 L 499.966 59.446 Z" style="fill: rgb(255, 255, 255); white-space: pre;"/>
    <path d="M 405.864 74.547 L 404.586 74.547 L 404.586 59.67 L 405.864 59.67 L 405.864 74.547 Z" style="fill: rgb(255, 255, 255); white-space: pre;"/>
    <path d="M 385.48 74.547 L 384.203 74.547 L 384.203 59.67 L 385.48 59.67 L 385.48 74.547 Z" style="fill: rgb(255, 255, 255); white-space: pre;"/>
    <path d="M 222.452 74.547 L 221.175 74.547 L 221.175 59.67 L 222.452 59.67 L 222.452 74.547 Z" style="fill: rgb(255, 255, 255); white-space: pre;"/>
    <path d="M 202.068 74.547 L 200.791 74.547 L 200.791 59.67 L 202.068 59.67 L 202.068 74.547 Z" style="fill: rgb(255, 255, 255); white-space: pre;"/>
    <path d="M 137.996 59.463 C 139.234 60.397 140.174 61.479 140.815 62.709 C 141.456 63.939 141.777 65.248 141.777 66.636 C 141.777 68.012 141.455 69.32 140.811 70.558 C 140.167 71.796 139.228 72.883 137.996 73.817 L 137.481 73.104 C 138.493 72.208 139.222 71.256 139.667 70.247 C 140.111 69.238 140.334 68.029 140.334 66.619 C 140.334 65.165 140.105 63.949 139.646 62.971 C 139.187 61.992 138.466 61.061 137.481 60.176 L 137.996 59.463 Z" style="fill: rgb(255, 255, 255); white-space: pre;"/>
    <path d="M 135.249 75.069 L 125.058 75.069 L 125.058 73.983 L 135.249 73.983 L 135.249 75.069 Z" style="fill: rgb(255, 255, 255); white-space: pre;"/>
    <path d="M 122.817 73.104 L 122.311 73.817 C 121.078 72.883 120.138 71.796 119.492 70.558 C 118.845 69.32 118.521 68.012 118.521 66.636 C 118.521 65.248 118.842 63.939 119.483 62.709 C 120.124 61.479 121.067 60.397 122.311 59.463 L 122.817 60.176 C 121.805 61.083 121.077 62.032 120.632 63.024 C 120.187 64.017 119.964 65.215 119.964 66.619 C 119.964 68.073 120.195 69.296 120.657 70.288 C 121.118 71.281 121.838 72.219 122.817 73.104 Z" style="fill: rgb(255, 255, 255); white-space: pre;"/>
    <path d="M 100.178 74.547 L 98.901 74.547 L 98.901 59.67 L 100.178 59.67 L 100.178 74.547 Z" style="fill: rgb(255, 255, 255); white-space: pre;"/>
    <path d="M 82.174 71.594 L 80.946 71.594 L 75.872 59.446 L 77.107 59.446 L 82.174 71.594 Z" style="fill: rgb(255, 255, 255); white-space: pre;"/>
    <path d="M 59.424 91.529 L 58.147 91.529 L 58.147 76.653 L 59.424 76.653 L 59.424 91.529 Z" style="fill: rgb(255, 255, 255); white-space: pre;"/>
    <path d="M 619.844 91.529 L 618.567 91.529 L 618.567 76.653 L 619.844 76.653 L 619.844 91.529 Z" style="fill: rgb(255, 255, 255); white-space: pre;"/>
    <path d="M 599.46 91.529 L 598.183 91.529 L 598.183 76.653 L 599.46 76.653 L 599.46 91.529 Z" style="fill: rgb(255, 255, 255); white-space: pre;"/>
    <path d="M 591.672 76.429 L 586.588 88.577 L 585.37 88.577 L 590.428 76.429 L 591.672 76.429 Z" style="fill: rgb(255, 255, 255); white-space: pre;"/>
    <path d="M 571.288 76.429 L 566.205 88.577 L 564.986 88.577 L 570.044 76.429 L 571.288 76.429 Z" style="fill: rgb(255, 255, 255); white-space: pre;"/>
    <path d="M 542.826 92.052 L 532.634 92.052 L 532.634 90.965 L 542.826 90.965 L 542.826 92.052 Z" style="fill: rgb(255, 255, 255); white-space: pre;"/>
    <path d="M 532.641 92.052 L 522.449 92.052 L 522.449 90.965 L 532.641 90.965 L 532.641 92.052 Z" style="fill: rgb(255, 255, 255); white-space: pre;"/>
    <path d="M 522.456 92.052 L 512.264 92.052 L 512.264 90.965 L 522.456 90.965 L 522.456 92.052 Z" style="fill: rgb(255, 255, 255); white-space: pre;"/>
    <path d="M 510.151 76.429 L 505.067 88.577 L 503.849 88.577 L 508.907 76.429 L 510.151 76.429 Z" style="fill: rgb(255, 255, 255); white-space: pre;"/>
    <path d="M 489.781 76.429 L 484.698 88.577 L 483.479 88.577 L 488.537 76.429 L 489.781 76.429 Z" style="fill: rgb(255, 255, 255); white-space: pre;"/>
    <path d="M 451.12 92.052 L 440.928 92.052 L 440.928 90.965 L 451.12 90.965 L 451.12 92.052 Z" style="fill: rgb(255, 255, 255); white-space: pre;"/>
    <path d="M 440.935 92.052 L 430.744 92.052 L 430.744 90.965 L 440.935 90.965 L 440.935 92.052 Z" style="fill: rgb(255, 255, 255); white-space: pre;"/>
    <path d="M 430.75 92.052 L 420.559 92.052 L 420.559 90.965 L 430.75 90.965 L 430.75 92.052 Z" style="fill: rgb(255, 255, 255); white-space: pre;"/>
    <path d="M 405.864 91.529 L 404.586 91.529 L 404.586 76.653 L 405.864 76.653 L 405.864 91.529 Z" style="fill: rgb(255, 255, 255); white-space: pre;"/>
    <path d="M 385.48 91.529 L 384.203 91.529 L 384.203 76.653 L 385.48 76.653 L 385.48 91.529 Z" style="fill: rgb(255, 255, 255); white-space: pre;"/>
    <path d="M 379.798 92.052 L 369.606 92.052 L 369.606 90.965 L 379.798 90.965 L 379.798 92.052 Z" style="fill: rgb(255, 255, 255); white-space: pre;"/>
    <path d="M 369.613 92.052 L 359.422 92.052 L 359.422 90.965 L 369.613 90.965 L 369.613 92.052 Z" style="fill: rgb(255, 255, 255); white-space: pre;"/>
    <path d="M 328.845 92.052 L 318.654 92.052 L 318.654 90.965 L 328.845 90.965 L 328.845 92.052 Z" style="fill: rgb(255, 255, 255); white-space: pre;"/>
    <path d="M 318.66 92.052 L 308.469 92.052 L 308.469 90.965 L 318.66 90.965 L 318.66 92.052 Z" style="fill: rgb(255, 255, 255); white-space: pre;"/>
    <path d="M 298.277 92.052 L 288.086 92.052 L 288.086 90.965 L 298.277 90.965 L 298.277 92.052 Z" style="fill: rgb(255, 255, 255); white-space: pre;"/>
    <path d="M 277.907 92.052 L 267.716 92.052 L 267.716 90.965 L 277.907 90.965 L 277.907 92.052 Z" style="fill: rgb(255, 255, 255); white-space: pre;"/>
    <path d="M 267.708 92.052 L 257.517 92.052 L 257.517 90.965 L 267.708 90.965 L 267.708 92.052 Z" style="fill: rgb(255, 255, 255); white-space: pre;"/>
    <path d="M 257.523 92.052 L 247.332 92.052 L 247.332 90.965 L 257.523 90.965 L 257.523 92.052 Z" style="fill: rgb(255, 255, 255); white-space: pre;"/>
    <path d="M 237.14 92.052 L 226.948 92.052 L 226.948 90.965 L 237.14 90.965 L 237.14 92.052 Z" style="fill: rgb(255, 255, 255); white-space: pre;"/>
    <path d="M 222.452 91.529 L 221.175 91.529 L 221.175 76.653 L 222.452 76.653 L 222.452 91.529 Z" style="fill: rgb(255, 255, 255); white-space: pre;"/>
    <path d="M 202.068 91.529 L 200.791 91.529 L 200.791 76.653 L 202.068 76.653 L 202.068 91.529 Z" style="fill: rgb(255, 255, 255); white-space: pre;"/>
    <path d="M 186.201 92.052 L 176.01 92.052 L 176.01 90.965 L 186.201 90.965 L 186.201 92.052 Z" style="fill: rgb(255, 255, 255); white-space: pre;"/>
    <path d="M 176.003 92.052 L 165.811 92.052 L 165.811 90.965 L 176.003 90.965 L 176.003 92.052 Z" style="fill: rgb(255, 255, 255); white-space: pre;"/>
    <path d="M 155.633 92.052 L 145.441 92.052 L 145.441 90.965 L 155.633 90.965 L 155.633 92.052 Z" style="fill: rgb(255, 255, 255); white-space: pre;"/>
    <path d="M 135.249 92.052 L 125.058 92.052 L 125.058 90.965 L 135.249 90.965 L 135.249 92.052 Z" style="fill: rgb(255, 255, 255); white-space: pre;"/>
    <path d="M 120.561 91.529 L 119.284 91.529 L 119.284 76.653 L 120.561 76.653 L 120.561 91.529 Z" style="fill: rgb(255, 255, 255); white-space: pre;"/>
    <path d="M 100.178 91.529 L 98.901 91.529 L 98.901 76.653 L 100.178 76.653 L 100.178 91.529 Z" style="fill: rgb(255, 255, 255); white-space: pre;"/>
    <path d="M 92.373 88.577 L 91.145 88.577 L 86.07 76.429 L 87.306 76.429 L 92.373 88.577 Z" style="fill: rgb(255, 255, 255); white-space: pre;"/>
    <path d="M 59.424 108.512 L 58.147 108.512 L 58.147 93.635 L 59.424 93.635 L 59.424 108.512 Z" style="fill: rgb(255, 255, 255); white-space: pre;"/>
    <path d="M 619.844 108.512 L 618.567 108.512 L 618.567 93.635 L 619.844 93.635 L 619.844 108.512 Z" style="fill: rgb(255, 255, 255); white-space: pre;"/>
    <path d="M 599.46 108.512 L 598.183 108.512 L 598.183 93.635 L 599.46 93.635 L 599.46 108.512 Z" style="fill: rgb(255, 255, 255); white-space: pre;"/>
    <path d="M 593.778 109.035 L 583.587 109.035 L 583.587 107.948 L 593.778 107.948 L 593.778 109.035 Z" style="fill: rgb(255, 255, 255); white-space: pre;"/>
    <path d="M 581.487 93.412 L 576.404 105.56 L 575.185 105.56 L 580.243 93.412 L 581.487 93.412 Z" style="fill: rgb(255, 255, 255); white-space: pre;"/>
    <path d="M 561.103 93.412 L 556.02 105.56 L 554.801 105.56 L 559.859 93.412 L 561.103 93.412 Z" style="fill: rgb(255, 255, 255); white-space: pre;"/>
    <path d="M 550.902 105.56 L 549.674 105.56 L 544.599 93.412 L 545.835 93.412 L 550.902 105.56 Z" style="fill: rgb(255, 255, 255); white-space: pre;"/>
    <path d="M 532.641 109.035 L 522.449 109.035 L 522.449 107.948 L 532.641 107.948 L 532.641 109.035 Z" style="fill: rgb(255, 255, 255); white-space: pre;"/>
    <path d="M 522.456 109.035 L 512.264 109.035 L 512.264 107.948 L 522.456 107.948 L 522.456 109.035 Z" style="fill: rgb(255, 255, 255); white-space: pre;"/>
    <path d="M 512.257 109.035 L 502.066 109.035 L 502.066 107.948 L 512.257 107.948 L 512.257 109.035 Z" style="fill: rgb(255, 255, 255); white-space: pre;"/>
    <path d="M 487.384 108.512 L 486.108 108.512 L 486.108 93.635 L 487.384 93.635 L 487.384 108.512 Z" style="fill: rgb(255, 255, 255); white-space: pre;"/>
    <path d="M 459.196 105.56 L 457.969 105.56 L 452.894 93.412 L 454.129 93.412 L 459.196 105.56 Z" style="fill: rgb(255, 255, 255); white-space: pre;"/>
    <path d="M 440.935 109.035 L 430.744 109.035 L 430.744 107.948 L 440.935 107.948 L 440.935 109.035 Z" style="fill: rgb(255, 255, 255); white-space: pre;"/>
    <path d="M 418.445 93.412 L 413.362 105.56 L 412.143 105.56 L 417.201 93.412 L 418.445 93.412 Z" style="fill: rgb(255, 255, 255); white-space: pre;"/>
    <path d="M 405.864 108.512 L 404.586 108.512 L 404.586 93.635 L 405.864 93.635 L 405.864 108.512 Z" style="fill: rgb(255, 255, 255); white-space: pre;"/>
    <path d="M 386.193 95.675 L 385.256 95.675 L 382.677 93.179 L 384.543 93.179 L 386.193 95.675 Z" style="fill: rgb(255, 255, 255); white-space: pre;"/>
    <path d="M 379.798 109.035 L 369.606 109.035 L 369.606 107.948 L 379.798 107.948 L 379.798 109.035 Z" style="fill: rgb(255, 255, 255); white-space: pre;"/>
    <path d="M 357.308 93.412 L 352.225 105.56 L 351.006 105.56 L 356.064 93.412 L 357.308 93.412 Z" style="fill: rgb(255, 255, 255); white-space: pre;"/>
    <path d="M 336.921 105.56 L 335.694 105.56 L 330.619 93.412 L 331.855 93.412 L 336.921 105.56 Z" style="fill: rgb(255, 255, 255); white-space: pre;"/>
    <path d="M 318.66 109.035 L 308.469 109.035 L 308.469 107.948 L 318.66 107.948 L 318.66 109.035 Z" style="fill: rgb(255, 255, 255); white-space: pre;"/>
    <path d="M 304.023 95.626 L 303.716 97.948 L 303.052 97.948 L 302.754 95.626 L 302.754 93.635 L 304.023 93.635 L 304.023 95.626 Z" style="fill: rgb(255, 255, 255); white-space: pre;"/>
    <path d="M 285.969 105.56 L 284.742 105.56 L 279.667 93.412 L 280.902 93.412 L 285.969 105.56 Z" style="fill: rgb(255, 255, 255); white-space: pre;"/>
    <path d="M 267.708 109.035 L 257.517 109.035 L 257.517 107.948 L 267.708 107.948 L 267.708 109.035 Z" style="fill: rgb(255, 255, 255); white-space: pre;"/>
    <path d="M 245.232 93.412 L 240.149 105.56 L 238.93 105.56 L 243.988 93.412 L 245.232 93.412 Z" style="fill: rgb(255, 255, 255); white-space: pre;"/>
    <path d="M 237.14 109.035 L 226.948 109.035 L 226.948 107.948 L 237.14 107.948 L 237.14 109.035 Z" style="fill: rgb(255, 255, 255); white-space: pre;"/>
    <path d="M 226.955 109.035 L 216.763 109.035 L 216.763 107.948 L 226.955 107.948 L 226.955 109.035 Z" style="fill: rgb(255, 255, 255); white-space: pre;"/>
    <path d="M 202.068 108.512 L 200.791 108.512 L 200.791 93.635 L 202.068 93.635 L 202.068 108.512 Z" style="fill: rgb(255, 255, 255); white-space: pre;"/>
    <path d="M 194.263 105.56 L 193.036 105.56 L 187.961 93.412 L 189.197 93.412 L 194.263 105.56 Z" style="fill: rgb(255, 255, 255); white-space: pre;"/>
    <path d="M 176.003 109.035 L 165.811 109.035 L 165.811 107.948 L 176.003 107.948 L 176.003 109.035 Z" style="fill: rgb(255, 255, 255); white-space: pre;"/>
    <path d="M 161.365 95.626 L 161.058 97.948 L 160.394 97.948 L 160.096 95.626 L 160.096 93.635 L 161.365 93.635 L 161.365 95.626 Z" style="fill: rgb(255, 255, 255); white-space: pre;"/>
    <path d="M 140.931 108.512 L 139.654 108.512 L 139.654 93.635 L 140.931 93.635 L 140.931 108.512 Z" style="fill: rgb(255, 255, 255); white-space: pre;"/>
    <path d="M 120.561 108.512 L 119.284 108.512 L 119.284 93.635 L 120.561 93.635 L 120.561 108.512 Z" style="fill: rgb(255, 255, 255); white-space: pre;"/>
    <path d="M 100.891 95.675 L 99.954 95.675 L 97.375 93.179 L 99.24 93.179 L 100.891 95.675 Z" style="fill: rgb(255, 255, 255); white-space: pre;"/>
    <path d="M 79.147 103.437 C 79.44 103.437 79.686 103.537 79.885 103.736 C 80.084 103.935 80.184 104.181 80.184 104.474 C 80.184 104.772 80.083 105.028 79.881 105.241 C 79.679 105.453 79.435 105.56 79.147 105.56 C 78.865 105.56 78.625 105.453 78.426 105.241 C 78.227 105.028 78.127 104.772 78.127 104.474 C 78.127 104.175 78.225 103.928 78.422 103.731 C 78.618 103.535 78.859 103.437 79.147 103.437 Z" style="fill: rgb(255, 255, 255); white-space: pre;"/>
    <path d="M 59.424 125.495 L 58.147 125.495 L 58.147 110.618 L 59.424 110.618 L 59.424 125.495 Z" style="fill: rgb(255, 255, 255); white-space: pre;"/>
    <path d="M 619.844 125.495 L 618.567 125.495 L 618.567 110.618 L 619.844 110.618 L 619.844 125.495 Z" style="fill: rgb(255, 255, 255); white-space: pre;"/>
    <path d="M 593.778 126.017 L 583.587 126.017 L 583.587 124.931 L 593.778 124.931 L 593.778 126.017 Z" style="fill: rgb(255, 255, 255); white-space: pre;"/>
    <path d="M 583.593 126.017 L 573.402 126.017 L 573.402 124.931 L 583.593 124.931 L 583.593 126.017 Z" style="fill: rgb(255, 255, 255); white-space: pre;"/>
    <path d="M 573.394 126.017 L 563.203 126.017 L 563.203 124.931 L 573.394 124.931 L 573.394 126.017 Z" style="fill: rgb(255, 255, 255); white-space: pre;"/>
    <path d="M 561.086 122.543 L 559.859 122.543 L 554.784 110.394 L 556.02 110.394 L 561.086 122.543 Z" style="fill: rgb(255, 255, 255); white-space: pre;"/>
    <path d="M 548.522 125.495 L 547.245 125.495 L 547.245 110.618 L 548.522 110.618 L 548.522 125.495 Z" style="fill: rgb(255, 255, 255); white-space: pre;"/>
    <path d="M 530.535 110.394 L 525.451 122.543 L 524.232 122.543 L 529.291 110.394 L 530.535 110.394 Z" style="fill: rgb(255, 255, 255); white-space: pre;"/>
    <path d="M 522.456 126.017 L 512.264 126.017 L 512.264 124.931 L 522.456 124.931 L 522.456 126.017 Z" style="fill: rgb(255, 255, 255); white-space: pre;"/>
    <path d="M 510.134 122.543 L 508.907 122.543 L 503.832 110.394 L 505.067 110.394 L 510.134 122.543 Z" style="fill: rgb(255, 255, 255); white-space: pre;"/>
    <path d="M 487.384 125.495 L 486.108 125.495 L 486.108 110.618 L 487.384 110.618 L 487.384 125.495 Z" style="fill: rgb(255, 255, 255); white-space: pre;"/>
    <path d="M 467.001 125.495 L 465.724 125.495 L 465.724 110.618 L 467.001 110.618 L 467.001 125.495 Z" style="fill: rgb(255, 255, 255); white-space: pre;"/>
    <path d="M 443.682 110.411 C 444.92 111.345 445.86 112.427 446.501 113.658 C 447.142 114.887 447.463 116.196 447.463 117.584 C 447.463 118.96 447.141 120.268 446.497 121.506 C 445.853 122.744 444.914 123.831 443.682 124.765 L 443.168 124.052 C 444.179 123.156 444.907 122.204 445.352 121.195 C 445.798 120.186 446.02 118.977 446.02 117.567 C 446.02 116.113 445.791 114.897 445.332 113.919 C 444.873 112.94 444.151 112.009 443.168 111.124 L 443.682 110.411 Z" style="fill: rgb(255, 255, 255); white-space: pre;"/>
    <path d="M 440.935 126.017 L 430.744 126.017 L 430.744 124.931 L 440.935 124.931 L 440.935 126.017 Z" style="fill: rgb(255, 255, 255); white-space: pre;"/>
    <path d="M 428.503 124.052 L 427.997 124.765 C 426.764 123.831 425.825 122.744 425.177 121.506 C 424.531 120.268 424.207 118.96 424.207 117.584 C 424.207 116.196 424.528 114.887 425.169 113.658 C 425.811 112.427 426.753 111.345 427.997 110.411 L 428.503 111.124 C 427.491 112.031 426.763 112.98 426.318 113.973 C 425.873 114.965 425.65 116.163 425.65 117.567 C 425.65 119.021 425.881 120.244 426.343 121.237 C 426.804 122.229 427.524 123.167 428.503 124.052 Z" style="fill: rgb(255, 255, 255); white-space: pre;"/>
    <path d="M 405.864 125.495 L 404.586 125.495 L 404.586 110.618 L 405.864 110.618 L 405.864 125.495 Z" style="fill: rgb(255, 255, 255); white-space: pre;"/>
    <path d="M 385.48 125.495 L 384.203 125.495 L 384.203 110.618 L 385.48 110.618 L 385.48 125.495 Z" style="fill: rgb(255, 255, 255); white-space: pre;"/>
    <path d="M 379.798 126.017 L 369.606 126.017 L 369.606 124.931 L 379.798 124.931 L 379.798 126.017 Z" style="fill: rgb(255, 255, 255); white-space: pre;"/>
    <path d="M 367.366 124.052 L 366.86 124.765 C 365.627 123.831 364.687 122.744 364.04 121.506 C 363.394 120.268 363.07 118.96 363.07 117.584 C 363.07 116.196 363.391 114.887 364.032 113.658 C 364.673 112.427 365.616 111.345 366.86 110.411 L 367.366 111.124 C 366.354 112.031 365.626 112.98 365.181 113.973 C 364.736 114.965 364.513 116.163 364.513 117.567 C 364.513 119.021 364.744 120.244 365.205 121.237 C 365.667 122.229 366.387 123.167 367.366 124.052 Z" style="fill: rgb(255, 255, 255); white-space: pre;"/>
    <path d="M 344.726 125.495 L 343.449 125.495 L 343.449 110.618 L 344.726 110.618 L 344.726 125.495 Z" style="fill: rgb(255, 255, 255); white-space: pre;"/>
    <path d="M 324.343 125.495 L 323.066 125.495 L 323.066 110.618 L 324.343 110.618 L 324.343 125.495 Z" style="fill: rgb(255, 255, 255); white-space: pre;"/>
    <path d="M 303.973 125.495 L 302.696 125.495 L 302.696 110.618 L 303.973 110.618 L 303.973 125.495 Z" style="fill: rgb(255, 255, 255); white-space: pre;"/>
    <path d="M 285.986 110.394 L 280.902 122.543 L 279.683 122.543 L 284.742 110.394 L 285.986 110.394 Z" style="fill: rgb(255, 255, 255); white-space: pre;"/>
    <path d="M 277.907 126.017 L 267.716 126.017 L 267.716 124.931 L 277.907 124.931 L 277.907 126.017 Z" style="fill: rgb(255, 255, 255); white-space: pre;"/>
    <path d="M 267.708 126.017 L 257.517 126.017 L 257.517 124.931 L 267.708 124.931 L 267.708 126.017 Z" style="fill: rgb(255, 255, 255); white-space: pre;"/>
    <path d="M 232.637 125.495 L 231.36 125.495 L 231.36 110.618 L 232.637 110.618 L 232.637 125.495 Z" style="fill: rgb(255, 255, 255); white-space: pre;"/>
    <path d="M 222.452 125.495 L 221.175 125.495 L 221.175 110.618 L 222.452 110.618 L 222.452 125.495 Z" style="fill: rgb(255, 255, 255); white-space: pre;"/>
    <path d="M 202.068 125.495 L 200.791 125.495 L 200.791 110.618 L 202.068 110.618 L 202.068 125.495 Z" style="fill: rgb(255, 255, 255); white-space: pre;"/>
    <path d="M 181.699 125.495 L 180.421 125.495 L 180.421 110.618 L 181.699 110.618 L 181.699 125.495 Z" style="fill: rgb(255, 255, 255); white-space: pre;"/>
    <path d="M 161.315 125.495 L 160.038 125.495 L 160.038 110.618 L 161.315 110.618 L 161.315 125.495 Z" style="fill: rgb(255, 255, 255); white-space: pre;"/>
    <path d="M 140.931 125.495 L 139.654 125.495 L 139.654 110.618 L 140.931 110.618 L 140.931 125.495 Z" style="fill: rgb(255, 255, 255); white-space: pre;"/>
    <path d="M 120.561 125.495 L 119.284 125.495 L 119.284 110.618 L 120.561 110.618 L 120.561 125.495 Z" style="fill: rgb(255, 255, 255); white-space: pre;"/>
    <path d="M 92.373 122.543 L 91.145 122.543 L 86.07 110.394 L 87.306 110.394 L 92.373 122.543 Z" style="fill: rgb(255, 255, 255); white-space: pre;"/>
    <path d="M 79.794 125.495 L 78.517 125.495 L 78.517 110.618 L 79.794 110.618 L 79.794 125.495 Z" style="fill: rgb(255, 255, 255); white-space: pre;"/>
    <path d="M 61.804 139.525 L 60.577 139.525 L 55.502 127.377 L 56.737 127.377 L 61.804 139.525 Z" style="fill: rgb(255, 255, 255); white-space: pre;"/>
    <path d="M 622.24 127.377 L 617.157 139.525 L 615.938 139.525 L 620.997 127.377 L 622.24 127.377 Z" style="fill: rgb(255, 255, 255); white-space: pre;"/>
    <path d="M 614.162 143 L 603.97 143 L 603.97 141.914 L 614.162 141.914 L 614.162 143 Z" style="fill: rgb(255, 255, 255); white-space: pre;"/>
    <path d="M 599.46 142.478 L 598.183 142.478 L 598.183 127.601 L 599.46 127.601 L 599.46 142.478 Z" style="fill: rgb(255, 255, 255); white-space: pre;"/>
    <path d="M 550.918 127.377 L 545.835 139.525 L 544.616 139.525 L 549.674 127.377 L 550.918 127.377 Z" style="fill: rgb(255, 255, 255); white-space: pre;"/>
    <path d="M 542.826 143 L 532.634 143 L 532.634 141.914 L 542.826 141.914 L 542.826 143 Z" style="fill: rgb(255, 255, 255); white-space: pre;"/>
    <path d="M 532.641 143 L 522.449 143 L 522.449 141.914 L 532.641 141.914 L 532.641 143 Z" style="fill: rgb(255, 255, 255); white-space: pre;"/>
    <path d="M 522.456 143 L 512.264 143 L 512.264 141.914 L 522.456 141.914 L 522.456 143 Z" style="fill: rgb(255, 255, 255); white-space: pre;"/>
    <path d="M 512.257 143 L 502.066 143 L 502.066 141.914 L 512.257 141.914 L 512.257 143 Z" style="fill: rgb(255, 255, 255); white-space: pre;"/>
    <path d="M 502.072 143 L 491.881 143 L 491.881 141.914 L 502.072 141.914 L 502.072 143 Z" style="fill: rgb(255, 255, 255); white-space: pre;"/>
    <path d="M 489.765 139.525 L 488.537 139.525 L 483.462 127.377 L 484.698 127.377 L 489.765 139.525 Z" style="fill: rgb(255, 255, 255); white-space: pre;"/>
    <path d="M 459.212 127.377 L 454.129 139.525 L 452.91 139.525 L 457.969 127.377 L 459.212 127.377 Z" style="fill: rgb(255, 255, 255); white-space: pre;"/>
    <path d="M 451.12 143 L 440.928 143 L 440.928 141.914 L 451.12 141.914 L 451.12 143 Z" style="fill: rgb(255, 255, 255); white-space: pre;"/>
    <path d="M 440.935 143 L 430.744 143 L 430.744 141.914 L 440.935 141.914 L 440.935 143 Z" style="fill: rgb(255, 255, 255); white-space: pre;"/>
    <path d="M 430.75 143 L 420.559 143 L 420.559 141.914 L 430.75 141.914 L 430.75 143 Z" style="fill: rgb(255, 255, 255); white-space: pre;"/>
    <path d="M 418.428 139.525 L 417.201 139.525 L 412.126 127.377 L 413.362 127.377 L 418.428 139.525 Z" style="fill: rgb(255, 255, 255); white-space: pre;"/>
    <path d="M 405.864 142.478 L 404.586 142.478 L 404.586 127.601 L 405.864 127.601 L 405.864 142.478 Z" style="fill: rgb(255, 255, 255); white-space: pre;"/>
    <path d="M 400.181 143 L 389.99 143 L 389.99 141.914 L 400.181 141.914 L 400.181 143 Z" style="fill: rgb(255, 255, 255); white-space: pre;"/>
    <path d="M 384.899 139.525 C 384.612 139.492 384.374 139.373 384.186 139.169 C 383.998 138.964 383.904 138.732 383.904 138.472 C 383.904 138.191 383.995 137.953 384.178 137.759 C 384.36 137.566 384.59 137.469 384.866 137.469 C 385.176 137.469 385.444 137.595 385.67 137.846 C 385.897 138.098 386.011 138.401 386.011 138.754 C 386.011 139.838 385.408 140.684 384.203 141.292 L 383.888 140.695 C 384.562 140.363 384.899 139.973 384.899 139.525 Z" style="fill: rgb(255, 255, 255); white-space: pre;"/>
    <path d="M 379.798 143 L 369.606 143 L 369.606 141.914 L 379.798 141.914 L 379.798 143 Z" style="fill: rgb(255, 255, 255); white-space: pre;"/>
    <path d="M 369.613 143 L 359.422 143 L 359.422 141.914 L 369.613 141.914 L 369.613 143 Z" style="fill: rgb(255, 255, 255); white-space: pre;"/>
    <path d="M 357.291 139.525 L 356.064 139.525 L 350.989 127.377 L 352.225 127.377 L 357.291 139.525 Z" style="fill: rgb(255, 255, 255); white-space: pre;"/>
    <path d="M 344.726 142.478 L 343.449 142.478 L 343.449 127.601 L 344.726 127.601 L 344.726 142.478 Z" style="fill: rgb(255, 255, 255); white-space: pre;"/>
    <path d="M 339.044 143 L 328.853 143 L 328.853 141.914 L 339.044 141.914 L 339.044 143 Z" style="fill: rgb(255, 255, 255); white-space: pre;"/>
    <path d="M 324.343 142.478 L 323.066 142.478 L 323.066 127.601 L 324.343 127.601 L 324.343 142.478 Z" style="fill: rgb(255, 255, 255); white-space: pre;"/>
    <path d="M 303.973 142.478 L 302.696 142.478 L 302.696 127.601 L 303.973 127.601 L 303.973 142.478 Z" style="fill: rgb(255, 255, 255); white-space: pre;"/>
    <path d="M 298.277 143 L 288.086 143 L 288.086 141.914 L 298.277 141.914 L 298.277 143 Z" style="fill: rgb(255, 255, 255); white-space: pre;"/>
    <path d="M 283.589 142.478 L 282.312 142.478 L 282.312 127.601 L 283.589 127.601 L 283.589 142.478 Z" style="fill: rgb(255, 255, 255); white-space: pre;"/>
    <path d="M 277.907 143 L 267.716 143 L 267.716 141.914 L 277.907 141.914 L 277.907 143 Z" style="fill: rgb(255, 255, 255); white-space: pre;"/>
    <path d="M 267.708 143 L 257.517 143 L 257.517 141.914 L 267.708 141.914 L 267.708 143 Z" style="fill: rgb(255, 255, 255); white-space: pre;"/>
    <path d="M 257.523 143 L 247.332 143 L 247.332 141.914 L 257.523 141.914 L 257.523 143 Z" style="fill: rgb(255, 255, 255); white-space: pre;"/>
    <path d="M 245.216 139.525 L 243.988 139.525 L 238.913 127.377 L 240.149 127.377 L 245.216 139.525 Z" style="fill: rgb(255, 255, 255); white-space: pre;"/>
    <path d="M 237.14 143 L 226.948 143 L 226.948 141.914 L 237.14 141.914 L 237.14 143 Z" style="fill: rgb(255, 255, 255); white-space: pre;"/>
    <path d="M 226.955 143 L 216.763 143 L 216.763 141.914 L 226.955 141.914 L 226.955 143 Z" style="fill: rgb(255, 255, 255); white-space: pre;"/>
    <path d="M 214.647 139.525 L 213.42 139.525 L 208.345 127.377 L 209.58 127.377 L 214.647 139.525 Z" style="fill: rgb(255, 255, 255); white-space: pre;"/>
    <path d="M 202.068 142.478 L 200.791 142.478 L 200.791 127.601 L 202.068 127.601 L 202.068 142.478 Z" style="fill: rgb(255, 255, 255); white-space: pre;"/>
    <path d="M 196.386 143 L 186.195 143 L 186.195 141.914 L 196.386 141.914 L 196.386 143 Z" style="fill: rgb(255, 255, 255); white-space: pre;"/>
    <path d="M 181.699 142.478 L 180.421 142.478 L 180.421 127.601 L 181.699 127.601 L 181.699 142.478 Z" style="fill: rgb(255, 255, 255); white-space: pre;"/>
    <path d="M 161.315 142.478 L 160.038 142.478 L 160.038 127.601 L 161.315 127.601 L 161.315 142.478 Z" style="fill: rgb(255, 255, 255); white-space: pre;"/>
    <path d="M 155.633 143 L 145.441 143 L 145.441 141.914 L 155.633 141.914 L 155.633 143 Z" style="fill: rgb(255, 255, 255); white-space: pre;"/>
    <path d="M 140.931 142.478 L 139.654 142.478 L 139.654 127.601 L 140.931 127.601 L 140.931 142.478 Z" style="fill: rgb(255, 255, 255); white-space: pre;"/>
    <path d="M 135.249 143 L 125.058 143 L 125.058 141.914 L 135.249 141.914 L 135.249 143 Z" style="fill: rgb(255, 255, 255); white-space: pre;"/>
    <path d="M 122.958 127.377 L 117.875 139.525 L 116.656 139.525 L 121.714 127.377 L 122.958 127.377 Z" style="fill: rgb(255, 255, 255); white-space: pre;"/>
    <path d="M 114.865 143 L 104.674 143 L 104.674 141.914 L 114.865 141.914 L 114.865 143 Z" style="fill: rgb(255, 255, 255); white-space: pre;"/>
    <path d="M 102.557 139.525 L 101.33 139.525 L 96.255 127.377 L 97.491 127.377 L 102.557 139.525 Z" style="fill: rgb(255, 255, 255); white-space: pre;"/>
    <path d="M 79.794 142.478 L 78.517 142.478 L 78.517 127.601 L 79.794 127.601 L 79.794 142.478 Z" style="fill: rgb(255, 255, 255); white-space: pre;"/>
    <path d="M 74.112 143 L 63.92 143 L 63.92 141.914 L 74.112 141.914 L 74.112 143 Z" style="fill: rgb(255, 255, 255); white-space: pre;"/>
  </g>
</svg>