<?xml version="1.0" encoding="utf-8"?>
<svg viewBox="0 0 800 200" xmlns="http://www.w3.org/2000/svg">
  <g transform="matrix(1, 0, 0, 1, -100.000015, -50)">
    <path d="M 159.901 91.087 L 149.707 91.087 L 149.707 90 L 159.901 90 Z M 170.097 91.087 L 159.902 91.087 L 159.902 90 L 170.097 90 Z M 180.292 91.087 L 170.098 91.087 L 170.098 90 L 180.292 90 Z M 190.479 91.087 L 180.285 91.087 L 180.285 90 L 190.479 90 Z M 200.675 91.087 L 190.481 91.087 L 190.481 90 L 200.675 90 Z M 465.691 91.087 L 455.497 91.087 L 455.497 90 L 465.691 90 Z M 506.466 91.087 L 496.271 91.087 L 496.271 90 L 506.466 90 Z M 526.848 91.087 L 516.654 91.087 L 516.654 90 L 526.848 90 Z M 608.386 91.087 L 598.192 91.087 L 598.192 90 L 608.386 90 Z M 791.864 91.087 L 781.67 91.087 L 781.67 90 L 791.864 90 Z" style="fill: rgb(255, 255, 255); white-space: pre;"/>
    <path d="M 147.608 92.448 L 142.523 104.599 L 141.303 104.599 L 146.363 92.448 Z M 180.292 108.074 L 170.098 108.074 L 170.098 106.988 L 180.292 106.988 Z M 190.479 108.074 L 180.285 108.074 L 180.285 106.988 L 190.479 106.988 Z M 200.675 108.074 L 190.481 108.074 L 190.481 106.988 L 200.675 106.988 Z M 206.367 107.552 L 205.089 107.552 L 205.089 92.671 L 206.367 92.671 Z M 450.992 107.552 L 449.715 107.552 L 449.715 92.671 L 450.992 92.671 Z M 473.755 104.599 L 472.527 104.599 L 467.45 92.448 L 468.686 92.448 Z M 491.766 107.552 L 490.488 107.552 L 490.488 92.671 L 491.766 92.671 Z M 514.404 106.109 L 513.898 106.822 C 512.665 105.887 511.725 104.801 511.078 103.562 C 510.431 102.323 510.107 101.016 510.107 99.638 C 510.107 98.251 510.428 96.942 511.069 95.711 C 511.711 94.481 512.654 93.398 513.898 92.464 L 514.404 93.177 C 513.393 94.084 512.664 95.034 512.218 96.026 C 511.773 97.019 511.551 98.218 511.551 99.622 C 511.551 101.077 511.782 102.3 512.243 103.292 C 512.705 104.285 513.425 105.224 514.404 106.109 Z M 526.848 108.074 L 516.654 108.074 L 516.654 106.988 L 526.848 106.988 Z M 529.603 92.464 C 530.842 93.398 531.782 94.481 532.424 95.711 C 533.065 96.942 533.386 98.251 533.386 99.638 C 533.386 101.016 533.063 102.323 532.419 103.562 C 531.775 104.801 530.836 105.887 529.603 106.822 L 529.089 106.109 C 530.101 105.213 530.83 104.26 531.275 103.251 C 531.72 102.242 531.943 101.032 531.943 99.622 C 531.943 98.168 531.713 96.951 531.254 95.973 C 530.795 94.994 530.073 94.062 529.089 93.177 Z M 593.696 107.552 L 592.419 107.552 L 592.419 92.671 L 593.696 92.671 Z M 614.078 107.552 L 612.8 107.552 L 612.8 92.671 L 614.078 92.671 Z M 777.164 107.552 L 775.887 107.552 L 775.887 92.671 L 777.164 92.671 Z M 797.547 107.552 L 796.27 107.552 L 796.27 92.671 L 797.547 92.671 Z" style="fill: rgb(255, 255, 255); white-space: pre;"/>
    <path d="M 147.591 121.586 L 146.363 121.586 L 141.287 109.435 L 142.523 109.435 Z M 166.307 111.7 L 165.369 111.7 L 162.789 109.203 L 164.656 109.203 Z M 177.572 117.323 L 172.645 117.323 L 172.645 116.062 L 177.572 116.062 Z M 187.759 117.323 L 182.831 117.323 L 182.831 116.062 L 187.759 116.062 Z M 195.524 119.463 C 195.817 119.463 196.063 119.562 196.262 119.762 C 196.461 119.961 196.561 120.207 196.561 120.5 C 196.561 120.799 196.459 121.054 196.258 121.267 C 196.056 121.48 195.811 121.586 195.524 121.586 C 195.242 121.586 195.002 121.48 194.802 121.267 C 194.603 121.054 194.503 120.799 194.503 120.5 C 194.503 120.202 194.602 119.954 194.798 119.758 C 194.994 119.561 195.237 119.463 195.524 119.463 Z M 221.057 125.062 L 210.863 125.062 L 210.863 123.975 L 221.057 123.975 Z M 261.831 125.062 L 251.637 125.062 L 251.637 123.975 L 261.831 123.975 Z M 282.214 125.062 L 272.02 125.062 L 272.02 123.975 L 282.214 123.975 Z M 302.605 125.062 L 292.411 125.062 L 292.411 123.975 L 302.605 123.975 Z M 312.791 125.062 L 302.597 125.062 L 302.597 123.975 L 312.791 123.975 Z M 353.566 125.062 L 343.372 125.062 L 343.372 123.975 L 353.566 123.975 Z M 363.762 125.062 L 353.567 125.062 L 353.567 123.975 L 363.762 123.975 Z M 373.957 125.062 L 363.763 125.062 L 363.763 123.975 L 373.957 123.975 Z M 394.339 125.062 L 384.145 125.062 L 384.145 123.975 L 394.339 123.975 Z M 414.722 125.062 L 404.528 125.062 L 404.528 123.975 L 414.722 123.975 Z M 424.918 125.062 L 414.724 125.062 L 414.724 123.975 L 424.918 123.975 Z M 450.992 124.539 L 449.715 124.539 L 449.715 109.659 L 450.992 109.659 Z M 483.95 121.586 L 482.723 121.586 L 477.646 109.435 L 478.882 109.435 Z M 491.766 124.539 L 490.488 124.539 L 490.488 109.659 L 491.766 109.659 Z M 512.148 124.539 L 510.871 124.539 L 510.871 109.659 L 512.148 109.659 Z M 526.848 125.062 L 516.654 125.062 L 516.654 123.975 L 526.848 123.975 Z M 547.23 125.062 L 537.036 125.062 L 537.036 123.975 L 547.23 123.975 Z M 567.622 125.062 L 557.427 125.062 L 557.427 123.975 L 567.622 123.975 Z M 577.808 125.062 L 567.614 125.062 L 567.614 123.975 L 577.808 123.975 Z M 593.696 124.539 L 592.419 124.539 L 592.419 109.659 L 593.696 109.659 Z M 614.078 124.539 L 612.8 124.539 L 612.8 109.659 L 614.078 109.659 Z M 628.778 125.062 L 618.584 125.062 L 618.584 123.975 L 628.778 123.975 Z M 649.16 125.062 L 638.966 125.062 L 638.966 123.975 L 649.16 123.975 Z M 659.356 125.062 L 649.162 125.062 L 649.162 123.975 L 659.356 123.975 Z M 669.552 125.062 L 659.358 125.062 L 659.358 123.975 L 669.552 123.975 Z M 689.934 125.062 L 679.74 125.062 L 679.74 123.975 L 689.934 123.975 Z M 710.317 125.062 L 700.122 125.062 L 700.122 123.975 L 710.317 123.975 Z M 720.512 125.062 L 710.318 125.062 L 710.318 123.975 L 720.512 123.975 Z M 761.287 125.062 L 751.092 125.062 L 751.092 123.975 L 761.287 123.975 Z M 771.473 125.062 L 761.278 125.062 L 761.278 123.975 L 771.473 123.975 Z M 777.164 124.539 L 775.887 124.539 L 775.887 109.659 L 777.164 109.659 Z M 797.547 124.539 L 796.27 124.539 L 796.27 109.659 L 797.547 109.659 Z M 822.443 125.062 L 812.249 125.062 L 812.249 123.975 L 822.443 123.975 Z M 832.639 125.062 L 822.444 125.062 L 822.444 123.975 L 832.639 123.975 Z M 842.825 125.062 L 832.63 125.062 L 832.63 123.975 L 842.825 123.975 Z" style="fill: rgb(255, 255, 255); white-space: pre;"/>
    <path d="M 156.11 128.687 L 155.173 128.687 L 152.594 126.19 L 154.46 126.19 Z M 167.376 134.31 L 162.449 134.31 L 162.449 133.049 L 167.376 133.049 Z M 177.572 134.31 L 172.645 134.31 L 172.645 133.049 L 177.572 133.049 Z M 185.328 136.45 C 185.621 136.45 185.867 136.55 186.067 136.75 C 186.265 136.948 186.365 137.194 186.365 137.488 C 186.365 137.786 186.264 138.042 186.062 138.255 C 185.86 138.467 185.615 138.574 185.328 138.574 C 185.046 138.574 184.806 138.467 184.606 138.255 C 184.407 138.042 184.308 137.786 184.308 137.488 C 184.308 137.189 184.406 136.942 184.602 136.746 C 184.798 136.548 185.041 136.45 185.328 136.45 Z M 208.747 138.574 L 207.52 138.574 L 202.443 126.423 L 203.679 126.423 Z M 226.749 141.527 L 225.472 141.527 L 225.472 126.646 L 226.749 126.646 Z M 247.131 141.527 L 245.854 141.527 L 245.854 126.646 L 247.131 126.646 Z M 267.523 141.527 L 266.245 141.527 L 266.245 126.646 L 267.523 126.646 Z M 287.955 128.637 L 287.648 130.96 L 286.984 130.96 L 286.686 128.637 L 286.686 126.646 L 287.955 126.646 Z M 302.605 142.05 L 292.411 142.05 L 292.411 140.963 L 302.605 140.963 Z M 320.864 138.574 L 319.636 138.574 L 314.56 126.423 L 315.796 126.423 Z M 341.272 126.423 L 336.187 138.574 L 334.968 138.574 L 340.028 126.423 Z M 363.762 142.05 L 353.567 142.05 L 353.567 140.963 L 363.762 140.963 Z M 382.02 138.574 L 380.793 138.574 L 375.716 126.423 L 376.952 126.423 Z M 400.081 128.637 L 399.774 130.96 L 399.111 130.96 L 398.812 128.637 L 398.812 126.646 L 400.081 126.646 Z M 414.722 142.05 L 404.528 142.05 L 404.528 140.963 L 414.722 140.963 Z M 424.918 142.05 L 414.724 142.05 L 414.724 140.963 L 424.918 140.963 Z M 430.609 141.527 L 429.332 141.527 L 429.332 126.646 L 430.609 126.646 Z M 450.992 141.527 L 449.715 141.527 L 449.715 126.646 L 450.992 126.646 Z M 470.727 136.45 C 471.02 136.45 471.266 136.55 471.465 136.75 C 471.664 136.948 471.764 137.194 471.764 137.488 C 471.764 137.786 471.663 138.042 471.461 138.255 C 471.259 138.467 471.014 138.574 470.727 138.574 C 470.445 138.574 470.204 138.467 470.005 138.255 C 469.806 138.042 469.706 137.786 469.706 137.488 C 469.706 137.189 469.805 136.942 470.001 136.746 C 470.198 136.548 470.439 136.45 470.727 136.45 Z M 492.479 128.687 L 491.542 128.687 L 488.962 126.19 L 490.829 126.19 Z M 512.148 141.527 L 510.871 141.527 L 510.871 126.646 L 512.148 126.646 Z M 532.54 141.527 L 531.262 141.527 L 531.262 126.646 L 532.54 126.646 Z M 552.972 128.637 L 552.665 130.96 L 552.001 130.96 L 551.703 128.637 L 551.703 126.646 L 552.972 126.646 Z M 567.622 142.05 L 557.427 142.05 L 557.427 140.963 L 567.622 140.963 Z M 585.881 138.574 L 584.653 138.574 L 579.576 126.423 L 580.813 126.423 Z M 593.696 141.527 L 592.419 141.527 L 592.419 126.646 L 593.696 126.646 Z M 618.582 142.05 L 608.388 142.05 L 608.388 140.963 L 618.582 140.963 Z M 628.778 142.05 L 618.584 142.05 L 618.584 140.963 L 628.778 140.963 Z M 636.858 126.423 L 631.773 138.574 L 630.553 138.574 L 635.613 126.423 Z M 659.356 142.05 L 649.162 142.05 L 649.162 140.963 L 659.356 140.963 Z M 677.615 138.574 L 676.388 138.574 L 671.311 126.423 L 672.547 126.423 Z M 695.676 128.637 L 695.369 130.96 L 694.705 130.96 L 694.407 128.637 L 694.407 126.646 L 695.676 126.646 Z M 710.317 142.05 L 700.122 142.05 L 700.122 140.963 L 710.317 140.963 Z M 728.585 138.574 L 727.357 138.574 L 722.281 126.423 L 723.517 126.423 Z M 748.984 126.423 L 743.899 138.574 L 742.679 138.574 L 747.739 126.423 Z M 771.473 142.05 L 761.278 142.05 L 761.278 140.963 L 771.473 140.963 Z M 777.878 128.687 L 776.941 128.687 L 774.361 126.19 L 776.227 126.19 Z M 797.547 141.527 L 796.27 141.527 L 796.27 126.646 L 797.547 126.646 Z M 810.14 126.423 L 805.055 138.574 L 803.836 138.574 L 808.896 126.423 Z M 832.639 142.05 L 822.444 142.05 L 822.444 140.963 L 832.639 140.963 Z M 850.897 138.574 L 849.67 138.574 L 844.593 126.423 L 845.83 126.423 Z" style="fill: rgb(255, 255, 255); white-space: pre;"/>
    <path d="M 147.608 143.41 L 142.523 155.561 L 141.303 155.561 L 146.363 143.41 Z M 157.777 155.561 L 156.55 155.561 L 151.474 143.41 L 152.709 143.41 Z M 170.097 159.037 L 159.902 159.037 L 159.902 157.95 L 170.097 157.95 Z M 180.292 159.037 L 170.098 159.037 L 170.098 157.95 L 180.292 157.95 Z M 188.372 143.41 L 183.288 155.561 L 182.068 155.561 L 187.128 143.41 Z M 208.764 143.41 L 203.679 155.561 L 202.46 155.561 L 207.52 143.41 Z M 226.749 158.514 L 225.472 158.514 L 225.472 143.634 L 226.749 143.634 Z M 241.449 159.037 L 231.254 159.037 L 231.254 157.95 L 241.449 157.95 Z M 247.131 158.514 L 245.854 158.514 L 245.854 143.634 L 247.131 143.634 Z M 267.523 158.514 L 266.245 158.514 L 266.245 143.634 L 267.523 143.634 Z M 287.905 158.514 L 286.628 158.514 L 286.628 143.634 L 287.905 143.634 Z M 302.605 159.037 L 292.411 159.037 L 292.411 157.95 L 302.605 157.95 Z M 305.352 143.427 C 306.59 144.361 307.53 145.444 308.171 146.674 C 308.813 147.905 309.133 149.213 309.133 150.601 C 309.133 151.978 308.812 153.286 308.167 154.525 C 307.523 155.763 306.584 156.85 305.352 157.785 L 304.837 157.071 C 305.849 156.176 306.578 155.223 307.022 154.214 C 307.468 153.205 307.69 151.995 307.69 150.585 C 307.69 149.131 307.461 147.914 307.002 146.936 C 306.543 145.957 305.822 145.025 304.837 144.14 Z M 328.679 158.514 L 327.402 158.514 L 327.402 143.634 L 328.679 143.634 Z M 363.762 159.037 L 353.567 159.037 L 353.567 157.95 L 363.762 157.95 Z M 373.957 159.037 L 363.763 159.037 L 363.763 157.95 L 373.957 157.95 Z M 382.036 143.41 L 376.952 155.561 L 375.733 155.561 L 380.793 143.41 Z M 400.032 158.514 L 398.754 158.514 L 398.754 143.634 L 400.032 143.634 Z M 450.992 158.514 L 449.715 158.514 L 449.715 143.634 L 450.992 143.634 Z M 471.374 158.514 L 470.096 158.514 L 470.096 143.634 L 471.374 143.634 Z M 483.95 155.561 L 482.723 155.561 L 477.646 143.41 L 478.882 143.41 Z M 512.148 158.514 L 510.871 158.514 L 510.871 143.634 L 512.148 143.634 Z M 532.54 158.514 L 531.262 158.514 L 531.262 143.634 L 532.54 143.634 Z M 552.922 158.514 L 551.644 158.514 L 551.644 143.634 L 552.922 143.634 Z M 573.304 158.514 L 572.027 158.514 L 572.027 143.634 L 573.304 143.634 Z M 593.696 158.514 L 592.419 158.514 L 592.419 143.634 L 593.696 143.634 Z M 614.078 158.514 L 612.8 158.514 L 612.8 143.634 L 614.078 143.634 Z M 624.274 158.514 L 622.996 158.514 L 622.996 143.634 L 624.274 143.634 Z M 659.356 159.037 L 649.162 159.037 L 649.162 157.95 L 659.356 157.95 Z M 669.552 159.037 L 659.358 159.037 L 659.358 157.95 L 669.552 157.95 Z M 677.632 143.41 L 672.547 155.561 L 671.328 155.561 L 676.388 143.41 Z M 695.626 158.514 L 694.349 158.514 L 694.349 143.634 L 695.626 143.634 Z M 716.008 158.514 L 714.731 158.514 L 714.731 143.634 L 716.008 143.634 Z M 736.391 158.514 L 735.113 158.514 L 735.113 143.634 L 736.391 143.634 Z M 759.039 157.071 L 758.532 157.785 C 757.3 156.85 756.359 155.763 755.712 154.525 C 755.066 153.286 754.742 151.978 754.742 150.601 C 754.742 149.213 755.062 147.905 755.704 146.674 C 756.345 145.444 757.288 144.361 758.532 143.427 L 759.039 144.14 C 758.027 145.047 757.298 145.996 756.853 146.989 C 756.408 147.982 756.185 149.18 756.185 150.585 C 756.185 152.039 756.416 153.263 756.878 154.255 C 757.339 155.248 758.06 156.186 759.039 157.071 Z M 771.473 159.037 L 761.278 159.037 L 761.278 157.95 L 771.473 157.95 Z M 777.164 158.514 L 775.887 158.514 L 775.887 143.634 L 777.164 143.634 Z M 797.547 158.514 L 796.27 158.514 L 796.27 143.634 L 797.547 143.634 Z M 820.195 157.071 L 819.688 157.785 C 818.456 156.85 817.516 155.763 816.868 154.525 C 816.222 153.286 815.898 151.978 815.898 150.601 C 815.898 149.213 816.218 147.905 816.86 146.674 C 817.502 145.444 818.445 144.361 819.688 143.427 L 820.195 144.14 C 819.183 145.047 818.454 145.996 818.009 146.989 C 817.564 147.982 817.342 149.18 817.342 150.585 C 817.342 152.039 817.572 153.263 818.034 154.255 C 818.496 155.248 819.216 156.186 820.195 157.071 Z M 832.639 159.037 L 822.444 159.037 L 822.444 157.95 L 832.639 157.95 Z M 835.385 143.427 C 836.623 144.361 837.563 145.444 838.205 146.674 C 838.847 147.905 839.166 149.213 839.166 150.601 C 839.166 151.978 838.845 153.286 838.201 154.525 C 837.556 155.763 836.618 156.85 835.385 157.785 L 834.87 157.071 C 835.882 156.176 836.611 155.223 837.056 154.214 C 837.501 153.205 837.723 151.995 837.723 150.585 C 837.723 149.131 837.494 147.914 837.035 146.936 C 836.576 145.957 835.855 145.025 834.87 144.14 Z M 858.713 158.514 L 857.436 158.514 L 857.436 143.634 L 858.713 143.634 Z" style="fill: rgb(255, 255, 255); white-space: pre;"/>
    <path d="M 147.591 172.549 L 146.363 172.549 L 141.287 160.398 L 142.523 160.398 Z M 159.901 176.025 L 149.707 176.025 L 149.707 174.938 L 159.901 174.938 Z M 170.097 176.025 L 159.902 176.025 L 159.902 174.938 L 170.097 174.938 Z M 180.292 176.025 L 170.098 176.025 L 170.098 174.938 L 180.292 174.938 Z M 190.479 176.025 L 180.285 176.025 L 180.285 174.938 L 190.479 174.938 Z M 198.568 160.398 L 193.483 172.549 L 192.264 172.549 L 197.324 160.398 Z M 218.933 172.549 L 217.706 172.549 L 212.63 160.398 L 213.866 160.398 Z M 231.253 176.025 L 221.059 176.025 L 221.059 174.938 L 231.253 174.938 Z M 241.449 176.025 L 231.254 176.025 L 231.254 174.938 L 241.449 174.938 Z M 246.551 172.549 C 246.263 172.516 246.025 172.397 245.837 172.193 C 245.649 171.988 245.555 171.756 245.555 171.496 C 245.555 171.214 245.647 170.976 245.829 170.783 C 246.011 170.589 246.241 170.492 246.518 170.492 C 246.827 170.492 247.096 170.618 247.322 170.87 C 247.548 171.121 247.662 171.424 247.662 171.778 C 247.662 172.861 247.059 173.708 245.854 174.316 L 245.539 173.719 C 246.213 173.387 246.551 172.998 246.551 172.549 Z M 261.831 176.025 L 251.637 176.025 L 251.637 174.938 L 261.831 174.938 Z M 267.523 175.502 L 266.245 175.502 L 266.245 160.621 L 267.523 160.621 Z M 287.258 170.425 C 287.552 170.425 287.797 170.525 287.996 170.725 C 288.196 170.924 288.296 171.169 288.296 171.463 C 288.296 171.761 288.194 172.017 287.992 172.23 C 287.791 172.443 287.546 172.549 287.258 172.549 C 286.976 172.549 286.735 172.443 286.537 172.23 C 286.338 172.017 286.238 171.761 286.238 171.463 C 286.238 171.164 286.336 170.917 286.532 170.721 C 286.729 170.524 286.97 170.425 287.258 170.425 Z M 302.605 176.025 L 292.411 176.025 L 292.411 174.938 L 302.605 174.938 Z M 312.791 176.025 L 302.597 176.025 L 302.597 174.938 L 312.791 174.938 Z M 320.88 160.398 L 315.796 172.549 L 314.577 172.549 L 319.636 160.398 Z M 341.256 172.549 L 340.028 172.549 L 334.952 160.398 L 336.187 160.398 Z M 353.566 176.025 L 343.372 176.025 L 343.372 174.938 L 353.566 174.938 Z M 363.762 176.025 L 353.567 176.025 L 353.567 174.938 L 363.762 174.938 Z M 373.957 176.025 L 363.763 176.025 L 363.763 174.938 L 373.957 174.938 Z M 379.639 175.502 L 378.362 175.502 L 378.362 160.621 L 379.639 160.621 Z M 394.339 176.025 L 384.145 176.025 L 384.145 174.938 L 394.339 174.938 Z M 400.032 175.502 L 398.754 175.502 L 398.754 160.621 L 400.032 160.621 Z M 453.372 172.549 L 452.145 172.549 L 447.068 160.398 L 448.305 160.398 Z M 465.691 176.025 L 455.497 176.025 L 455.497 174.938 L 465.691 174.938 Z M 471.374 175.502 L 470.096 175.502 L 470.096 160.621 L 471.374 160.621 Z M 494.146 172.549 L 492.918 172.549 L 487.842 160.398 L 489.078 160.398 Z M 506.466 176.025 L 496.271 176.025 L 496.271 174.938 L 506.466 174.938 Z M 514.545 160.398 L 509.461 172.549 L 508.241 172.549 L 513.301 160.398 Z M 526.848 176.025 L 516.654 176.025 L 516.654 174.938 L 526.848 174.938 Z M 532.54 175.502 L 531.262 175.502 L 531.262 160.621 L 532.54 160.621 Z M 547.23 176.025 L 537.036 176.025 L 537.036 174.938 L 547.23 174.938 Z M 552.922 175.502 L 551.644 175.502 L 551.644 160.621 L 552.922 160.621 Z M 573.304 175.502 L 572.027 175.502 L 572.027 160.621 L 573.304 160.621 Z M 588.004 176.025 L 577.81 176.025 L 577.81 174.938 L 588.004 174.938 Z M 593.696 175.502 L 592.419 175.502 L 592.419 160.621 L 593.696 160.621 Z M 606.263 172.549 L 605.036 172.549 L 599.959 160.398 L 601.194 160.398 Z M 618.582 176.025 L 608.388 176.025 L 608.388 174.938 L 618.582 174.938 Z M 628.778 176.025 L 618.584 176.025 L 618.584 174.938 L 628.778 174.938 Z M 636.841 172.549 L 635.613 172.549 L 630.537 160.398 L 631.773 160.398 Z M 649.16 176.025 L 638.966 176.025 L 638.966 174.938 L 649.16 174.938 Z M 659.356 176.025 L 649.162 176.025 L 649.162 174.938 L 659.356 174.938 Z M 669.552 176.025 L 659.358 176.025 L 659.358 174.938 L 669.552 174.938 Z M 675.235 175.502 L 673.957 175.502 L 673.957 160.621 L 675.235 160.621 Z M 689.934 176.025 L 679.74 176.025 L 679.74 174.938 L 689.934 174.938 Z M 695.626 175.502 L 694.349 175.502 L 694.349 160.621 L 695.626 160.621 Z M 716.008 175.502 L 714.731 175.502 L 714.731 160.621 L 716.008 160.621 Z M 730.708 176.025 L 720.514 176.025 L 720.514 174.938 L 730.708 174.938 Z M 736.391 175.502 L 735.113 175.502 L 735.113 160.621 L 736.391 160.621 Z M 748.967 172.549 L 747.739 172.549 L 742.663 160.398 L 743.899 160.398 Z M 761.287 176.025 L 751.092 176.025 L 751.092 174.938 L 761.287 174.938 Z M 771.473 176.025 L 761.278 176.025 L 761.278 174.938 L 771.473 174.938 Z M 776.584 172.549 C 776.297 172.516 776.058 172.397 775.87 172.193 C 775.682 171.988 775.588 171.756 775.588 171.496 C 775.588 171.214 775.68 170.976 775.862 170.783 C 776.044 170.589 776.274 170.492 776.551 170.492 C 776.861 170.492 777.129 170.618 777.356 170.87 C 777.582 171.121 777.695 171.424 777.695 171.778 C 777.695 172.861 777.093 173.708 775.887 174.316 L 775.572 173.719 C 776.246 173.387 776.584 172.998 776.584 172.549 Z M 791.864 176.025 L 781.67 176.025 L 781.67 174.938 L 791.864 174.938 Z M 797.547 175.502 L 796.27 175.502 L 796.27 160.621 L 797.547 160.621 Z M 810.123 172.549 L 808.896 172.549 L 803.819 160.398 L 805.055 160.398 Z M 822.443 176.025 L 812.249 176.025 L 812.249 174.938 L 822.443 174.938 Z M 832.639 176.025 L 822.444 176.025 L 822.444 174.938 L 832.639 174.938 Z M 842.825 176.025 L 832.63 176.025 L 832.63 174.938 L 842.825 174.938 Z M 850.913 160.398 L 845.83 172.549 L 844.61 172.549 L 849.67 160.398 Z" style="fill: rgb(255, 255, 255); white-space: pre;"/>
    <path d="M 267.523 192.49 L 266.245 192.49 L 266.245 177.609 L 267.523 177.609 Z M 287.905 192.49 L 286.628 192.49 L 286.628 177.609 L 287.905 177.609 Z" style="fill: rgb(255, 255, 255); white-space: pre;"/>
    <path d="M 267.523 209.477 L 266.245 209.477 L 266.245 194.596 L 267.523 194.596 Z M 282.214 210 L 272.02 210 L 272.02 208.913 L 282.214 208.913 Z M 287.905 209.477 L 286.628 209.477 L 286.628 194.596 L 287.905 194.596 Z" style="fill: rgb(255, 255, 255); white-space: pre;"/>
  </g>
</svg>