<?xml version="1.0" encoding="utf-8"?>
<svg viewBox="0 0 800 200" xmlns="http://www.w3.org/2000/svg">
  <g transform="matrix(0.283046, 0, 0, 0.283046, 293.278351, 262.079773)">
    <path d="M -743.009 -720.708 L -779.015 -720.708 L -779.015 -724.546 L -743.009 -724.546 Z M -707.026 -720.708 L -743.032 -720.708 L -743.032 -724.546 L -707.026 -724.546 Z M -670.993 -720.708 L -706.999 -720.708 L -706.999 -724.546 L -670.993 -724.546 Z M -635.01 -720.708 L -671.016 -720.708 L -671.016 -724.546 L -635.01 -724.546 Z M -599.027 -720.708 L -635.033 -720.708 L -635.033 -724.546 L -599.027 -724.546 Z M -203.015 -720.708 L -239.021 -720.708 L -239.021 -724.546 L -203.015 -724.546 Z M 228.98 -720.708 L 192.974 -720.708 L 192.974 -724.546 L 228.98 -724.546 Z M 264.963 -720.708 L 228.957 -720.708 L 228.957 -724.546 L 264.963 -724.546 Z M 300.995 -720.708 L 264.989 -720.708 L 264.989 -724.546 L 300.995 -724.546 Z M 336.978 -720.708 L 300.973 -720.708 L 300.973 -724.546 L 336.978 -724.546 Z M 372.962 -720.708 L 336.956 -720.708 L 336.956 -724.546 L 372.962 -724.546 Z M 840.989 -720.708 L 804.983 -720.708 L 804.983 -724.546 L 840.989 -724.546 Z M 876.972 -720.708 L 840.966 -720.708 L 840.966 -724.546 L 876.972 -724.546 Z M 1200.968 -720.708 L 1164.962 -720.708 L 1164.962 -724.546 L 1200.968 -724.546 Z M 1236.951 -720.708 L 1200.946 -720.708 L 1200.946 -724.546 L 1236.951 -724.546 Z M 1416.966 -720.708 L 1380.96 -720.708 L 1380.96 -724.546 L 1416.966 -724.546 Z M 1452.949 -720.708 L 1416.943 -720.708 L 1416.943 -724.546 L 1452.949 -724.546 Z M 1488.981 -720.708 L 1452.975 -720.708 L 1452.975 -724.546 L 1488.981 -724.546 Z M 1524.964 -720.708 L 1488.959 -720.708 L 1488.959 -724.546 L 1524.964 -724.546 Z" style="fill: rgb(255, 255, 255); white-space: pre;"/>
    <path d="M -794.9 -662.553 L -799.412 -662.553 L -799.412 -715.112 L -794.9 -715.112 Z M -743.009 -660.708 L -779.015 -660.708 L -779.015 -664.546 L -743.009 -664.546 Z M -599.027 -660.708 L -635.033 -660.708 L -635.033 -664.546 L -599.027 -664.546 Z M -578.903 -662.553 L -583.415 -662.553 L -583.415 -715.112 L -578.903 -715.112 Z M -254.907 -662.553 L -259.418 -662.553 L -259.418 -715.112 L -254.907 -715.112 Z M -182.94 -662.553 L -187.452 -662.553 L -187.452 -715.112 L -182.94 -715.112 Z M 177.088 -662.553 L 172.577 -662.553 L 172.577 -715.112 L 177.088 -715.112 Z M 300.995 -660.708 L 264.989 -660.708 L 264.989 -664.546 L 300.995 -664.546 Z M 336.978 -660.708 L 300.972 -660.708 L 300.972 -664.546 L 336.978 -664.546 Z M 401.494 -672.983 L 397.158 -672.983 L 379.228 -715.903 L 383.594 -715.903 Z M 797.515 -715.903 L 779.556 -672.983 L 775.249 -672.983 L 793.12 -715.903 Z M 876.972 -660.708 L 840.966 -660.708 L 840.966 -664.546 L 876.972 -664.546 Z M 897.047 -662.553 L 892.535 -662.553 L 892.535 -715.112 L 897.047 -715.112 Z M 1157.544 -715.903 L 1139.585 -672.983 L 1135.278 -672.983 L 1153.149 -715.903 Z M 1257.076 -662.553 L 1252.564 -662.553 L 1252.564 -715.112 L 1257.076 -715.112 Z M 1373.541 -715.903 L 1355.582 -672.983 L 1351.276 -672.983 L 1369.147 -715.903 Z M 1452.949 -660.708 L 1416.943 -660.708 L 1416.943 -664.546 L 1452.949 -664.546 Z M 1488.981 -660.708 L 1452.975 -660.708 L 1452.975 -664.546 L 1488.981 -664.546 Z M 1524.964 -660.708 L 1488.959 -660.708 L 1488.959 -664.546 L 1524.964 -664.546 Z M 1545.039 -662.553 L 1540.528 -662.553 L 1540.528 -715.112 L 1545.039 -715.112 Z" style="fill: rgb(255, 255, 255); white-space: pre;"/>
    <path d="M -722.934 -602.553 L -727.446 -602.553 L -727.446 -655.112 L -722.934 -655.112 Z M -650.918 -602.553 L -655.43 -602.553 L -655.43 -655.112 L -650.918 -655.112 Z M -599.027 -600.708 L -635.033 -600.708 L -635.033 -604.546 L -599.027 -604.546 Z M -454.996 -600.708 L -491.002 -600.708 L -491.002 -604.546 L -454.996 -604.546 Z M -383.029 -600.708 L -419.035 -600.708 L -419.035 -604.546 L -383.029 -604.546 Z M -311.014 -600.708 L -347.02 -600.708 L -347.02 -604.546 L -311.014 -604.546 Z M -275.031 -600.708 L -311.037 -600.708 L -311.037 -604.546 L -275.031 -604.546 Z M -254.906 -602.553 L -259.418 -602.553 L -259.418 -655.112 L -254.906 -655.112 Z M -182.94 -602.553 L -187.452 -602.553 L -187.452 -655.112 L -182.94 -655.112 Z M -131 -600.708 L -167.005 -600.708 L -167.005 -604.546 L -131 -604.546 Z M -95.016 -600.708 L -131.022 -600.708 L -131.022 -604.546 L -95.016 -604.546 Z M 48.965 -600.708 L 12.96 -600.708 L 12.96 -604.546 L 48.965 -604.546 Z M 84.998 -600.708 L 48.992 -600.708 L 48.992 -604.546 L 84.998 -604.546 Z M 120.981 -600.708 L 84.975 -600.708 L 84.975 -604.546 L 120.981 -604.546 Z M 177.088 -602.553 L 172.577 -602.553 L 172.577 -655.112 L 177.088 -655.112 Z M 249.055 -602.553 L 244.543 -602.553 L 244.543 -655.112 L 249.055 -655.112 Z M 365.462 -612.983 L 361.126 -612.983 L 343.196 -655.903 L 347.561 -655.903 Z M 401.553 -655.903 L 383.594 -612.983 L 379.287 -612.983 L 397.158 -655.903 Z M 444.977 -600.708 L 408.971 -600.708 L 408.971 -604.546 L 444.977 -604.546 Z M 516.993 -600.708 L 480.987 -600.708 L 480.987 -604.546 L 516.993 -604.546 Z M 552.976 -600.708 L 516.97 -600.708 L 516.97 -604.546 L 552.976 -604.546 Z M 624.992 -600.708 L 588.986 -600.708 L 588.986 -604.546 L 624.992 -604.546 Z M 660.975 -600.708 L 624.969 -600.708 L 624.969 -604.546 L 660.975 -604.546 Z M 732.99 -600.708 L 696.985 -600.708 L 696.985 -604.546 L 732.99 -604.546 Z M 753.065 -602.553 L 748.553 -602.553 L 748.553 -655.112 L 753.065 -655.112 Z M 825.081 -602.553 L 820.569 -602.553 L 820.569 -655.112 L 825.081 -655.112 Z M 876.972 -600.708 L 840.966 -600.708 L 840.966 -604.546 L 876.972 -604.546 Z M 912.955 -600.708 L 876.949 -600.708 L 876.949 -604.546 L 912.955 -604.546 Z M 948.988 -600.708 L 912.982 -600.708 L 912.982 -604.546 L 948.988 -604.546 Z M 1056.986 -600.708 L 1020.981 -600.708 L 1020.981 -604.546 L 1056.986 -604.546 Z M 1092.97 -600.708 L 1056.964 -600.708 L 1056.964 -604.546 L 1092.97 -604.546 Z M 1151.597 -647.905 L 1148.286 -647.905 L 1139.175 -656.723 L 1145.767 -656.723 Z M 1185.06 -602.553 L 1180.548 -602.553 L 1180.548 -655.112 L 1185.06 -655.112 Z M 1257.076 -602.553 L 1252.564 -602.553 L 1252.564 -655.112 L 1257.076 -655.112 Z M 1337.509 -655.903 L 1319.55 -612.983 L 1315.243 -612.983 L 1333.114 -655.903 Z M 1409.524 -655.903 L 1391.565 -612.983 L 1387.259 -612.983 L 1405.13 -655.903 Z M 1452.949 -600.708 L 1416.943 -600.708 L 1416.943 -604.546 L 1452.949 -604.546 Z M 1488.981 -600.708 L 1452.976 -600.708 L 1452.976 -604.546 L 1488.981 -604.546 Z M 1524.965 -600.708 L 1488.959 -600.708 L 1488.959 -604.546 L 1524.965 -604.546 Z" style="fill: rgb(255, 255, 255); white-space: pre;"/>
    <path d="M -722.934 -542.553 L -727.446 -542.553 L -727.446 -595.112 L -722.934 -595.112 Z M -650.919 -542.553 L -655.43 -542.553 L -655.43 -595.112 L -650.919 -595.112 Z M -578.903 -542.553 L -583.415 -542.553 L -583.415 -595.112 L -578.903 -595.112 Z M -506.937 -542.553 L -511.449 -542.553 L -511.449 -595.112 L -506.937 -595.112 Z M -434.921 -542.553 L -439.433 -542.553 L -439.433 -595.112 L -434.921 -595.112 Z M -362.73 -588.081 L -363.814 -579.878 L -366.158 -579.878 L -367.212 -588.081 L -367.212 -595.112 L -362.73 -595.112 Z M -311.014 -540.708 L -347.02 -540.708 L -347.02 -544.546 L -311.014 -544.546 Z M -275.031 -540.708 L -311.037 -540.708 L -311.037 -544.546 L -275.031 -544.546 Z M -254.907 -542.553 L -259.419 -542.553 L -259.419 -595.112 L -254.907 -595.112 Z M -182.765 -588.081 L -183.849 -579.878 L -186.193 -579.878 L -187.247 -588.081 L -187.247 -595.112 L -182.765 -595.112 Z M -131 -540.708 L -167.006 -540.708 L -167.006 -544.546 L -131 -544.546 Z M -66.534 -552.983 L -70.87 -552.983 L -88.799 -595.903 L -84.434 -595.903 Z M 5.541 -595.903 L -12.418 -552.983 L -16.725 -552.983 L 1.146 -595.903 Z M 84.998 -540.708 L 48.992 -540.708 L 48.992 -544.546 L 84.998 -544.546 Z M 149.464 -552.983 L 145.128 -552.983 L 127.198 -595.903 L 131.563 -595.903 Z M 177.088 -542.553 L 172.576 -542.553 L 172.576 -595.112 L 177.088 -595.112 Z M 249.054 -542.553 L 244.543 -542.553 L 244.543 -595.112 L 249.054 -595.112 Z M 336.978 -540.708 L 300.972 -540.708 L 300.972 -544.546 L 336.978 -544.546 Z M 372.961 -540.708 L 336.955 -540.708 L 336.955 -544.546 L 372.961 -544.546 Z M 393.086 -542.553 L 388.574 -542.553 L 388.574 -595.112 L 393.086 -595.112 Z M 465.228 -588.081 L 464.144 -579.878 L 461.8 -579.878 L 460.745 -588.081 L 460.745 -595.112 L 465.228 -595.112 Z M 516.992 -540.708 L 480.987 -540.708 L 480.987 -544.546 L 516.992 -544.546 Z M 552.976 -540.708 L 516.97 -540.708 L 516.97 -544.546 L 552.976 -544.546 Z M 581.517 -595.903 L 563.558 -552.983 L 559.252 -552.983 L 577.123 -595.903 Z M 660.974 -540.708 L 624.968 -540.708 L 624.968 -544.546 L 660.974 -544.546 Z M 683.569 -587.905 L 680.258 -587.905 L 671.147 -596.723 L 677.739 -596.723 Z M 753.065 -542.553 L 748.553 -542.553 L 748.553 -595.112 L 753.065 -595.112 Z M 876.972 -540.708 L 840.966 -540.708 L 840.966 -544.546 L 876.972 -544.546 Z M 905.455 -552.983 L 901.119 -552.983 L 883.189 -595.903 L 887.554 -595.903 Z M 977.47 -552.983 L 973.135 -552.983 L 955.205 -595.903 L 959.57 -595.903 Z M 1013.512 -595.903 L 995.553 -552.983 L 991.247 -552.983 L 1009.118 -595.903 Z M 1085.528 -595.903 L 1067.569 -552.983 L 1063.262 -552.983 L 1081.133 -595.903 Z M 1185.06 -542.553 L 1180.548 -542.553 L 1180.548 -595.112 L 1185.06 -595.112 Z M 1257.075 -542.553 L 1252.564 -542.553 L 1252.564 -595.112 L 1257.075 -595.112 Z M 1329.042 -542.553 L 1324.53 -542.553 L 1324.53 -595.112 L 1329.042 -595.112 Z M 1416.965 -540.708 L 1380.96 -540.708 L 1380.96 -544.546 L 1416.965 -544.546 Z M 1452.949 -540.708 L 1416.943 -540.708 L 1416.943 -544.546 L 1452.949 -544.546 Z M 1488.981 -540.708 L 1452.975 -540.708 L 1452.975 -544.546 L 1488.981 -544.546 Z M 1553.447 -552.983 L 1549.111 -552.983 L 1531.182 -595.903 L 1535.547 -595.903 Z" style="fill: rgb(255, 255, 255); white-space: pre;"/>
    <path d="M -722.934 -482.553 L -727.446 -482.553 L -727.446 -535.112 L -722.934 -535.112 Z M -650.919 -482.553 L -655.43 -482.553 L -655.43 -535.112 L -650.919 -535.112 Z M -578.903 -482.553 L -583.415 -482.553 L -583.415 -535.112 L -578.903 -535.112 Z M -527.012 -480.708 L -563.018 -480.708 L -563.018 -484.546 L -527.012 -484.546 Z M -506.937 -482.553 L -511.449 -482.553 L -511.449 -535.112 L -506.937 -535.112 Z M -434.921 -482.553 L -439.433 -482.553 L -439.433 -535.112 L -434.921 -535.112 Z M -362.906 -482.553 L -367.417 -482.553 L -367.417 -535.112 L -362.906 -535.112 Z M -254.907 -482.553 L -259.419 -482.553 L -259.419 -535.112 L -254.907 -535.112 Z M -182.941 -482.553 L -187.452 -482.553 L -187.452 -535.112 L -182.941 -535.112 Z M -131 -480.708 L -167.006 -480.708 L -167.006 -484.546 L -131 -484.546 Z M -121.296 -535.844 C -116.921 -532.544 -113.601 -528.72 -111.335 -524.375 C -109.07 -520.029 -107.937 -515.405 -107.937 -510.503 C -107.937 -505.639 -109.074 -501.02 -111.35 -496.645 C -113.625 -492.27 -116.941 -488.432 -121.296 -485.132 L -123.113 -487.651 C -119.538 -490.815 -116.965 -494.179 -115.393 -497.744 C -113.821 -501.308 -113.034 -505.581 -113.034 -510.561 C -113.034 -515.698 -113.845 -519.995 -115.466 -523.452 C -117.087 -526.909 -119.636 -530.2 -123.113 -533.325 Z M -38.909 -482.553 L -43.421 -482.553 L -43.421 -535.112 L -38.909 -535.112 Z M 41.026 -487.651 L 39.238 -485.132 C 34.883 -488.432 31.563 -492.27 29.278 -496.645 C 26.992 -501.02 25.85 -505.639 25.85 -510.503 C 25.85 -515.405 26.983 -520.029 29.248 -524.375 C 31.514 -528.72 34.844 -532.544 39.238 -535.844 L 41.026 -533.325 C 37.451 -530.122 34.878 -526.767 33.306 -523.261 C 31.734 -519.756 30.947 -515.522 30.947 -510.561 C 30.947 -505.424 31.763 -501.103 33.394 -497.597 C 35.025 -494.091 37.569 -490.776 41.026 -487.651 Z M 84.998 -480.708 L 48.992 -480.708 L 48.992 -484.546 L 84.998 -484.546 Z M 94.701 -535.844 C 99.076 -532.544 102.397 -528.72 104.662 -524.375 C 106.928 -520.029 108.061 -515.405 108.061 -510.503 C 108.061 -505.639 106.923 -501.02 104.648 -496.645 C 102.372 -492.27 99.057 -488.432 94.701 -485.132 L 92.885 -487.651 C 96.459 -490.815 99.032 -494.179 100.605 -497.744 C 102.177 -501.308 102.963 -505.581 102.963 -510.561 C 102.963 -515.698 102.153 -519.995 100.531 -523.452 C 98.91 -526.909 96.362 -530.2 92.885 -533.325 Z M 177.088 -482.553 L 172.576 -482.553 L 172.576 -535.112 L 177.088 -535.112 Z M 249.054 -482.553 L 244.543 -482.553 L 244.543 -535.112 L 249.054 -535.112 Z M 300.995 -480.708 L 264.989 -480.708 L 264.989 -484.546 L 300.995 -484.546 Z M 329.478 -492.983 L 325.142 -492.983 L 307.212 -535.903 L 311.578 -535.903 Z M 401.494 -492.983 L 397.158 -492.983 L 379.228 -535.903 L 383.593 -535.903 Z M 465.052 -482.553 L 460.54 -482.553 L 460.54 -535.112 L 465.052 -535.112 Z M 537.067 -482.553 L 532.556 -482.553 L 532.556 -535.112 L 537.067 -535.112 Z M 617.052 -487.651 L 615.265 -485.132 C 610.909 -488.432 607.589 -492.27 605.304 -496.645 C 603.019 -501.02 601.876 -505.639 601.876 -510.503 C 601.876 -515.405 603.009 -520.029 605.274 -524.375 C 607.54 -528.72 610.87 -532.544 615.265 -535.844 L 617.052 -533.325 C 613.478 -530.122 610.904 -526.767 609.332 -523.261 C 607.76 -519.756 606.974 -515.522 606.974 -510.561 C 606.974 -505.424 607.789 -501.103 609.42 -497.597 C 611.051 -494.091 613.595 -490.776 617.052 -487.651 Z M 660.974 -480.708 L 624.968 -480.708 L 624.968 -484.546 L 660.974 -484.546 Z M 681.049 -482.553 L 676.538 -482.553 L 676.538 -535.112 L 681.049 -535.112 Z M 753.065 -482.553 L 748.553 -482.553 L 748.553 -535.112 L 753.065 -535.112 Z M 825.08 -482.553 L 820.569 -482.553 L 820.569 -535.112 L 825.08 -535.112 Z M 942.689 -513.227 L 920.775 -500.073 L 920.775 -504.38 L 938.353 -514.839 L 920.775 -525.561 L 920.775 -529.78 L 942.689 -516.743 Z M 1049.545 -500.073 L 1027.631 -513.227 L 1027.631 -516.743 L 1049.545 -529.78 L 1049.545 -525.561 L 1031.967 -514.839 L 1049.545 -504.38 Z M 1164.985 -480.708 L 1128.979 -480.708 L 1128.979 -484.546 L 1164.985 -484.546 Z M 1185.06 -482.553 L 1180.548 -482.553 L 1180.548 -535.112 L 1185.06 -535.112 Z M 1257.075 -482.553 L 1252.564 -482.553 L 1252.564 -535.112 L 1257.075 -535.112 Z M 1308.967 -480.708 L 1272.961 -480.708 L 1272.961 -484.546 L 1308.967 -484.546 Z M 1329.042 -482.553 L 1324.53 -482.553 L 1324.53 -535.112 L 1329.042 -535.112 Z M 1409.465 -492.983 L 1405.13 -492.983 L 1387.2 -535.903 L 1391.565 -535.903 Z M 1452.949 -480.708 L 1416.943 -480.708 L 1416.943 -484.546 L 1452.949 -484.546 Z M 1481.54 -535.903 L 1463.581 -492.983 L 1459.274 -492.983 L 1477.145 -535.903 Z M 1545.039 -482.553 L 1540.527 -482.553 L 1540.527 -535.112 L 1545.039 -535.112 Z" style="fill: rgb(255, 255, 255); white-space: pre;"/>
    <path d="M -714.526 -432.983 L -718.862 -432.983 L -736.792 -475.903 L -732.426 -475.903 Z M -670.994 -420.708 L -706.999 -420.708 L -706.999 -424.546 L -670.994 -424.546 Z M -642.452 -475.903 L -660.411 -432.983 L -664.717 -432.983 L -646.846 -475.903 Z M -606.527 -432.983 L -610.863 -432.983 L -628.793 -475.903 L -624.428 -475.903 Z M -562.995 -420.708 L -599.001 -420.708 L -599.001 -424.546 L -562.995 -424.546 Z M -527.012 -420.708 L -563.018 -420.708 L -563.018 -424.546 L -527.012 -424.546 Z M -508.988 -432.983 C -510.003 -433.1 -510.843 -433.52 -511.507 -434.243 C -512.171 -434.965 -512.503 -435.786 -512.503 -436.704 C -512.503 -437.7 -512.181 -438.54 -511.536 -439.223 C -510.892 -439.907 -510.081 -440.249 -509.105 -440.249 C -508.011 -440.249 -507.064 -439.804 -506.263 -438.916 C -505.462 -438.027 -505.062 -436.958 -505.062 -435.708 C -505.062 -431.88 -507.191 -428.891 -511.449 -426.743 L -512.562 -428.852 C -510.179 -430.024 -508.988 -431.401 -508.988 -432.983 Z M -454.996 -420.708 L -491.002 -420.708 L -491.002 -424.546 L -454.996 -424.546 Z M -434.921 -422.553 L -439.433 -422.553 L -439.433 -475.112 L -434.921 -475.112 Z M -383.03 -420.708 L -419.036 -420.708 L -419.036 -424.546 L -383.03 -424.546 Z M -362.906 -422.553 L -367.417 -422.553 L -367.417 -475.112 L -362.906 -475.112 Z M -254.907 -422.553 L -259.419 -422.553 L -259.419 -475.112 L -254.907 -475.112 Z M -203.016 -420.708 L -239.021 -420.708 L -239.021 -424.546 L -203.016 -424.546 Z M -185.226 -440.483 C -184.191 -440.483 -183.321 -440.132 -182.618 -439.428 C -181.915 -438.725 -181.564 -437.856 -181.564 -436.821 C -181.564 -435.766 -181.92 -434.863 -182.633 -434.111 C -183.346 -433.359 -184.21 -432.983 -185.226 -432.983 C -186.222 -432.983 -187.071 -433.359 -187.775 -434.111 C -188.478 -434.863 -188.829 -435.766 -188.829 -436.821 C -188.829 -437.876 -188.483 -438.75 -187.789 -439.443 C -187.096 -440.136 -186.241 -440.483 -185.226 -440.483 Z M -131 -420.708 L -167.006 -420.708 L -167.006 -424.546 L -131 -424.546 Z M -95.017 -420.708 L -131.023 -420.708 L -131.023 -424.546 L -95.017 -424.546 Z M -66.475 -475.903 L -84.434 -432.983 L -88.741 -432.983 L -70.87 -475.903 Z M 5.482 -432.983 L 1.146 -432.983 L -16.784 -475.903 L -12.418 -475.903 Z M 48.965 -420.708 L 12.959 -420.708 L 12.959 -424.546 L 48.965 -424.546 Z M 84.998 -420.708 L 48.992 -420.708 L 48.992 -424.546 L 84.998 -424.546 Z M 120.981 -420.708 L 84.975 -420.708 L 84.975 -424.546 L 120.981 -424.546 Z M 149.522 -475.903 L 131.563 -432.983 L 127.257 -432.983 L 145.128 -475.903 Z M 221.479 -432.983 L 217.143 -432.983 L 199.214 -475.903 L 203.579 -475.903 Z M 264.962 -420.708 L 228.957 -420.708 L 228.957 -424.546 L 264.962 -424.546 Z M 300.995 -420.708 L 264.989 -420.708 L 264.989 -424.546 L 300.995 -424.546 Z M 336.978 -420.708 L 300.972 -420.708 L 300.972 -424.546 L 336.978 -424.546 Z M 372.961 -420.708 L 336.955 -420.708 L 336.955 -424.546 L 372.961 -424.546 Z M 401.552 -475.903 L 383.593 -432.983 L 379.287 -432.983 L 397.158 -475.903 Z M 444.977 -420.708 L 408.971 -420.708 L 408.971 -424.546 L 444.977 -424.546 Z M 465.052 -422.553 L 460.54 -422.553 L 460.54 -475.112 L 465.052 -475.112 Z M 581.459 -432.983 L 577.123 -432.983 L 559.193 -475.903 L 563.558 -475.903 Z M 624.991 -420.708 L 588.985 -420.708 L 588.985 -424.546 L 624.991 -424.546 Z M 660.974 -420.708 L 624.968 -420.708 L 624.968 -424.546 L 660.974 -424.546 Z M 678.998 -432.983 C 677.983 -433.1 677.143 -433.52 676.479 -434.243 C 675.815 -434.965 675.483 -435.786 675.483 -436.704 C 675.483 -437.7 675.805 -438.54 676.45 -439.223 C 677.094 -439.907 677.905 -440.249 678.881 -440.249 C 679.975 -440.249 680.922 -439.804 681.723 -438.916 C 682.524 -438.027 682.924 -436.958 682.924 -435.708 C 682.924 -431.88 680.795 -428.891 676.538 -426.743 L 675.424 -428.852 C 677.807 -430.024 678.998 -431.401 678.998 -432.983 Z M 732.99 -420.708 L 696.984 -420.708 L 696.984 -424.546 L 732.99 -424.546 Z M 753.065 -422.553 L 748.553 -422.553 L 748.553 -475.112 L 753.065 -475.112 Z M 804.956 -420.708 L 768.95 -420.708 L 768.95 -424.546 L 804.956 -424.546 Z M 825.08 -422.553 L 820.569 -422.553 L 820.569 -475.112 L 825.08 -475.112 Z M 905.513 -475.903 L 887.554 -432.983 L 883.248 -432.983 L 901.119 -475.903 Z M 948.987 -420.708 L 912.982 -420.708 L 912.982 -424.546 L 948.987 -424.546 Z M 977.529 -475.903 L 959.57 -432.983 L 955.263 -432.983 L 973.135 -475.903 Z M 1013.454 -432.983 L 1009.118 -432.983 L 991.188 -475.903 L 995.553 -475.903 Z M 1056.986 -420.708 L 1020.98 -420.708 L 1020.98 -424.546 L 1056.986 -424.546 Z M 1085.469 -432.983 L 1081.133 -432.983 L 1063.204 -475.903 L 1067.569 -475.903 Z M 1157.485 -432.983 L 1153.149 -432.983 L 1135.219 -475.903 L 1139.585 -475.903 Z M 1200.968 -420.708 L 1164.962 -420.708 L 1164.962 -424.546 L 1200.968 -424.546 Z M 1236.951 -420.708 L 1200.945 -420.708 L 1200.945 -424.546 L 1236.951 -424.546 Z M 1272.984 -420.708 L 1236.978 -420.708 L 1236.978 -424.546 L 1272.984 -424.546 Z M 1301.525 -475.903 L 1283.566 -432.983 L 1279.26 -432.983 L 1297.131 -475.903 Z M 1337.45 -432.983 L 1333.114 -432.983 L 1315.184 -475.903 L 1319.549 -475.903 Z M 1380.982 -420.708 L 1344.976 -420.708 L 1344.976 -424.546 L 1380.982 -424.546 Z M 1416.965 -420.708 L 1380.96 -420.708 L 1380.96 -424.546 L 1416.965 -424.546 Z M 1452.949 -420.708 L 1416.943 -420.708 L 1416.943 -424.546 L 1452.949 -424.546 Z M 1488.981 -420.708 L 1452.975 -420.708 L 1452.975 -424.546 L 1488.981 -424.546 Z M 1524.964 -420.708 L 1488.958 -420.708 L 1488.958 -424.546 L 1524.964 -424.546 Z M 1553.506 -475.903 L 1535.547 -432.983 L 1531.24 -432.983 L 1549.111 -475.903 Z" style="fill: rgb(255, 255, 255); white-space: pre;"/>
  </g>
</svg>